  0
SECTION
  2
HEADER
  9
$ACADVER
  1
AC1027
  9
$ACADMAINTVER
 70
105
  9
$DWGCODEPAGE
  3
ANSI_1252
  9
$LASTSAVEDBY
  1
ezdxf
  9
$REQUIREDVERSIONS
160
0
  9
$INSBASE
 10
0.0
 20
0.0
 30
0.0
  9
$EXTMIN
 10
1e+20
 20
1e+20
 30
1e+20
  9
$EXTMAX
 10
-1e+20
 20
-1e+20
 30
-1e+20
  9
$LIMMIN
 10
0.0
 20
0.0
  9
$LIMMAX
 10
420.0
 20
297.0
  9
$ORTHOMODE
 70
0
  9
$REGENMODE
 70
1
  9
$FILLMODE
 70
1
  9
$QTEXTMODE
 70
0
  9
$MIRRTEXT
 70
1
  9
$LTSCALE
 40
1.0
  9
$ATTMODE
 70
1
  9
$TEXTSIZE
 40
2.5
  9
$TRACEWID
 40
1.0
  9
$TEXTSTYLE
  7
Standard
  9
$CLAYER
  8
0
  9
$CELTYPE
  6
ByLayer
  9
$CECOLOR
 62
256
  9
$CELTSCALE
 40
1.0
  9
$DISPSILH
 70
0
  9
$DIMSCALE
 40
1.0
  9
$DIMASZ
 40
2.5
  9
$DIMEXO
 40
0.625
  9
$DIMDLI
 40
3.75
  9
$DIMRND
 40
0.0
  9
$DIMDLE
 40
0.0
  9
$DIMEXE
 40
1.25
  9
$DIMTP
 40
0.0
  9
$DIMTM
 40
0.0
  9
$DIMTXT
 40
2.5
  9
$DIMCEN
 40
2.5
  9
$DIMTSZ
 40
0.0
  9
$DIMTOL
 70
0
  9
$DIMLIM
 70
0
  9
$DIMTIH
 70
0
  9
$DIMTOH
 70
0
  9
$DIMSE1
 70
0
  9
$DIMSE2
 70
0
  9
$DIMTAD
 70
1
  9
$DIMZIN
 70
8
  9
$DIMBLK
  1

  9
$DIMASO
 70
1
  9
$DIMSHO
 70
1
  9
$DIMPOST
  1

  9
$DIMAPOST
  1

  9
$DIMALT
 70
0
  9
$DIMALTD
 70
3
  9
$DIMALTF
 40
0.03937007874
  9
$DIMLFAC
 40
1.0
  9
$DIMTOFL
 70
1
  9
$DIMTVP
 40
0.0
  9
$DIMTIX
 70
0
  9
$DIMSOXD
 70
0
  9
$DIMSAH
 70
0
  9
$DIMBLK1
  1

  9
$DIMBLK2
  1

  9
$DIMSTYLE
  2
ISO-25
  9
$DIMCLRD
 70
0
  9
$DIMCLRE
 70
0
  9
$DIMCLRT
 70
0
  9
$DIMTFAC
 40
1.0
  9
$DIMGAP
 40
0.625
  9
$DIMJUST
 70
0
  9
$DIMSD1
 70
0
  9
$DIMSD2
 70
0
  9
$DIMTOLJ
 70
0
  9
$DIMTZIN
 70
8
  9
$DIMALTZ
 70
0
  9
$DIMALTTZ
 70
0
  9
$DIMUPT
 70
0
  9
$DIMDEC
 70
2
  9
$DIMTDEC
 70
2
  9
$DIMALTU
 70
2
  9
$DIMALTTD
 70
3
  9
$DIMTXSTY
  7
Standard
  9
$DIMAUNIT
 70
0
  9
$DIMADEC
 70
0
  9
$DIMALTRND
 40
0.0
  9
$DIMAZIN
 70
0
  9
$DIMDSEP
 70
44
  9
$DIMATFIT
 70
3
  9
$DIMFRAC
 70
0
  9
$DIMLDRBLK
  1

  9
$DIMLUNIT
 70
2
  9
$DIMLWD
 70
-2
  9
$DIMLWE
 70
-2
  9
$DIMTMOVE
 70
0
  9
$DIMFXL
 40
1.0
  9
$DIMFXLON
 70
0
  9
$DIMJOGANG
 40
0.785398163397
  9
$DIMTFILL
 70
0
  9
$DIMTFILLCLR
 70
0
  9
$DIMARCSYM
 70
0
  9
$DIMLTYPE
  6

  9
$DIMLTEX1
  6

  9
$DIMLTEX2
  6

  9
$DIMTXTDIRECTION
 70
0
  9
$LUNITS
 70
2
  9
$LUPREC
 70
4
  9
$SKETCHINC
 40
1.0
  9
$FILLETRAD
 40
10.0
  9
$AUNITS
 70
0
  9
$AUPREC
 70
2
  9
$MENU
  1
.
  9
$ELEVATION
 40
0.0
  9
$PELEVATION
 40
0.0
  9
$THICKNESS
 40
0.0
  9
$LIMCHECK
 70
0
  9
$CHAMFERA
 40
0.0
  9
$CHAMFERB
 40
0.0
  9
$CHAMFERC
 40
0.0
  9
$CHAMFERD
 40
0.0
  9
$SKPOLY
 70
0
  9
$TDCREATE
 40
2461222.6647337964
  9
$TDUCREATE
 40
2458532.153996898
  9
$TDUPDATE
 40
2461222.6647337964
  9
$TDUUPDATE
 40
2458532.1544311
  9
$TDINDWG
 40
0.0
  9
$TDUSRTIMER
 40
0.0
  9
$USRTIMER
 70
1
  9
$ANGBASE
 50
0.0
  9
$ANGDIR
 70
0
  9
$PDMODE
 70
0
  9
$PDSIZE
 40
0.0
  9
$PLINEWID
 40
0.0
  9
$SPLFRAME
 70
0
  9
$SPLINETYPE
 70
6
  9
$SPLINESEGS
 70
8
  9
$HANDSEED
  5
46B
  9
$SURFTAB1
 70
6
  9
$SURFTAB2
 70
6
  9
$SURFTYPE
 70
6
  9
$SURFU
 70
6
  9
$SURFV
 70
6
  9
$UCSBASE
  2

  9
$UCSNAME
  2

  9
$UCSORG
 10
0.0
 20
0.0
 30
0.0
  9
$UCSXDIR
 10
1.0
 20
0.0
 30
0.0
  9
$UCSYDIR
 10
0.0
 20
1.0
 30
0.0
  9
$UCSORTHOREF
  2

  9
$UCSORTHOVIEW
 70
0
  9
$UCSORGTOP
 10
0.0
 20
0.0
 30
0.0
  9
$UCSORGBOTTOM
 10
0.0
 20
0.0
 30
0.0
  9
$UCSORGLEFT
 10
0.0
 20
0.0
 30
0.0
  9
$UCSORGRIGHT
 10
0.0
 20
0.0
 30
0.0
  9
$UCSORGFRONT
 10
0.0
 20
0.0
 30
0.0
  9
$UCSORGBACK
 10
0.0
 20
0.0
 30
0.0
  9
$PUCSBASE
  2

  9
$PUCSNAME
  2

  9
$PUCSORG
 10
0.0
 20
0.0
 30
0.0
  9
$PUCSXDIR
 10
1.0
 20
0.0
 30
0.0
  9
$PUCSYDIR
 10
0.0
 20
1.0
 30
0.0
  9
$PUCSORTHOREF
  2

  9
$PUCSORTHOVIEW
 70
0
  9
$PUCSORGTOP
 10
0.0
 20
0.0
 30
0.0
  9
$PUCSORGBOTTOM
 10
0.0
 20
0.0
 30
0.0
  9
$PUCSORGLEFT
 10
0.0
 20
0.0
 30
0.0
  9
$PUCSORGRIGHT
 10
0.0
 20
0.0
 30
0.0
  9
$PUCSORGFRONT
 10
0.0
 20
0.0
 30
0.0
  9
$PUCSORGBACK
 10
0.0
 20
0.0
 30
0.0
  9
$USERI1
 70
0
  9
$USERI2
 70
0
  9
$USERI3
 70
0
  9
$USERI4
 70
0
  9
$USERI5
 70
0
  9
$USERR1
 40
0.0
  9
$USERR2
 40
0.0
  9
$USERR3
 40
0.0
  9
$USERR4
 40
0.0
  9
$USERR5
 40
0.0
  9
$WORLDVIEW
 70
1
  9
$SHADEDGE
 70
3
  9
$SHADEDIF
 70
70
  9
$TILEMODE
 70
1
  9
$MAXACTVP
 70
64
  9
$PINSBASE
 10
0.0
 20
0.0
 30
0.0
  9
$PLIMCHECK
 70
0
  9
$PEXTMIN
 10
1e+20
 20
1e+20
 30
1e+20
  9
$PEXTMAX
 10
-1e+20
 20
-1e+20
 30
-1e+20
  9
$PLIMMIN
 10
0.0
 20
0.0
  9
$PLIMMAX
 10
420.0
 20
297.0
  9
$UNITMODE
 70
0
  9
$VISRETAIN
 70
1
  9
$PLINEGEN
 70
0
  9
$PSLTSCALE
 70
1
  9
$TREEDEPTH
 70
3020
  9
$CMLSTYLE
  2
Standard
  9
$CMLJUST
 70
0
  9
$CMLSCALE
 40
20.0
  9
$PROXYGRAPHICS
 70
1
  9
$MEASUREMENT
 70
1
  9
$CELWEIGHT
370
-1
  9
$ENDCAPS
280
0
  9
$JOINSTYLE
280
0
  9
$LWDISPLAY
290
0
  9
$INSUNITS
 70
4
  9
$HYPERLINKBASE
  1

  9
$STYLESHEET
  1

  9
$XEDIT
290
1
  9
$CEPSNTYPE
380
0
  9
$PSTYLEMODE
290
1
  9
$FINGERPRINTGUID
  2
{19E7C140-6D23-495B-9934-54E1BD68D049}
  9
$VERSIONGUID
  2
{9B0E753F-67BB-49FB-8627-31097DF0328C}
  9
$EXTNAMES
290
1
  9
$PSVPSCALE
 40
0.0
  9
$OLESTARTUP
290
0
  9
$SORTENTS
280
127
  9
$INDEXCTL
280
0
  9
$HIDETEXT
280
1
  9
$XCLIPFRAME
280
1
  9
$HALOGAP
280
0
  9
$OBSCOLOR
 70
257
  9
$OBSLTYPE
280
0
  9
$INTERSECTIONDISPLAY
280
0
  9
$INTERSECTIONCOLOR
 70
257
  9
$DIMASSOC
280
2
  9
$PROJECTNAME
  1

  9
$CAMERADISPLAY
290
0
  9
$LENSLENGTH
 40
50.0
  9
$CAMERAHEIGHT
 40
0.0
  9
$STEPSPERSEC
 40
24.0
  9
$STEPSIZE
 40
100.0
  9
$3DDWFPREC
 40
2.0
  9
$PSOLWIDTH
 40
0.005
  9
$PSOLHEIGHT
 40
0.08
  9
$LOFTANG1
 40
1.570796326795
  9
$LOFTANG2
 40
1.570796326795
  9
$LOFTMAG1
 40
0.0
  9
$LOFTMAG2
 40
0.0
  9
$LOFTPARAM
 70
7
  9
$LOFTNORMALS
280
1
  9
$LATITUDE
 40
37.795
  9
$LONGITUDE
 40
-122.394
  9
$NORTHDIRECTION
 40
0.0
  9
$TIMEZONE
 70
-8000
  9
$LIGHTGLYPHDISPLAY
280
1
  9
$TILEMODELIGHTSYNCH
280
1
  9
$CMATERIAL
347
20
  9
$SOLIDHIST
280
0
  9
$SHOWHIST
280
1
  9
$DWFFRAME
280
2
  9
$DGNFRAME
280
2
  9
$REALWORLDSCALE
290
1
  9
$INTERFERECOLOR
 62
256
  9
$CSHADOW
280
0
  9
$SHADOWPLANELOCATION
 40
0.0
  0
ENDSEC
  0
SECTION
  2
CLASSES
  0
CLASS
  1
ACDBDICTIONARYWDFLT
  2
AcDbDictionaryWithDefault
  3
ObjectDBX Classes
 90
0
 91
0
280
0
281
0
  0
CLASS
  1
SUN
  2
AcDbSun
  3
SCENEOE
 90
1153
 91
0
280
0
281
0
  0
CLASS
  1
VISUALSTYLE
  2
AcDbVisualStyle
  3
ObjectDBX Classes
 90
4095
 91
0
280
0
281
0
  0
CLASS
  1
MATERIAL
  2
AcDbMaterial
  3
ObjectDBX Classes
 90
1153
 91
0
280
0
281
0
  0
CLASS
  1
SCALE
  2
AcDbScale
  3
ObjectDBX Classes
 90
1153
 91
0
280
0
281
0
  0
CLASS
  1
TABLESTYLE
  2
AcDbTableStyle
  3
ObjectDBX Classes
 90
4095
 91
0
280
0
281
0
  0
CLASS
  1
MLEADERSTYLE
  2
AcDbMLeaderStyle
  3
ACDB_MLEADERSTYLE_CLASS
 90
4095
 91
0
280
0
281
0
  0
CLASS
  1
DICTIONARYVAR
  2
AcDbDictionaryVar
  3
ObjectDBX Classes
 90
0
 91
0
280
0
281
0
  0
CLASS
  1
CELLSTYLEMAP
  2
AcDbCellStyleMap
  3
ObjectDBX Classes
 90
1152
 91
0
280
0
281
0
  0
CLASS
  1
MENTALRAYRENDERSETTINGS
  2
AcDbMentalRayRenderSettings
  3
SCENEOE
 90
1024
 91
0
280
0
281
0
  0
CLASS
  1
ACDBDETAILVIEWSTYLE
  2
AcDbDetailViewStyle
  3
ObjectDBX Classes
 90
1025
 91
0
280
0
281
0
  0
CLASS
  1
ACDBSECTIONVIEWSTYLE
  2
AcDbSectionViewStyle
  3
ObjectDBX Classes
 90
1025
 91
0
280
0
281
0
  0
CLASS
  1
RASTERVARIABLES
  2
AcDbRasterVariables
  3
ISM
 90
0
 91
0
280
0
281
0
  0
CLASS
  1
ACDBPLACEHOLDER
  2
AcDbPlaceHolder
  3
ObjectDBX Classes
 90
0
 91
0
280
0
281
0
  0
CLASS
  1
LAYOUT
  2
AcDbLayout
  3
ObjectDBX Classes
 90
0
 91
0
280
0
281
0
  0
ENDSEC
  0
SECTION
  2
TABLES
  0
TABLE
  2
VPORT
  5
8
330
0
100
AcDbSymbolTable
 70
1
  0
VPORT
  5
467
330
8
100
AcDbSymbolTableRecord
100
AcDbViewportTableRecord
  2
*Active
 70
0
 10
0.0
 20
0.0
 11
1.0
 21
1.0
 12
0.0
 22
0.0
 13
0.0
 23
0.0
 14
0.5
 24
0.5
 15
0.5
 25
0.5
 16
0.0
 26
0.0
 36
1.0
 17
0.0
 27
0.0
 37
0.0
 40
51.999212290568884
 41
1.34
 42
50.0
 43
0.0
 44
0.0
 50
0.0
 51
0.0
 71
0
 72
1000
 73
1
 74
3
 75
0
 76
0
 77
0
 78
0
281
0
 65
1
110
0.0
120
0.0
130
0.0
111
1.0
121
0.0
131
0.0
112
0.0
122
1.0
132
0.0
 79
0
146
0.0
  0
ENDTAB
  0
TABLE
  2
LTYPE
  5
2
330
0
100
AcDbSymbolTable
 70
3
  0
LTYPE
  5
24
330
2
100
AcDbSymbolTableRecord
100
AcDbLinetypeTableRecord
  2
ByBlock
 70
0
  3

 72
65
 73
0
 40
0.0
  0
LTYPE
  5
25
330
2
100
AcDbSymbolTableRecord
100
AcDbLinetypeTableRecord
  2
ByLayer
 70
0
  3

 72
65
 73
0
 40
0.0
  0
LTYPE
  5
26
330
2
100
AcDbSymbolTableRecord
100
AcDbLinetypeTableRecord
  2
Continuous
 70
0
  3

 72
65
 73
0
 40
0.0
  0
ENDTAB
  0
TABLE
  2
LAYER
  5
1
330
0
100
AcDbSymbolTable
 70
2
  0
LAYER
  5
27
330
1
100
AcDbSymbolTableRecord
100
AcDbLayerTableRecord
  2
0
 70
0
 62
7
  6
Continuous
370
-3
390
13
347
21
  0
LAYER
  5
28
330
1
100
AcDbSymbolTableRecord
100
AcDbLayerTableRecord
  2
Defpoints
 70
0
 62
7
  6
Continuous
290
0
370
-3
390
13
347
21
  0
ENDTAB
  0
TABLE
  2
STYLE
  5
5
330
0
100
AcDbSymbolTable
 70
1
  0
STYLE
  5
29
330
5
100
AcDbSymbolTableRecord
100
AcDbTextStyleTableRecord
  2
Standard
 70
0
 40
0.0
 41
1.0
 50
0.0
 71
0
 42
2.5
  3
txt
  4

  0
ENDTAB
  0
TABLE
  2
VIEW
  5
7
330
0
100
AcDbSymbolTable
 70
0
  0
ENDTAB
  0
TABLE
  2
UCS
  5
6
330
0
100
AcDbSymbolTable
 70
0
  0
ENDTAB
  0
TABLE
  2
APPID
  5
3
330
0
100
AcDbSymbolTable
 70
3
  0
APPID
  5
2A
330
3
100
AcDbSymbolTableRecord
100
AcDbRegAppTableRecord
  2
ACAD
 70
0
  0
APPID
  5
468
330
3
100
AcDbSymbolTableRecord
100
AcDbRegAppTableRecord
  2
HATCHBACKGROUNDCOLOR
 70
0
  0
APPID
  5
469
330
3
100
AcDbSymbolTableRecord
100
AcDbRegAppTableRecord
  2
EZDXF
 70
0
  0
ENDTAB
  0
TABLE
  2
DIMSTYLE
  5
4
330
0
100
AcDbSymbolTable
 70
1
100
AcDbDimStyleTable
  0
DIMSTYLE
105
2B
330
4
100
AcDbSymbolTableRecord
100
AcDbDimStyleTableRecord
  2
Standard
 70
0
 40
1.0
 41
2.5
 42
0.625
 43
3.75
 44
1.25
 45
0.0
 46
0.0
 47
0.0
 48
0.0
 49
2.5
140
2.5
141
2.5
142
0.0
143
0.03937007874
144
1.0
145
0.0
146
1.0
147
0.625
148
0.0
 69
0
 70
0
 71
0
 72
0
 73
0
 74
0
 75
0
 76
0
 77
1
 78
8
 79
3
170
0
171
3
172
1
173
0
174
0
175
0
176
0
177
0
178
0
179
2
271
2
272
2
273
2
274
3
275
0
276
0
277
2
278
44
279
0
280
0
281
0
282
0
283
0
284
8
285
0
286
0
288
0
289
3
290
0
371
-2
372
-2
  0
ENDTAB
  0
TABLE
  2
BLOCK_RECORD
  5
9
330
0
100
AcDbSymbolTable
 70
2
  0
BLOCK_RECORD
  5
17
330
9
100
AcDbSymbolTableRecord
100
AcDbBlockTableRecord
  2
*Model_Space
340
1A
 70
0
280
1
281
0
  0
BLOCK_RECORD
  5
1B
330
9
100
AcDbSymbolTableRecord
100
AcDbBlockTableRecord
  2
*Paper_Space
340
1E
 70
0
280
1
281
0
  0
ENDTAB
  0
ENDSEC
  0
SECTION
  2
BLOCKS
  0
BLOCK
  5
18
330
17
100
AcDbEntity
  8
0
100
AcDbBlockBegin
  2
*Model_Space
 70
0
 10
0.0
 20
0.0
 30
0.0
  3
*Model_Space
  1

  0
ENDBLK
  5
19
330
17
100
AcDbEntity
  8
0
100
AcDbBlockEnd
  0
BLOCK
  5
1C
330
1B
100
AcDbEntity
  8
0
100
AcDbBlockBegin
  2
*Paper_Space
 70
0
 10
0.0
 20
0.0
 30
0.0
  3
*Paper_Space
  1

  0
ENDBLK
  5
1D
330
1B
100
AcDbEntity
  8
0
100
AcDbBlockEnd
  0
ENDSEC
  0
SECTION
  2
ENTITIES
  0
LINE
  5
2F
330
17
100
AcDbEntity
  8
0
100
AcDbLine
 10
21.430626713611016
 20
-1.7257574168642522
 30
0.0
 11
22.47985315155085
 21
-1.8102491273234116
 31
0.0
  0
LINE
  5
30
330
17
100
AcDbEntity
  8
0
100
AcDbLine
 10
22.47985315155085
 20
-1.8102491273234116
 30
0.0
 11
22.494325086102855
 21
-1.811066961898665
 31
0.0
  0
LINE
  5
31
330
17
100
AcDbEntity
  8
0
100
AcDbLine
 10
22.494325086102855
 20
-1.811066961898665
 30
0.0
 11
22.53779633289815
 21
-1.8121357788623602
 31
0.0
  0
LINE
  5
32
330
17
100
AcDbEntity
  8
0
100
AcDbLine
 10
22.53779633289815
 20
-1.8121357788623602
 30
0.0
 11
22.610266238348252
 21
-1.8113766208867896
 31
0.0
  0
LINE
  5
33
330
17
100
AcDbEntity
  8
0
100
AcDbLine
 10
22.610266238348252
 20
-1.8113766208867896
 30
0.0
 11
22.71162236694253
 21
-1.8067122359468202
 31
0.0
  0
LINE
  5
34
330
17
100
AcDbEntity
  8
0
100
AcDbLine
 10
22.71162236694253
 20
-1.8067122359468202
 30
0.0
 11
22.841640670556796
 21
-1.7960724185595194
 31
0.0
  0
LINE
  5
35
330
17
100
AcDbEntity
  8
0
100
AcDbLine
 10
22.841640670556796
 20
-1.7960724185595194
 30
0.0
 11
22.99998589696058
 21
-1.777399339361165
 31
0.0
  0
LINE
  5
36
330
17
100
AcDbEntity
  8
0
100
AcDbLine
 10
22.99998589696058
 20
-1.777399339361165
 30
0.0
 11
23.18621223684309
 21
-1.748652852741135
 31
0.0
  0
LINE
  5
37
330
17
100
AcDbEntity
  8
0
100
AcDbLine
 10
23.18621223684309
 20
-1.748652852741135
 30
0.0
 11
23.399764208248403
 21
-1.7078157722881464
 31
0.0
  0
LINE
  5
38
330
17
100
AcDbEntity
  8
0
100
AcDbLine
 10
23.399764208248403
 20
-1.7078157722881464
 30
0.0
 11
23.639977776882844
 21
-1.65289910385784
 31
0.0
  0
LINE
  5
39
330
17
100
AcDbEntity
  8
0
100
AcDbLine
 10
23.639977776882844
 20
-1.65289910385784
 30
0.0
 11
23.906081710332273
 21
-1.5819472261417045
 31
0.0
  0
LINE
  5
3A
330
17
100
AcDbEntity
  8
0
100
AcDbLine
 10
23.906081710332273
 20
-1.5819472261417045
 30
0.0
 11
24.197199163805095
 21
-1.4930430087057334
 31
0.0
  0
LINE
  5
3B
330
17
100
AcDbEntity
  8
0
100
AcDbLine
 10
24.197199163805095
 20
-1.4930430087057334
 30
0.0
 11
24.512349494598634
 21
-1.3843128575728176
 31
0.0
  0
LINE
  5
3C
330
17
100
AcDbEntity
  8
0
100
AcDbLine
 10
24.512349494598634
 20
-1.3843128575728176
 30
0.0
 11
24.8504503020732
 21
-1.253931678545525
 31
0.0
  0
LINE
  5
3D
330
17
100
AcDbEntity
  8
0
100
AcDbLine
 10
24.8504503020732
 20
-1.253931678545525
 30
0.0
 11
25.210319689509674
 21
-1.1001277486054815
 31
0.0
  0
LINE
  5
3E
330
17
100
AcDbEntity
  8
0
100
AcDbLine
 10
25.210319689509674
 20
-1.1001277486054815
 30
0.0
 11
25.590678743824466
 21
-0.9211874858817394
 31
0.0
  0
LINE
  5
3F
330
17
100
AcDbEntity
  8
0
100
AcDbLine
 10
25.590678743824466
 20
-0.9211874858817394
 30
0.0
 11
25.990154228719767
 21
-0.7154601088530874
 31
0.0
  0
LINE
  5
40
330
17
100
AcDbEntity
  8
0
100
AcDbLine
 10
25.990154228719767
 20
-0.7154601088530874
 30
0.0
 11
25.9964553791542
 21
-0.42931074950990367
 31
0.0
  0
LINE
  5
41
330
17
100
AcDbEntity
  8
0
100
AcDbLine
 10
25.9964553791542
 20
-0.42931074950990367
 30
0.0
 11
25.999606145284442
 21
-0.14310936407981123
 31
0.0
  0
LINE
  5
42
330
17
100
AcDbEntity
  8
0
100
AcDbLine
 10
25.999606145284442
 20
-0.14310936407981123
 30
0.0
 11
25.999606145284442
 21
0.14310936407981123
 31
0.0
  0
LINE
  5
43
330
17
100
AcDbEntity
  8
0
100
AcDbLine
 10
25.999606145284442
 20
0.14310936407981123
 30
0.0
 11
25.9964553791542
 21
0.42931074950990367
 31
0.0
  0
LINE
  5
44
330
17
100
AcDbEntity
  8
0
100
AcDbLine
 10
25.9964553791542
 20
0.42931074950990367
 30
0.0
 11
25.990154228719767
 21
0.7154601088530873
 31
0.0
  0
LINE
  5
45
330
17
100
AcDbEntity
  8
0
100
AcDbLine
 10
25.990154228719767
 20
0.7154601088530873
 30
0.0
 11
25.590678743824466
 21
0.9211874858817394
 31
0.0
  0
LINE
  5
46
330
17
100
AcDbEntity
  8
0
100
AcDbLine
 10
25.590678743824466
 20
0.9211874858817394
 30
0.0
 11
25.210319689509674
 21
1.1001277486054815
 31
0.0
  0
LINE
  5
47
330
17
100
AcDbEntity
  8
0
100
AcDbLine
 10
25.210319689509674
 20
1.1001277486054815
 30
0.0
 11
24.8504503020732
 21
1.253931678545525
 31
0.0
  0
LINE
  5
48
330
17
100
AcDbEntity
  8
0
100
AcDbLine
 10
24.8504503020732
 20
1.253931678545525
 30
0.0
 11
24.512349494598634
 21
1.3843128575728176
 31
0.0
  0
LINE
  5
49
330
17
100
AcDbEntity
  8
0
100
AcDbLine
 10
24.512349494598634
 20
1.3843128575728176
 30
0.0
 11
24.197199163805095
 21
1.4930430087057334
 31
0.0
  0
LINE
  5
4A
330
17
100
AcDbEntity
  8
0
100
AcDbLine
 10
24.197199163805095
 20
1.4930430087057334
 30
0.0
 11
23.906081710332273
 21
1.5819472261417045
 31
0.0
  0
LINE
  5
4B
330
17
100
AcDbEntity
  8
0
100
AcDbLine
 10
23.906081710332273
 20
1.5819472261417045
 30
0.0
 11
23.639977776882844
 21
1.65289910385784
 31
0.0
  0
LINE
  5
4C
330
17
100
AcDbEntity
  8
0
100
AcDbLine
 10
23.639977776882844
 20
1.65289910385784
 30
0.0
 11
23.399764208248403
 21
1.7078157722881464
 31
0.0
  0
LINE
  5
4D
330
17
100
AcDbEntity
  8
0
100
AcDbLine
 10
23.399764208248403
 20
1.7078157722881464
 30
0.0
 11
23.18621223684309
 21
1.748652852741135
 31
0.0
  0
LINE
  5
4E
330
17
100
AcDbEntity
  8
0
100
AcDbLine
 10
23.18621223684309
 20
1.748652852741135
 30
0.0
 11
22.99998589696058
 21
1.777399339361165
 31
0.0
  0
LINE
  5
4F
330
17
100
AcDbEntity
  8
0
100
AcDbLine
 10
22.99998589696058
 20
1.777399339361165
 30
0.0
 11
22.841640670556796
 21
1.7960724185595194
 31
0.0
  0
LINE
  5
50
330
17
100
AcDbEntity
  8
0
100
AcDbLine
 10
22.841640670556796
 20
1.7960724185595194
 30
0.0
 11
22.71162236694253
 21
1.8067122359468202
 31
0.0
  0
LINE
  5
51
330
17
100
AcDbEntity
  8
0
100
AcDbLine
 10
22.71162236694253
 20
1.8067122359468202
 30
0.0
 11
22.610266238348252
 21
1.8113766208867896
 31
0.0
  0
LINE
  5
52
330
17
100
AcDbEntity
  8
0
100
AcDbLine
 10
22.610266238348252
 20
1.8113766208867896
 30
0.0
 11
22.53779633289815
 21
1.8121357788623602
 31
0.0
  0
LINE
  5
53
330
17
100
AcDbEntity
  8
0
100
AcDbLine
 10
22.53779633289815
 20
1.8121357788623602
 30
0.0
 11
22.494325086102855
 21
1.811066961898665
 31
0.0
  0
LINE
  5
54
330
17
100
AcDbEntity
  8
0
100
AcDbLine
 10
22.494325086102855
 20
1.811066961898665
 30
0.0
 11
22.47985315155085
 21
1.8102491273234116
 31
0.0
  0
LINE
  5
55
330
17
100
AcDbEntity
  8
0
100
AcDbLine
 10
22.47985315155085
 20
1.8102491273234116
 30
0.0
 11
21.430626713611016
 21
1.7257574168642533
 31
0.0
  0
LINE
  5
56
330
17
100
AcDbEntity
  8
0
100
AcDbLine
 10
21.430626713611016
 20
1.7257574168642533
 30
0.0
 11
21.398509986128005
 21
2.08656904356889
 31
0.0
  0
LINE
  5
57
330
17
100
AcDbEntity
  8
0
100
AcDbLine
 10
21.398509986128005
 20
2.08656904356889
 30
0.0
 11
21.36031897440839
 21
2.4467883667225716
 31
0.0
  0
LINE
  5
58
330
17
100
AcDbEntity
  8
0
100
AcDbLine
 10
21.36031897440839
 20
2.4467883667225716
 30
0.0
 11
21.316064519536923
 21
2.806313132731109
 31
0.0
  0
LINE
  5
59
330
17
100
AcDbEntity
  8
0
100
AcDbLine
 10
21.316064519536923
 20
2.806313132731109
 30
0.0
 11
21.265759183796582
 21
3.165041285160655
 31
0.0
  0
LINE
  5
5A
330
17
100
AcDbEntity
  8
0
100
AcDbLine
 10
21.265759183796582
 20
3.165041285160655
 30
0.0
 11
21.209417247102554
 21
3.5228709937079334
 31
0.0
  0
LINE
  5
5B
330
17
100
AcDbEntity
  8
0
100
AcDbLine
 10
21.209417247102554
 20
3.5228709937079334
 30
0.0
 11
21.147054702948697
 21
3.8797006831062832
 31
0.0
  0
LINE
  5
5C
330
17
100
AcDbEntity
  8
0
100
AcDbLine
 10
21.147054702948697
 20
3.8797006831062832
 30
0.0
 11
22.182397680800186
 21
4.069647742630351
 31
0.0
  0
LINE
  5
5D
330
17
100
AcDbEntity
  8
0
100
AcDbLine
 10
22.182397680800186
 20
4.069647742630351
 30
0.0
 11
22.196588167304153
 21
4.072603387374018
 31
0.0
  0
LINE
  5
5E
330
17
100
AcDbEntity
  8
0
100
AcDbLine
 10
22.196588167304153
 20
4.072603387374018
 30
0.0
 11
22.238854797470648
 21
4.0828221760501835
 31
0.0
  0
LINE
  5
5F
330
17
100
AcDbEntity
  8
0
100
AcDbLine
 10
22.238854797470648
 20
4.0828221760501835
 30
0.0
 11
22.308658866231312
 21
4.102312058072286
 31
0.0
  0
LINE
  5
60
330
17
100
AcDbEntity
  8
0
100
AcDbLine
 10
22.308658866231312
 20
4.102312058072286
 30
0.0
 11
22.405354136837044
 21
4.133050404367616
 31
0.0
  0
LINE
  5
61
330
17
100
AcDbEntity
  8
0
100
AcDbLine
 10
22.405354136837044
 20
4.133050404367616
 30
0.0
 11
22.52818838681211
 21
4.176978891956302
 31
0.0
  0
LINE
  5
62
330
17
100
AcDbEntity
  8
0
100
AcDbLine
 10
22.52818838681211
 20
4.176978891956302
 30
0.0
 11
22.676305181937874
 21
4.235998461704703
 31
0.0
  0
LINE
  5
63
330
17
100
AcDbEntity
  8
0
100
AcDbLine
 10
22.676305181937874
 20
4.235998461704703
 30
0.0
 11
22.848745874948627
 21
4.311964359007393
 31
0.0
  0
LINE
  5
64
330
17
100
AcDbEntity
  8
0
100
AcDbLine
 10
22.848745874948627
 20
4.311964359007393
 30
0.0
 11
23.04445182521635
 21
4.406681267006063
 31
0.0
  0
LINE
  5
65
330
17
100
AcDbEntity
  8
0
100
AcDbLine
 10
23.04445182521635
 20
4.406681267006063
 30
0.0
 11
23.26226683530207
 21
4.521898541791284
 31
0.0
  0
LINE
  5
66
330
17
100
AcDbEntity
  8
0
100
AcDbLine
 10
23.26226683530207
 20
4.521898541791284
 30
0.0
 11
23.500939799859264
 21
4.65930555885441
 31
0.0
  0
LINE
  5
67
330
17
100
AcDbEntity
  8
0
100
AcDbLine
 10
23.500939799859264
 20
4.65930555885441
 30
0.0
 11
23.7591275619898
 21
4.820527179862346
 31
0.0
  0
LINE
  5
68
330
17
100
AcDbEntity
  8
0
100
AcDbLine
 10
23.7591275619898
 20
4.820527179862346
 30
0.0
 11
24.03539797177675
 21
5.00711934861767
 31
0.0
  0
LINE
  5
69
330
17
100
AcDbEntity
  8
0
100
AcDbLine
 10
24.03539797177675
 20
5.00711934861767
 30
0.0
 11
24.328233141350434
 21
5.220564824841109
 31
0.0
  0
LINE
  5
6A
330
17
100
AcDbEntity
  8
0
100
AcDbLine
 10
24.328233141350434
 20
5.220564824841109
 30
0.0
 11
24.636032890486057
 21
5.462269064172888
 31
0.0
  0
LINE
  5
6B
330
17
100
AcDbEntity
  8
0
100
AcDbLine
 10
24.636032890486057
 20
5.462269064172888
 30
0.0
 11
24.957118376383047
 21
5.733556252534555
 31
0.0
  0
LINE
  5
6C
330
17
100
AcDbEntity
  8
0
100
AcDbLine
 10
24.957118376383047
 20
5.733556252534555
 30
0.0
 11
25.289735900938762
 21
6.035665502723706
 31
0.0
  0
LINE
  5
6D
330
17
100
AcDbEntity
  8
0
100
AcDbLine
 10
25.289735900938762
 20
6.035665502723706
 30
0.0
 11
25.221761440936817
 21
6.313695416827845
 31
0.0
  0
LINE
  5
6E
330
17
100
AcDbEntity
  8
0
100
AcDbLine
 10
25.221761440936817
 20
6.313695416827845
 30
0.0
 11
25.15073047803058
 21
6.590960204815655
 31
0.0
  0
LINE
  5
6F
330
17
100
AcDbEntity
  8
0
100
AcDbLine
 10
25.15073047803058
 20
6.590960204815655
 30
0.0
 11
25.07665162011785
 21
6.867426266312645
 31
0.0
  0
LINE
  5
70
330
17
100
AcDbEntity
  8
0
100
AcDbLine
 10
25.07665162011785
 20
6.867426266312645
 30
0.0
 11
24.999533844456014
 21
7.143060097738112
 31
0.0
  0
LINE
  5
71
330
17
100
AcDbEntity
  8
0
100
AcDbLine
 10
24.999533844456014
 20
7.143060097738112
 30
0.0
 11
24.919386496574162
 21
7.417828296365276
 31
0.0
  0
LINE
  5
72
330
17
100
AcDbEntity
  8
0
100
AcDbLine
 10
24.919386496574162
 20
7.417828296365276
 30
0.0
 11
24.48027664547044
 21
7.513153819469491
 31
0.0
  0
LINE
  5
73
330
17
100
AcDbEntity
  8
0
100
AcDbLine
 10
24.48027664547044
 20
7.513153819469491
 30
0.0
 11
24.06656486371634
 21
7.587552673363452
 31
0.0
  0
LINE
  5
74
330
17
100
AcDbEntity
  8
0
100
AcDbLine
 10
24.06656486371634
 20
7.587552673363452
 30
0.0
 11
23.679150342020527
 21
7.642974810259358
 31
0.0
  0
LINE
  5
75
330
17
100
AcDbEntity
  8
0
100
AcDbLine
 10
23.679150342020527
 20
7.642974810259358
 30
0.0
 11
23.31882490793647
 21
7.68140643020488
 31
0.0
  0
LINE
  5
76
330
17
100
AcDbEntity
  8
0
100
AcDbLine
 10
23.31882490793647
 20
7.68140643020488
 30
0.0
 11
22.986271630369373
 21
7.704864783600749
 31
0.0
  0
LINE
  5
77
330
17
100
AcDbEntity
  8
0
100
AcDbLine
 10
22.986271630369373
 20
7.704864783600749
 30
0.0
 11
22.68206365891411
 21
7.71539292196766
 31
0.0
  0
LINE
  5
78
330
17
100
AcDbEntity
  8
0
100
AcDbLine
 10
22.68206365891411
 20
7.71539292196766
 30
0.0
 11
22.406663299879476
 21
7.715054407123972
 31
0.0
  0
LINE
  5
79
330
17
100
AcDbEntity
  8
0
100
AcDbLine
 10
22.406663299879476
 20
7.715054407123972
 30
0.0
 11
22.160421330427063
 21
7.705927988999925
 31
0.0
  0
LINE
  5
7A
330
17
100
AcDbEntity
  8
0
100
AcDbLine
 10
22.160421330427063
 20
7.705927988999925
 30
0.0
 11
21.94357655182411
 21
7.690102262360827
 31
0.0
  0
LINE
  5
7B
330
17
100
AcDbEntity
  8
0
100
AcDbLine
 10
21.94357655182411
 20
7.690102262360827
 30
0.0
 11
21.756255582379257
 21
7.669670312740858
 31
0.0
  0
LINE
  5
7C
330
17
100
AcDbEntity
  8
0
100
AcDbLine
 10
21.756255582379257
 20
7.669670312740858
 30
0.0
 11
21.598472890199012
 21
7.64672436190052
 31
0.0
  0
LINE
  5
7D
330
17
100
AcDbEntity
  8
0
100
AcDbLine
 10
21.598472890199012
 20
7.64672436190052
 30
0.0
 11
21.470131065471456
 21
7.62335042311462
 31
0.0
  0
LINE
  5
7E
330
17
100
AcDbEntity
  8
0
100
AcDbLine
 10
21.470131065471456
 20
7.62335042311462
 30
0.0
 11
21.37102133155341
 21
7.601622976573831
 31
0.0
  0
LINE
  5
7F
330
17
100
AcDbEntity
  8
0
100
AcDbLine
 10
21.37102133155341
 20
7.601622976573831
 30
0.0
 11
21.30082429370811
 21
7.583599675141402
 31
0.0
  0
LINE
  5
80
330
17
100
AcDbEntity
  8
0
100
AcDbLine
 10
21.30082429370811
 20
7.583599675141402
 30
0.0
 11
21.259110923913482
 21
7.571316090647619
 31
0.0
  0
LINE
  5
81
330
17
100
AcDbEntity
  8
0
100
AcDbLine
 10
21.259110923913482
 20
7.571316090647619
 30
0.0
 11
21.24534377973715
 21
7.566780510828213
 31
0.0
  0
LINE
  5
82
330
17
100
AcDbEntity
  8
0
100
AcDbLine
 10
21.24534377973715
 20
7.566780510828213
 30
0.0
 11
20.2537369295259
 21
7.2136080008244665
 31
0.0
  0
LINE
  5
83
330
17
100
AcDbEntity
  8
0
100
AcDbLine
 10
20.2537369295259
 20
7.2136080008244665
 30
0.0
 11
20.129329632308593
 21
7.553812848744875
 31
0.0
  0
LINE
  5
84
330
17
100
AcDbEntity
  8
0
100
AcDbLine
 10
20.129329632308593
 20
7.553812848744875
 30
0.0
 11
19.999208326510395
 21
7.891873434922615
 31
0.0
  0
LINE
  5
85
330
17
100
AcDbEntity
  8
0
100
AcDbLine
 10
19.999208326510395
 20
7.891873434922615
 30
0.0
 11
19.863409948992665
 21
8.227693795849431
 31
0.0
  0
LINE
  5
86
330
17
100
AcDbEntity
  8
0
100
AcDbLine
 10
19.863409948992665
 20
8.227693795849431
 30
0.0
 11
19.72197304813772
 21
8.561178603938211
 31
0.0
  0
LINE
  5
87
330
17
100
AcDbEntity
  8
0
100
AcDbLine
 10
19.72197304813772
 20
8.561178603938211
 30
0.0
 11
19.574937772906296
 21
8.892233194583143
 31
0.0
  0
LINE
  5
88
330
17
100
AcDbEntity
  8
0
100
AcDbLine
 10
19.574937772906296
 20
8.892233194583143
 30
0.0
 11
19.422345861440682
 21
9.220763593031652
 31
0.0
  0
LINE
  5
89
330
17
100
AcDbEntity
  8
0
100
AcDbLine
 10
19.422345861440682
 20
9.220763593031652
 30
0.0
 11
20.373248466248416
 21
9.672204844334738
 31
0.0
  0
LINE
  5
8A
330
17
100
AcDbEntity
  8
0
100
AcDbLine
 10
20.373248466248416
 20
9.672204844334738
 30
0.0
 11
20.386190446499985
 21
9.678732546092478
 31
0.0
  0
LINE
  5
8B
330
17
100
AcDbEntity
  8
0
100
AcDbLine
 10
20.386190446499985
 20
9.678732546092478
 30
0.0
 11
20.424372059040742
 21
9.69954254684757
 31
0.0
  0
LINE
  5
8C
330
17
100
AcDbEntity
  8
0
100
AcDbLine
 10
20.424372059040742
 20
9.69954254684757
 30
0.0
 11
20.486753259182603
 21
9.736434949664952
 31
0.0
  0
LINE
  5
8D
330
17
100
AcDbEntity
  8
0
100
AcDbLine
 10
20.486753259182603
 20
9.736434949664952
 30
0.0
 11
20.572198048904507
 21
9.791152489813133
 31
0.0
  0
LINE
  5
8E
330
17
100
AcDbEntity
  8
0
100
AcDbLine
 10
20.572198048904507
 20
9.791152489813133
 30
0.0
 11
20.679477294097765
 21
9.865375993769296
 31
0.0
  0
LINE
  5
8F
330
17
100
AcDbEntity
  8
0
100
AcDbLine
 10
20.679477294097765
 20
9.865375993769296
 30
0.0
 11
20.80727174313226
 21
9.960719967923842
 31
0.0
  0
LINE
  5
90
330
17
100
AcDbEntity
  8
0
100
AcDbLine
 10
20.80727174313226
 20
9.960719967923842
 30
0.0
 11
20.954175241014298
 21
10.078728325547592
 31
0.0
  0
LINE
  5
91
330
17
100
AcDbEntity
  8
0
100
AcDbLine
 10
20.954175241014298
 20
10.078728325547592
 30
0.0
 11
21.118698133053055
 21
10.220870260338927
 31
0.0
  0
LINE
  5
92
330
17
100
AcDbEntity
  8
0
100
AcDbLine
 10
21.118698133053055
 20
10.220870260338927
 30
0.0
 11
21.29927085160904
 21
10.388536274607997
 31
0.0
  0
LINE
  5
93
330
17
100
AcDbEntity
  8
0
100
AcDbLine
 10
21.29927085160904
 20
10.388536274607997
 30
0.0
 11
21.494247679165145
 21
10.583034369881094
 31
0.0
  0
LINE
  5
94
330
17
100
AcDbEntity
  8
0
100
AcDbLine
 10
21.494247679165145
 20
10.583034369881094
 30
0.0
 11
21.701910680639653
 21
10.80558640742063
 31
0.0
  0
LINE
  5
95
330
17
100
AcDbEntity
  8
0
100
AcDbLine
 10
21.701910680639653
 20
10.80558640742063
 30
0.0
 11
21.920473797551473
 21
11.057324645855827
 31
0.0
  0
LINE
  5
96
330
17
100
AcDbEntity
  8
0
100
AcDbLine
 10
21.920473797551473
 20
11.057324645855827
 30
0.0
 11
22.14808709635083
 21
11.339288462806111
 31
0.0
  0
LINE
  5
97
330
17
100
AcDbEntity
  8
0
100
AcDbLine
 10
22.14808709635083
 20
11.339288462806111
 30
0.0
 11
22.38284116294514
 21
11.652421267054308
 31
0.0
  0
LINE
  5
98
330
17
100
AcDbEntity
  8
0
100
AcDbLine
 10
22.38284116294514
 20
11.652421267054308
 30
0.0
 11
22.622771635179305
 21
11.997567607490327
 31
0.0
  0
LINE
  5
99
330
17
100
AcDbEntity
  8
0
100
AcDbLine
 10
22.622771635179305
 20
11.997567607490327
 30
0.0
 11
22.865863864773413
 21
12.375470484698727
 31
0.0
  0
LINE
  5
9A
330
17
100
AcDbEntity
  8
0
100
AcDbLine
 10
22.865863864773413
 20
12.375470484698727
 30
0.0
 11
22.72824614145111
 21
12.626433674383783
 31
0.0
  0
LINE
  5
9B
330
17
100
AcDbEntity
  8
0
100
AcDbLine
 10
22.72824614145111
 20
12.626433674383783
 30
0.0
 11
22.58787409224624
 21
12.875866727829667
 31
0.0
  0
LINE
  5
9C
330
17
100
AcDbEntity
  8
0
100
AcDbLine
 10
22.58787409224624
 20
12.875866727829667
 30
0.0
 11
22.44476472816643
 21
13.123739417454775
 31
0.0
  0
LINE
  5
9D
330
17
100
AcDbEntity
  8
0
100
AcDbLine
 10
22.44476472816643
 20
13.123739417454775
 30
0.0
 11
22.298935391941207
 21
13.37002170477041
 31
0.0
  0
LINE
  5
9E
330
17
100
AcDbEntity
  8
0
100
AcDbLine
 10
22.298935391941207
 20
13.37002170477041
 30
0.0
 11
22.15040375592033
 21
13.614683744021036
 31
0.0
  0
LINE
  5
9F
330
17
100
AcDbEntity
  8
0
100
AcDbLine
 10
22.15040375592033
 20
13.614683744021036
 30
0.0
 11
21.701584149297563
 21
13.593111136334137
 31
0.0
  0
LINE
  5
A0
330
17
100
AcDbEntity
  8
0
100
AcDbLine
 10
21.701584149297563
 20
13.593111136334137
 30
0.0
 11
21.282713414339657
 21
13.557898422455363
 31
0.0
  0
LINE
  5
A1
330
17
100
AcDbEntity
  8
0
100
AcDbLine
 10
21.282713414339657
 20
13.557898422455363
 30
0.0
 11
20.894155417805305
 21
13.511161839267086
 31
0.0
  0
LINE
  5
A2
330
17
100
AcDbEntity
  8
0
100
AcDbLine
 10
20.894155417805305
 20
13.511161839267086
 30
0.0
 11
20.536160939978654
 21
13.455024848742806
 31
0.0
  0
LINE
  5
A3
330
17
100
AcDbEntity
  8
0
100
AcDbLine
 10
20.536160939978654
 20
13.455024848742806
 30
0.0
 11
20.20886767193392
 21
13.391612756384461
 31
0.0
  0
LINE
  5
A4
330
17
100
AcDbEntity
  8
0
100
AcDbLine
 10
20.20886767193392
 20
13.391612756384461
 30
0.0
 11
19.912300453023438
 21
13.323047340451179
 31
0.0
  0
LINE
  5
A5
330
17
100
AcDbEntity
  8
0
100
AcDbLine
 10
19.912300453023438
 20
13.323047340451179
 30
0.0
 11
19.646371747751203
 21
13.251441502274842
 31
0.0
  0
LINE
  5
A6
330
17
100
AcDbEntity
  8
0
100
AcDbLine
 10
19.646371747751203
 20
13.251441502274842
 30
0.0
 11
19.41088236076491
 21
13.178893947909474
 31
0.0
  0
LINE
  5
A7
330
17
100
AcDbEntity
  8
0
100
AcDbLine
 10
19.41088236076491
 20
13.178893947909474
 30
0.0
 11
19.205522388273163
 21
13.107483911295494
 31
0.0
  0
LINE
  5
A8
330
17
100
AcDbEntity
  8
0
100
AcDbLine
 10
19.205522388273163
 20
13.107483911295494
 30
0.0
 11
19.029872403771098
 21
13.039265929036738
 31
0.0
  0
LINE
  5
A9
330
17
100
AcDbEntity
  8
0
100
AcDbLine
 10
19.029872403771098
 20
13.039265929036738
 30
0.0
 11
18.883404875538247
 21
12.976264676787498
 31
0.0
  0
LINE
  5
AA
330
17
100
AcDbEntity
  8
0
100
AcDbLine
 10
18.883404875538247
 20
12.976264676787498
 30
0.0
 11
18.765485812957685
 21
12.920469877129396
 31
0.0
  0
LINE
  5
AB
330
17
100
AcDbEntity
  8
0
100
AcDbLine
 10
18.765485812957685
 20
12.920469877129396
 30
0.0
 11
18.675376638295813
 21
12.873831288683297
 31
0.0
  0
LINE
  5
AC
330
17
100
AcDbEntity
  8
0
100
AcDbLine
 10
18.675376638295813
 20
12.873831288683297
 30
0.0
 11
18.61223628017838
 21
12.838253786050577
 31
0.0
  0
LINE
  5
AD
330
17
100
AcDbEntity
  8
0
100
AcDbLine
 10
18.61223628017838
 20
12.838253786050577
 30
0.0
 11
18.57512348460132
 21
12.815592540010373
 31
0.0
  0
LINE
  5
AE
330
17
100
AcDbEntity
  8
0
100
AcDbLine
 10
18.57512348460132
 20
12.815592540010373
 30
0.0
 11
18.562999338925003
 21
12.807648307216107
 31
0.0
  0
LINE
  5
AF
330
17
100
AcDbEntity
  8
0
100
AcDbLine
 10
18.562999338925003
 20
12.807648307216107
 30
0.0
 11
17.69658844457643
 21
12.20986312057936
 31
0.0
  0
LINE
  5
B0
330
17
100
AcDbEntity
  8
0
100
AcDbLine
 10
17.69658844457643
 20
12.20986312057936
 30
0.0
 11
17.488368729337406
 21
12.506276791544861
 31
0.0
  0
LINE
  5
B1
330
17
100
AcDbEntity
  8
0
100
AcDbLine
 10
17.488368729337406
 20
12.506276791544861
 30
0.0
 11
17.275184681415148
 21
12.799140370470177
 31
0.0
  0
LINE
  5
B2
330
17
100
AcDbEntity
  8
0
100
AcDbLine
 10
17.275184681415148
 20
12.799140370470177
 30
0.0
 11
17.05709681626156
 21
13.088370723687492
 31
0.0
  0
LINE
  5
B3
330
17
100
AcDbEntity
  8
0
100
AcDbLine
 10
17.05709681626156
 20
13.088370723687492
 30
0.0
 11
16.83416704134974
 21
13.373885748873965
 31
0.0
  0
LINE
  5
B4
330
17
100
AcDbEntity
  8
0
100
AcDbLine
 10
16.83416704134974
 20
13.373885748873965
 30
0.0
 11
16.60645863860066
 21
13.655604398357678
 31
0.0
  0
LINE
  5
B5
330
17
100
AcDbEntity
  8
0
100
AcDbLine
 10
16.60645863860066
 20
13.655604398357678
 30
0.0
 11
16.374036246419617
 21
13.93344670212423
 31
0.0
  0
LINE
  5
B6
330
17
100
AcDbEntity
  8
0
100
AcDbLine
 10
16.374036246419617
 20
13.93344670212423
 30
0.0
 11
17.1756960371068
 21
14.615617169971971
 31
0.0
  0
LINE
  5
B7
330
17
100
AcDbEntity
  8
0
100
AcDbLine
 10
17.1756960371068
 20
14.615617169971971
 30
0.0
 11
17.186507536539462
 21
14.625272076656533
 31
0.0
  0
LINE
  5
B8
330
17
100
AcDbEntity
  8
0
100
AcDbLine
 10
17.186507536539462
 20
14.625272076656533
 30
0.0
 11
17.218002117657928
 21
14.655255122329244
 31
0.0
  0
LINE
  5
B9
330
17
100
AcDbEntity
  8
0
100
AcDbLine
 10
17.218002117657928
 20
14.655255122329244
 30
0.0
 11
17.268709273481125
 21
14.70703588965748
 31
0.0
  0
LINE
  5
BA
330
17
100
AcDbEntity
  8
0
100
AcDbLine
 10
17.268709273481125
 20
14.70703588965748
 30
0.0
 11
17.33708066110384
 21
14.782003713722425
 31
0.0
  0
LINE
  5
BB
330
17
100
AcDbEntity
  8
0
100
AcDbLine
 10
17.33708066110384
 20
14.782003713722425
 30
0.0
 11
17.421493998242706
 21
14.88146402491159
 31
0.0
  0
LINE
  5
BC
330
17
100
AcDbEntity
  8
0
100
AcDbLine
 10
17.421493998242706
 20
14.88146402491159
 30
0.0
 11
17.520257120674554
 21
15.006634869197015
 31
0.0
  0
LINE
  5
BD
330
17
100
AcDbEntity
  8
0
100
AcDbLine
 10
17.520257120674554
 20
15.006634869197015
 30
0.0
 11
17.631612192816718
 21
15.158643612587797
 31
0.0
  0
LINE
  5
BE
330
17
100
AcDbEntity
  8
0
100
AcDbLine
 10
17.631612192816718
 20
15.158643612587797
 30
0.0
 11
17.753740063421002
 21
15.338523836216421
 31
0.0
  0
LINE
  5
BF
330
17
100
AcDbEntity
  8
0
100
AcDbLine
 10
17.753740063421002
 20
15.338523836216421
 30
0.0
 11
17.88476475808819
 21
15.547212428178096
 31
0.0
  0
LINE
  5
C0
330
17
100
AcDbEntity
  8
0
100
AcDbLine
 10
17.88476475808819
 20
15.547212428178096
 30
0.0
 11
18.022758100059697
 21
15.785546877891603
 31
0.0
  0
LINE
  5
C1
330
17
100
AcDbEntity
  8
0
100
AcDbLine
 10
18.022758100059697
 20
15.785546877891603
 30
0.0
 11
18.165744450507027
 21
16.05426277838905
 31
0.0
  0
LINE
  5
C2
330
17
100
AcDbEntity
  8
0
100
AcDbLine
 10
18.165744450507027
 20
16.05426277838905
 30
0.0
 11
18.311705559318803
 21
16.353991541571865
 31
0.0
  0
LINE
  5
C3
330
17
100
AcDbEntity
  8
0
100
AcDbLine
 10
18.311705559318803
 20
16.353991541571865
 30
0.0
 11
18.45858551717942
 21
16.685258331091077
 31
0.0
  0
LINE
  5
C4
330
17
100
AcDbEntity
  8
0
100
AcDbLine
 10
18.45858551717942
 20
16.685258331091077
 30
0.0
 11
18.60429579954345
 21
17.048480217122602
 31
0.0
  0
LINE
  5
C5
330
17
100
AcDbEntity
  8
0
100
AcDbLine
 10
18.60429579954345
 20
17.048480217122602
 30
0.0
 11
18.746720392935885
 21
17.443964556913553
 31
0.0
  0
LINE
  5
C6
330
17
100
AcDbEntity
  8
0
100
AcDbLine
 10
18.746720392935885
 20
17.443964556913553
 30
0.0
 11
18.883720993850453
 21
17.871907604573487
 31
0.0
  0
LINE
  5
C7
330
17
100
AcDbEntity
  8
0
100
AcDbLine
 10
18.883720993850453
 20
17.871907604573487
 30
0.0
 11
18.685838427628166
 21
18.078701343198702
 31
0.0
  0
LINE
  5
C8
330
17
100
AcDbEntity
  8
0
100
AcDbLine
 10
18.685838427628166
 20
18.078701343198702
 30
0.0
 11
18.485691415302195
 21
18.283304211717933
 31
0.0
  0
LINE
  5
C9
330
17
100
AcDbEntity
  8
0
100
AcDbLine
 10
18.485691415302195
 20
18.283304211717933
 30
0.0
 11
18.283304211717937
 21
18.485691415302195
 31
0.0
  0
LINE
  5
CA
330
17
100
AcDbEntity
  8
0
100
AcDbLine
 10
18.283304211717937
 20
18.485691415302195
 30
0.0
 11
18.078701343198702
 21
18.685838427628166
 31
0.0
  0
LINE
  5
CB
330
17
100
AcDbEntity
  8
0
100
AcDbLine
 10
18.078701343198702
 20
18.685838427628166
 30
0.0
 11
17.871907604573487
 21
18.883720993850453
 31
0.0
  0
LINE
  5
CC
330
17
100
AcDbEntity
  8
0
100
AcDbLine
 10
17.871907604573487
 20
18.883720993850453
 30
0.0
 11
17.443964556913553
 21
18.74672039293588
 31
0.0
  0
LINE
  5
CD
330
17
100
AcDbEntity
  8
0
100
AcDbLine
 10
17.443964556913553
 20
18.74672039293588
 30
0.0
 11
17.048480217122602
 21
18.60429579954345
 31
0.0
  0
LINE
  5
CE
330
17
100
AcDbEntity
  8
0
100
AcDbLine
 10
17.048480217122602
 20
18.60429579954345
 30
0.0
 11
16.685258331091077
 21
18.458585517179415
 31
0.0
  0
LINE
  5
CF
330
17
100
AcDbEntity
  8
0
100
AcDbLine
 10
16.685258331091077
 20
18.458585517179415
 30
0.0
 11
16.35399154157187
 21
18.3117055593188
 31
0.0
  0
LINE
  5
D0
330
17
100
AcDbEntity
  8
0
100
AcDbLine
 10
16.35399154157187
 20
18.3117055593188
 30
0.0
 11
16.05426277838905
 21
18.165744450507027
 31
0.0
  0
LINE
  5
D1
330
17
100
AcDbEntity
  8
0
100
AcDbLine
 10
16.05426277838905
 20
18.165744450507027
 30
0.0
 11
15.785546877891603
 21
18.022758100059697
 31
0.0
  0
LINE
  5
D2
330
17
100
AcDbEntity
  8
0
100
AcDbLine
 10
15.785546877891603
 20
18.022758100059697
 30
0.0
 11
15.547212428178096
 21
17.88476475808819
 31
0.0
  0
LINE
  5
D3
330
17
100
AcDbEntity
  8
0
100
AcDbLine
 10
15.547212428178096
 20
17.88476475808819
 30
0.0
 11
15.338523836216421
 21
17.753740063421002
 31
0.0
  0
LINE
  5
D4
330
17
100
AcDbEntity
  8
0
100
AcDbLine
 10
15.338523836216421
 20
17.753740063421002
 30
0.0
 11
15.1586436125878
 21
17.631612192816718
 31
0.0
  0
LINE
  5
D5
330
17
100
AcDbEntity
  8
0
100
AcDbLine
 10
15.1586436125878
 20
17.631612192816718
 30
0.0
 11
15.006634869197015
 21
17.520257120674554
 31
0.0
  0
LINE
  5
D6
330
17
100
AcDbEntity
  8
0
100
AcDbLine
 10
15.006634869197015
 20
17.520257120674554
 30
0.0
 11
14.88146402491159
 21
17.421493998242706
 31
0.0
  0
LINE
  5
D7
330
17
100
AcDbEntity
  8
0
100
AcDbLine
 10
14.88146402491159
 20
17.421493998242706
 30
0.0
 11
14.782003713722425
 21
17.337080661103837
 31
0.0
  0
LINE
  5
D8
330
17
100
AcDbEntity
  8
0
100
AcDbLine
 10
14.782003713722425
 20
17.337080661103837
 30
0.0
 11
14.707035889657481
 21
17.26870927348112
 31
0.0
  0
LINE
  5
D9
330
17
100
AcDbEntity
  8
0
100
AcDbLine
 10
14.707035889657481
 20
17.26870927348112
 30
0.0
 11
14.655255122329244
 21
17.218002117657925
 31
0.0
  0
LINE
  5
DA
330
17
100
AcDbEntity
  8
0
100
AcDbLine
 10
14.655255122329244
 20
17.218002117657925
 30
0.0
 11
14.625272076656533
 21
17.186507536539462
 31
0.0
  0
LINE
  5
DB
330
17
100
AcDbEntity
  8
0
100
AcDbLine
 10
14.625272076656533
 20
17.186507536539462
 30
0.0
 11
14.615617169971971
 21
17.1756960371068
 31
0.0
  0
LINE
  5
DC
330
17
100
AcDbEntity
  8
0
100
AcDbLine
 10
14.615617169971971
 20
17.1756960371068
 30
0.0
 11
13.93344670212423
 21
16.374036246419617
 31
0.0
  0
LINE
  5
DD
330
17
100
AcDbEntity
  8
0
100
AcDbLine
 10
13.93344670212423
 20
16.374036246419617
 30
0.0
 11
13.655604398357678
 21
16.606458638600657
 31
0.0
  0
LINE
  5
DE
330
17
100
AcDbEntity
  8
0
100
AcDbLine
 10
13.655604398357678
 20
16.606458638600657
 30
0.0
 11
13.373885748873965
 21
16.83416704134974
 31
0.0
  0
LINE
  5
DF
330
17
100
AcDbEntity
  8
0
100
AcDbLine
 10
13.373885748873965
 20
16.83416704134974
 30
0.0
 11
13.088370723687493
 21
17.057096816261556
 31
0.0
  0
LINE
  5
E0
330
17
100
AcDbEntity
  8
0
100
AcDbLine
 10
13.088370723687493
 20
17.057096816261556
 30
0.0
 11
12.799140370470178
 21
17.275184681415144
 31
0.0
  0
LINE
  5
E1
330
17
100
AcDbEntity
  8
0
100
AcDbLine
 10
12.799140370470178
 20
17.275184681415144
 30
0.0
 11
12.506276791544863
 21
17.488368729337402
 31
0.0
  0
LINE
  5
E2
330
17
100
AcDbEntity
  8
0
100
AcDbLine
 10
12.506276791544863
 20
17.488368729337402
 30
0.0
 11
12.209863120579366
 21
17.696588444576427
 31
0.0
  0
LINE
  5
E3
330
17
100
AcDbEntity
  8
0
100
AcDbLine
 10
12.209863120579366
 20
17.696588444576427
 30
0.0
 11
12.807648307216112
 21
18.562999338925
 31
0.0
  0
LINE
  5
E4
330
17
100
AcDbEntity
  8
0
100
AcDbLine
 10
12.807648307216112
 20
18.562999338925
 30
0.0
 11
12.815592540010377
 21
18.575123484601317
 31
0.0
  0
LINE
  5
E5
330
17
100
AcDbEntity
  8
0
100
AcDbLine
 10
12.815592540010377
 20
18.575123484601317
 30
0.0
 11
12.838253786050581
 21
18.61223628017838
 31
0.0
  0
LINE
  5
E6
330
17
100
AcDbEntity
  8
0
100
AcDbLine
 10
12.838253786050581
 20
18.61223628017838
 30
0.0
 11
12.873831288683302
 21
18.675376638295813
 31
0.0
  0
LINE
  5
E7
330
17
100
AcDbEntity
  8
0
100
AcDbLine
 10
12.873831288683302
 20
18.675376638295813
 30
0.0
 11
12.920469877129399
 21
18.76548581295768
 31
0.0
  0
LINE
  5
E8
330
17
100
AcDbEntity
  8
0
100
AcDbLine
 10
12.920469877129399
 20
18.76548581295768
 30
0.0
 11
12.976264676787501
 21
18.883404875538243
 31
0.0
  0
LINE
  5
E9
330
17
100
AcDbEntity
  8
0
100
AcDbLine
 10
12.976264676787501
 20
18.883404875538243
 30
0.0
 11
13.039265929036738
 21
19.029872403771098
 31
0.0
  0
LINE
  5
EA
330
17
100
AcDbEntity
  8
0
100
AcDbLine
 10
13.039265929036738
 20
19.029872403771098
 30
0.0
 11
13.1074839112955
 21
19.20552238827316
 31
0.0
  0
LINE
  5
EB
330
17
100
AcDbEntity
  8
0
100
AcDbLine
 10
13.1074839112955
 20
19.20552238827316
 30
0.0
 11
13.17889394790948
 21
19.410882360764905
 31
0.0
  0
LINE
  5
EC
330
17
100
AcDbEntity
  8
0
100
AcDbLine
 10
13.17889394790948
 20
19.410882360764905
 30
0.0
 11
13.251441502274847
 21
19.6463717477512
 31
0.0
  0
LINE
  5
ED
330
17
100
AcDbEntity
  8
0
100
AcDbLine
 10
13.251441502274847
 20
19.6463717477512
 30
0.0
 11
13.32304734045118
 21
19.912300453023438
 31
0.0
  0
LINE
  5
EE
330
17
100
AcDbEntity
  8
0
100
AcDbLine
 10
13.32304734045118
 20
19.912300453023438
 30
0.0
 11
13.391612756384465
 21
20.20886767193392
 31
0.0
  0
LINE
  5
EF
330
17
100
AcDbEntity
  8
0
100
AcDbLine
 10
13.391612756384465
 20
20.20886767193392
 30
0.0
 11
13.455024848742807
 21
20.53616093997865
 31
0.0
  0
LINE
  5
F0
330
17
100
AcDbEntity
  8
0
100
AcDbLine
 10
13.455024848742807
 20
20.53616093997865
 30
0.0
 11
13.51116183926709
 21
20.894155417805305
 31
0.0
  0
LINE
  5
F1
330
17
100
AcDbEntity
  8
0
100
AcDbLine
 10
13.51116183926709
 20
20.894155417805305
 30
0.0
 11
13.557898422455365
 21
21.282713414339657
 31
0.0
  0
LINE
  5
F2
330
17
100
AcDbEntity
  8
0
100
AcDbLine
 10
13.557898422455365
 20
21.282713414339657
 30
0.0
 11
13.593111136334139
 21
21.701584149297563
 31
0.0
  0
LINE
  5
F3
330
17
100
AcDbEntity
  8
0
100
AcDbLine
 10
13.593111136334139
 20
21.701584149297563
 30
0.0
 11
13.614683744021042
 21
22.150403755920323
 31
0.0
  0
LINE
  5
F4
330
17
100
AcDbEntity
  8
0
100
AcDbLine
 10
13.614683744021042
 20
22.150403755920323
 30
0.0
 11
13.370021704770418
 21
22.298935391941203
 31
0.0
  0
LINE
  5
F5
330
17
100
AcDbEntity
  8
0
100
AcDbLine
 10
13.370021704770418
 20
22.298935391941203
 30
0.0
 11
13.123739417454775
 21
22.44476472816643
 31
0.0
  0
LINE
  5
F6
330
17
100
AcDbEntity
  8
0
100
AcDbLine
 10
13.123739417454775
 20
22.44476472816643
 30
0.0
 11
12.875866727829674
 21
22.58787409224624
 31
0.0
  0
LINE
  5
F7
330
17
100
AcDbEntity
  8
0
100
AcDbLine
 10
12.875866727829674
 20
22.58787409224624
 30
0.0
 11
12.626433674383788
 21
22.728246141451105
 31
0.0
  0
LINE
  5
F8
330
17
100
AcDbEntity
  8
0
100
AcDbLine
 10
12.626433674383788
 20
22.728246141451105
 30
0.0
 11
12.37547048469873
 21
22.865863864773413
 31
0.0
  0
LINE
  5
F9
330
17
100
AcDbEntity
  8
0
100
AcDbLine
 10
12.37547048469873
 20
22.865863864773413
 30
0.0
 11
11.99756760749033
 21
22.6227716351793
 31
0.0
  0
LINE
  5
FA
330
17
100
AcDbEntity
  8
0
100
AcDbLine
 10
11.99756760749033
 20
22.6227716351793
 30
0.0
 11
11.652421267054308
 21
22.38284116294514
 31
0.0
  0
LINE
  5
FB
330
17
100
AcDbEntity
  8
0
100
AcDbLine
 10
11.652421267054308
 20
22.38284116294514
 30
0.0
 11
11.339288462806111
 21
22.14808709635083
 31
0.0
  0
LINE
  5
FC
330
17
100
AcDbEntity
  8
0
100
AcDbLine
 10
11.339288462806111
 20
22.14808709635083
 30
0.0
 11
11.057324645855829
 21
21.920473797551473
 31
0.0
  0
LINE
  5
FD
330
17
100
AcDbEntity
  8
0
100
AcDbLine
 10
11.057324645855829
 20
21.920473797551473
 30
0.0
 11
10.80558640742063
 21
21.701910680639653
 31
0.0
  0
LINE
  5
FE
330
17
100
AcDbEntity
  8
0
100
AcDbLine
 10
10.80558640742063
 20
21.701910680639653
 30
0.0
 11
10.583034369881094
 21
21.494247679165145
 31
0.0
  0
LINE
  5
FF
330
17
100
AcDbEntity
  8
0
100
AcDbLine
 10
10.583034369881094
 20
21.494247679165145
 30
0.0
 11
10.388536274607999
 21
21.29927085160904
 31
0.0
  0
LINE
  5
100
330
17
100
AcDbEntity
  8
0
100
AcDbLine
 10
10.388536274607999
 20
21.29927085160904
 30
0.0
 11
10.220870260338929
 21
21.11869813305305
 31
0.0
  0
LINE
  5
101
330
17
100
AcDbEntity
  8
0
100
AcDbLine
 10
10.220870260338929
 20
21.11869813305305
 30
0.0
 11
10.078728325547596
 21
20.954175241014294
 31
0.0
  0
LINE
  5
102
330
17
100
AcDbEntity
  8
0
100
AcDbLine
 10
10.078728325547596
 20
20.954175241014294
 30
0.0
 11
9.960719967923842
 21
20.80727174313226
 31
0.0
  0
LINE
  5
103
330
17
100
AcDbEntity
  8
0
100
AcDbLine
 10
9.960719967923842
 20
20.80727174313226
 30
0.0
 11
9.865375993769298
 21
20.67947729409776
 31
0.0
  0
LINE
  5
104
330
17
100
AcDbEntity
  8
0
100
AcDbLine
 10
9.865375993769298
 20
20.67947729409776
 30
0.0
 11
9.791152489813134
 21
20.572198048904504
 31
0.0
  0
LINE
  5
105
330
17
100
AcDbEntity
  8
0
100
AcDbLine
 10
9.791152489813134
 20
20.572198048904504
 30
0.0
 11
9.736434949664954
 21
20.486753259182603
 31
0.0
  0
LINE
  5
106
330
17
100
AcDbEntity
  8
0
100
AcDbLine
 10
9.736434949664954
 20
20.486753259182603
 30
0.0
 11
9.699542546847571
 21
20.42437205904074
 31
0.0
  0
LINE
  5
107
330
17
100
AcDbEntity
  8
0
100
AcDbLine
 10
9.699542546847571
 20
20.42437205904074
 30
0.0
 11
9.678732546092482
 21
20.386190446499985
 31
0.0
  0
LINE
  5
108
330
17
100
AcDbEntity
  8
0
100
AcDbLine
 10
9.678732546092482
 20
20.386190446499985
 30
0.0
 11
9.67220484433474
 21
20.373248466248416
 31
0.0
  0
LINE
  5
109
330
17
100
AcDbEntity
  8
0
100
AcDbLine
 10
9.67220484433474
 20
20.373248466248416
 30
0.0
 11
9.220763593031654
 21
19.422345861440682
 31
0.0
  0
LINE
  5
10A
330
17
100
AcDbEntity
  8
0
100
AcDbLine
 10
9.220763593031654
 20
19.422345861440682
 30
0.0
 11
8.892233194583149
 21
19.574937772906292
 31
0.0
  0
LINE
  5
10B
330
17
100
AcDbEntity
  8
0
100
AcDbLine
 10
8.892233194583149
 20
19.574937772906292
 30
0.0
 11
8.561178603938215
 21
19.721973048137716
 31
0.0
  0
LINE
  5
10C
330
17
100
AcDbEntity
  8
0
100
AcDbLine
 10
8.561178603938215
 20
19.721973048137716
 30
0.0
 11
8.227693795849431
 21
19.863409948992665
 31
0.0
  0
LINE
  5
10D
330
17
100
AcDbEntity
  8
0
100
AcDbLine
 10
8.227693795849431
 20
19.863409948992665
 30
0.0
 11
7.891873434922619
 21
19.999208326510395
 31
0.0
  0
LINE
  5
10E
330
17
100
AcDbEntity
  8
0
100
AcDbLine
 10
7.891873434922619
 20
19.999208326510395
 30
0.0
 11
7.553812848744884
 21
20.129329632308593
 31
0.0
  0
LINE
  5
10F
330
17
100
AcDbEntity
  8
0
100
AcDbLine
 10
7.553812848744884
 20
20.129329632308593
 30
0.0
 11
7.213608000824473
 21
20.2537369295259
 31
0.0
  0
LINE
  5
110
330
17
100
AcDbEntity
  8
0
100
AcDbLine
 10
7.213608000824473
 20
20.2537369295259
 30
0.0
 11
7.566780510828219
 21
21.245343779737148
 31
0.0
  0
LINE
  5
111
330
17
100
AcDbEntity
  8
0
100
AcDbLine
 10
7.566780510828219
 20
21.245343779737148
 30
0.0
 11
7.571316090647623
 21
21.25911092391348
 31
0.0
  0
LINE
  5
112
330
17
100
AcDbEntity
  8
0
100
AcDbLine
 10
7.571316090647623
 20
21.25911092391348
 30
0.0
 11
7.583599675141409
 21
21.300824293708107
 31
0.0
  0
LINE
  5
113
330
17
100
AcDbEntity
  8
0
100
AcDbLine
 10
7.583599675141409
 20
21.300824293708107
 30
0.0
 11
7.601622976573837
 21
21.37102133155341
 31
0.0
  0
LINE
  5
114
330
17
100
AcDbEntity
  8
0
100
AcDbLine
 10
7.601622976573837
 20
21.37102133155341
 30
0.0
 11
7.623350423114628
 21
21.470131065471453
 31
0.0
  0
LINE
  5
115
330
17
100
AcDbEntity
  8
0
100
AcDbLine
 10
7.623350423114628
 20
21.470131065471453
 30
0.0
 11
7.64672436190053
 21
21.598472890199005
 31
0.0
  0
LINE
  5
116
330
17
100
AcDbEntity
  8
0
100
AcDbLine
 10
7.64672436190053
 20
21.598472890199005
 30
0.0
 11
7.669670312740867
 21
21.756255582379254
 31
0.0
  0
LINE
  5
117
330
17
100
AcDbEntity
  8
0
100
AcDbLine
 10
7.669670312740867
 20
21.756255582379254
 30
0.0
 11
7.690102262360833
 21
21.94357655182411
 31
0.0
  0
LINE
  5
118
330
17
100
AcDbEntity
  8
0
100
AcDbLine
 10
7.690102262360833
 20
21.94357655182411
 30
0.0
 11
7.705927988999932
 21
22.16042133042706
 31
0.0
  0
LINE
  5
119
330
17
100
AcDbEntity
  8
0
100
AcDbLine
 10
7.705927988999932
 20
22.16042133042706
 30
0.0
 11
7.71505440712398
 21
22.406663299879472
 31
0.0
  0
LINE
  5
11A
330
17
100
AcDbEntity
  8
0
100
AcDbLine
 10
7.71505440712398
 20
22.406663299879472
 30
0.0
 11
7.71539292196767
 21
22.682063658914103
 31
0.0
  0
LINE
  5
11B
330
17
100
AcDbEntity
  8
0
100
AcDbLine
 10
7.71539292196767
 20
22.682063658914103
 30
0.0
 11
7.704864783600758
 21
22.986271630369373
 31
0.0
  0
LINE
  5
11C
330
17
100
AcDbEntity
  8
0
100
AcDbLine
 10
7.704864783600758
 20
22.986271630369373
 30
0.0
 11
7.681406430204888
 21
23.31882490793647
 31
0.0
  0
LINE
  5
11D
330
17
100
AcDbEntity
  8
0
100
AcDbLine
 10
7.681406430204888
 20
23.31882490793647
 30
0.0
 11
7.642974810259366
 21
23.679150342020524
 31
0.0
  0
LINE
  5
11E
330
17
100
AcDbEntity
  8
0
100
AcDbLine
 10
7.642974810259366
 20
23.679150342020524
 30
0.0
 11
7.5875526733634615
 21
24.066564863716337
 31
0.0
  0
LINE
  5
11F
330
17
100
AcDbEntity
  8
0
100
AcDbLine
 10
7.5875526733634615
 20
24.066564863716337
 30
0.0
 11
7.513153819469502
 21
24.480276645470436
 31
0.0
  0
LINE
  5
120
330
17
100
AcDbEntity
  8
0
100
AcDbLine
 10
7.513153819469502
 20
24.480276645470436
 30
0.0
 11
7.417828296365284
 21
24.91938649657416
 31
0.0
  0
LINE
  5
121
330
17
100
AcDbEntity
  8
0
100
AcDbLine
 10
7.417828296365284
 20
24.91938649657416
 30
0.0
 11
7.143060097738117
 21
24.99953384445601
 31
0.0
  0
LINE
  5
122
330
17
100
AcDbEntity
  8
0
100
AcDbLine
 10
7.143060097738117
 20
24.99953384445601
 30
0.0
 11
6.867426266312649
 21
25.076651620117847
 31
0.0
  0
LINE
  5
123
330
17
100
AcDbEntity
  8
0
100
AcDbLine
 10
6.867426266312649
 20
25.076651620117847
 30
0.0
 11
6.590960204815663
 21
25.150730478030578
 31
0.0
  0
LINE
  5
124
330
17
100
AcDbEntity
  8
0
100
AcDbLine
 10
6.590960204815663
 20
25.150730478030578
 30
0.0
 11
6.3136954168278505
 21
25.221761440936813
 31
0.0
  0
LINE
  5
125
330
17
100
AcDbEntity
  8
0
100
AcDbLine
 10
6.3136954168278505
 20
25.221761440936813
 30
0.0
 11
6.03566550272371
 21
25.289735900938762
 31
0.0
  0
LINE
  5
126
330
17
100
AcDbEntity
  8
0
100
AcDbLine
 10
6.03566550272371
 20
25.289735900938762
 30
0.0
 11
5.733556252534555
 21
24.957118376383047
 31
0.0
  0
LINE
  5
127
330
17
100
AcDbEntity
  8
0
100
AcDbLine
 10
5.733556252534555
 20
24.957118376383047
 30
0.0
 11
5.46226906417289
 21
24.636032890486057
 31
0.0
  0
LINE
  5
128
330
17
100
AcDbEntity
  8
0
100
AcDbLine
 10
5.46226906417289
 20
24.636032890486057
 30
0.0
 11
5.2205648248411105
 21
24.328233141350434
 31
0.0
  0
LINE
  5
129
330
17
100
AcDbEntity
  8
0
100
AcDbLine
 10
5.2205648248411105
 20
24.328233141350434
 30
0.0
 11
5.007119348617674
 21
24.03539797177675
 31
0.0
  0
LINE
  5
12A
330
17
100
AcDbEntity
  8
0
100
AcDbLine
 10
5.007119348617674
 20
24.03539797177675
 30
0.0
 11
4.820527179862347
 21
23.7591275619898
 31
0.0
  0
LINE
  5
12B
330
17
100
AcDbEntity
  8
0
100
AcDbLine
 10
4.820527179862347
 20
23.7591275619898
 30
0.0
 11
4.6593055588544114
 21
23.500939799859264
 31
0.0
  0
LINE
  5
12C
330
17
100
AcDbEntity
  8
0
100
AcDbLine
 10
4.6593055588544114
 20
23.500939799859264
 30
0.0
 11
4.521898541791287
 21
23.26226683530207
 31
0.0
  0
LINE
  5
12D
330
17
100
AcDbEntity
  8
0
100
AcDbLine
 10
4.521898541791287
 20
23.26226683530207
 30
0.0
 11
4.406681267006068
 21
23.044451825216345
 31
0.0
  0
LINE
  5
12E
330
17
100
AcDbEntity
  8
0
100
AcDbLine
 10
4.406681267006068
 20
23.044451825216345
 30
0.0
 11
4.311964359007397
 21
22.848745874948627
 31
0.0
  0
LINE
  5
12F
330
17
100
AcDbEntity
  8
0
100
AcDbLine
 10
4.311964359007397
 20
22.848745874948627
 30
0.0
 11
4.235998461704705
 21
22.67630518193787
 31
0.0
  0
LINE
  5
130
330
17
100
AcDbEntity
  8
0
100
AcDbLine
 10
4.235998461704705
 20
22.67630518193787
 30
0.0
 11
4.176978891956303
 21
22.52818838681211
 31
0.0
  0
LINE
  5
131
330
17
100
AcDbEntity
  8
0
100
AcDbLine
 10
4.176978891956303
 20
22.52818838681211
 30
0.0
 11
4.1330504043676175
 21
22.405354136837044
 31
0.0
  0
LINE
  5
132
330
17
100
AcDbEntity
  8
0
100
AcDbLine
 10
4.1330504043676175
 20
22.405354136837044
 30
0.0
 11
4.1023120580722905
 21
22.30865886623131
 31
0.0
  0
LINE
  5
133
330
17
100
AcDbEntity
  8
0
100
AcDbLine
 10
4.1023120580722905
 20
22.30865886623131
 30
0.0
 11
4.082822176050185
 21
22.238854797470648
 31
0.0
  0
LINE
  5
134
330
17
100
AcDbEntity
  8
0
100
AcDbLine
 10
4.082822176050185
 20
22.238854797470648
 30
0.0
 11
4.072603387374023
 21
22.196588167304153
 31
0.0
  0
LINE
  5
135
330
17
100
AcDbEntity
  8
0
100
AcDbLine
 10
4.072603387374023
 20
22.196588167304153
 30
0.0
 11
4.0696477426303534
 21
22.182397680800182
 31
0.0
  0
LINE
  5
136
330
17
100
AcDbEntity
  8
0
100
AcDbLine
 10
4.0696477426303534
 20
22.182397680800182
 30
0.0
 11
3.879700683106286
 21
21.147054702948697
 31
0.0
  0
LINE
  5
137
330
17
100
AcDbEntity
  8
0
100
AcDbLine
 10
3.879700683106286
 20
21.147054702948697
 30
0.0
 11
3.5228709937079348
 21
21.209417247102554
 31
0.0
  0
LINE
  5
138
330
17
100
AcDbEntity
  8
0
100
AcDbLine
 10
3.5228709937079348
 20
21.209417247102554
 30
0.0
 11
3.165041285160659
 21
21.26575918379658
 31
0.0
  0
LINE
  5
139
330
17
100
AcDbEntity
  8
0
100
AcDbLine
 10
3.165041285160659
 20
21.26575918379658
 30
0.0
 11
2.8063131327311117
 21
21.316064519536923
 31
0.0
  0
LINE
  5
13A
330
17
100
AcDbEntity
  8
0
100
AcDbLine
 10
2.8063131327311117
 20
21.316064519536923
 30
0.0
 11
2.446788366722573
 21
21.36031897440839
 31
0.0
  0
LINE
  5
13B
330
17
100
AcDbEntity
  8
0
100
AcDbLine
 10
2.446788366722573
 20
21.36031897440839
 30
0.0
 11
2.086569043568895
 21
21.398509986128005
 31
0.0
  0
LINE
  5
13C
330
17
100
AcDbEntity
  8
0
100
AcDbLine
 10
2.086569043568895
 20
21.398509986128005
 30
0.0
 11
1.7257574168642564
 21
21.430626713611016
 31
0.0
  0
LINE
  5
13D
330
17
100
AcDbEntity
  8
0
100
AcDbLine
 10
1.7257574168642564
 20
21.430626713611016
 30
0.0
 11
1.8102491273234151
 21
22.47985315155085
 31
0.0
  0
LINE
  5
13E
330
17
100
AcDbEntity
  8
0
100
AcDbLine
 10
1.8102491273234151
 20
22.47985315155085
 30
0.0
 11
1.8110669618986661
 21
22.494325086102855
 31
0.0
  0
LINE
  5
13F
330
17
100
AcDbEntity
  8
0
100
AcDbLine
 10
1.8110669618986661
 20
22.494325086102855
 30
0.0
 11
1.8121357788623642
 21
22.53779633289815
 31
0.0
  0
LINE
  5
140
330
17
100
AcDbEntity
  8
0
100
AcDbLine
 10
1.8121357788623642
 20
22.53779633289815
 30
0.0
 11
1.811376620886792
 21
22.610266238348252
 31
0.0
  0
LINE
  5
141
330
17
100
AcDbEntity
  8
0
100
AcDbLine
 10
1.811376620886792
 20
22.610266238348252
 30
0.0
 11
1.8067122359468244
 21
22.71162236694253
 31
0.0
  0
LINE
  5
142
330
17
100
AcDbEntity
  8
0
100
AcDbLine
 10
1.8067122359468244
 20
22.71162236694253
 30
0.0
 11
1.7960724185595258
 21
22.841640670556796
 31
0.0
  0
LINE
  5
143
330
17
100
AcDbEntity
  8
0
100
AcDbLine
 10
1.7960724185595258
 20
22.841640670556796
 30
0.0
 11
1.7773993393611702
 21
22.99998589696058
 31
0.0
  0
LINE
  5
144
330
17
100
AcDbEntity
  8
0
100
AcDbLine
 10
1.7773993393611702
 20
22.99998589696058
 30
0.0
 11
1.7486528527411374
 21
23.18621223684309
 31
0.0
  0
LINE
  5
145
330
17
100
AcDbEntity
  8
0
100
AcDbLine
 10
1.7486528527411374
 20
23.18621223684309
 30
0.0
 11
1.7078157722881486
 21
23.399764208248403
 31
0.0
  0
LINE
  5
146
330
17
100
AcDbEntity
  8
0
100
AcDbLine
 10
1.7078157722881486
 20
23.399764208248403
 30
0.0
 11
1.652899103857844
 21
23.639977776882844
 31
0.0
  0
LINE
  5
147
330
17
100
AcDbEntity
  8
0
100
AcDbLine
 10
1.652899103857844
 20
23.639977776882844
 30
0.0
 11
1.5819472261417094
 21
23.906081710332273
 31
0.0
  0
LINE
  5
148
330
17
100
AcDbEntity
  8
0
100
AcDbLine
 10
1.5819472261417094
 20
23.906081710332273
 30
0.0
 11
1.4930430087057387
 21
24.197199163805095
 31
0.0
  0
LINE
  5
149
330
17
100
AcDbEntity
  8
0
100
AcDbLine
 10
1.4930430087057387
 20
24.197199163805095
 30
0.0
 11
1.3843128575728214
 21
24.512349494598634
 31
0.0
  0
LINE
  5
14A
330
17
100
AcDbEntity
  8
0
100
AcDbLine
 10
1.3843128575728214
 20
24.512349494598634
 30
0.0
 11
1.2539316785455301
 21
24.8504503020732
 31
0.0
  0
LINE
  5
14B
330
17
100
AcDbEntity
  8
0
100
AcDbLine
 10
1.2539316785455301
 20
24.8504503020732
 30
0.0
 11
1.1001277486054868
 21
25.210319689509674
 31
0.0
  0
LINE
  5
14C
330
17
100
AcDbEntity
  8
0
100
AcDbLine
 10
1.1001277486054868
 20
25.210319689509674
 30
0.0
 11
0.9211874858817461
 21
25.590678743824466
 31
0.0
  0
LINE
  5
14D
330
17
100
AcDbEntity
  8
0
100
AcDbLine
 10
0.9211874858817461
 20
25.590678743824466
 30
0.0
 11
0.7154601088530916
 21
25.990154228719767
 31
0.0
  0
LINE
  5
14E
330
17
100
AcDbEntity
  8
0
100
AcDbLine
 10
0.7154601088530916
 20
25.990154228719767
 30
0.0
 11
0.42931074950990566
 21
25.9964553791542
 31
0.0
  0
LINE
  5
14F
330
17
100
AcDbEntity
  8
0
100
AcDbLine
 10
0.42931074950990566
 20
25.9964553791542
 30
0.0
 11
0.143109364079811
 21
25.999606145284442
 31
0.0
  0
LINE
  5
150
330
17
100
AcDbEntity
  8
0
100
AcDbLine
 10
0.143109364079811
 20
25.999606145284442
 30
0.0
 11
-0.14310936407980784
 21
25.999606145284442
 31
0.0
  0
LINE
  5
151
330
17
100
AcDbEntity
  8
0
100
AcDbLine
 10
-0.14310936407980784
 20
25.999606145284442
 30
0.0
 11
-0.42931074950990245
 21
25.9964553791542
 31
0.0
  0
LINE
  5
152
330
17
100
AcDbEntity
  8
0
100
AcDbLine
 10
-0.42931074950990245
 20
25.9964553791542
 30
0.0
 11
-0.7154601088530883
 21
25.990154228719767
 31
0.0
  0
LINE
  5
153
330
17
100
AcDbEntity
  8
0
100
AcDbLine
 10
-0.7154601088530883
 20
25.990154228719767
 30
0.0
 11
-0.9211874858817432
 21
25.590678743824466
 31
0.0
  0
LINE
  5
154
330
17
100
AcDbEntity
  8
0
100
AcDbLine
 10
-0.9211874858817432
 20
25.590678743824466
 30
0.0
 11
-1.100127748605484
 21
25.210319689509674
 31
0.0
  0
LINE
  5
155
330
17
100
AcDbEntity
  8
0
100
AcDbLine
 10
-1.100127748605484
 20
25.210319689509674
 30
0.0
 11
-1.2539316785455272
 21
24.8504503020732
 31
0.0
  0
LINE
  5
156
330
17
100
AcDbEntity
  8
0
100
AcDbLine
 10
-1.2539316785455272
 20
24.8504503020732
 30
0.0
 11
-1.3843128575728185
 21
24.512349494598634
 31
0.0
  0
LINE
  5
157
330
17
100
AcDbEntity
  8
0
100
AcDbLine
 10
-1.3843128575728185
 20
24.512349494598634
 30
0.0
 11
-1.4930430087057356
 21
24.197199163805095
 31
0.0
  0
LINE
  5
158
330
17
100
AcDbEntity
  8
0
100
AcDbLine
 10
-1.4930430087057356
 20
24.197199163805095
 30
0.0
 11
-1.5819472261417065
 21
23.906081710332273
 31
0.0
  0
LINE
  5
159
330
17
100
AcDbEntity
  8
0
100
AcDbLine
 10
-1.5819472261417065
 20
23.906081710332273
 30
0.0
 11
-1.652899103857841
 21
23.639977776882844
 31
0.0
  0
LINE
  5
15A
330
17
100
AcDbEntity
  8
0
100
AcDbLine
 10
-1.652899103857841
 20
23.639977776882844
 30
0.0
 11
-1.7078157722881457
 21
23.399764208248403
 31
0.0
  0
LINE
  5
15B
330
17
100
AcDbEntity
  8
0
100
AcDbLine
 10
-1.7078157722881457
 20
23.399764208248403
 30
0.0
 11
-1.7486528527411342
 21
23.18621223684309
 31
0.0
  0
LINE
  5
15C
330
17
100
AcDbEntity
  8
0
100
AcDbLine
 10
-1.7486528527411342
 20
23.18621223684309
 30
0.0
 11
-1.7773993393611673
 21
22.99998589696058
 31
0.0
  0
LINE
  5
15D
330
17
100
AcDbEntity
  8
0
100
AcDbLine
 10
-1.7773993393611673
 20
22.99998589696058
 30
0.0
 11
-1.796072418559523
 21
22.841640670556796
 31
0.0
  0
LINE
  5
15E
330
17
100
AcDbEntity
  8
0
100
AcDbLine
 10
-1.796072418559523
 20
22.841640670556796
 30
0.0
 11
-1.8067122359468217
 21
22.71162236694253
 31
0.0
  0
LINE
  5
15F
330
17
100
AcDbEntity
  8
0
100
AcDbLine
 10
-1.8067122359468217
 20
22.71162236694253
 30
0.0
 11
-1.8113766208867894
 21
22.610266238348252
 31
0.0
  0
LINE
  5
160
330
17
100
AcDbEntity
  8
0
100
AcDbLine
 10
-1.8113766208867894
 20
22.610266238348252
 30
0.0
 11
-1.8121357788623613
 21
22.53779633289815
 31
0.0
  0
LINE
  5
161
330
17
100
AcDbEntity
  8
0
100
AcDbLine
 10
-1.8121357788623613
 20
22.53779633289815
 30
0.0
 11
-1.8110669618986632
 21
22.494325086102855
 31
0.0
  0
LINE
  5
162
330
17
100
AcDbEntity
  8
0
100
AcDbLine
 10
-1.8110669618986632
 20
22.494325086102855
 30
0.0
 11
-1.8102491273234123
 21
22.47985315155085
 31
0.0
  0
LINE
  5
163
330
17
100
AcDbEntity
  8
0
100
AcDbLine
 10
-1.8102491273234123
 20
22.47985315155085
 30
0.0
 11
-1.7257574168642538
 21
21.430626713611016
 31
0.0
  0
LINE
  5
164
330
17
100
AcDbEntity
  8
0
100
AcDbLine
 10
-1.7257574168642538
 20
21.430626713611016
 30
0.0
 11
-2.0865690435688924
 21
21.398509986128005
 31
0.0
  0
LINE
  5
165
330
17
100
AcDbEntity
  8
0
100
AcDbLine
 10
-2.0865690435688924
 20
21.398509986128005
 30
0.0
 11
-2.4467883667225707
 21
21.36031897440839
 31
0.0
  0
LINE
  5
166
330
17
100
AcDbEntity
  8
0
100
AcDbLine
 10
-2.4467883667225707
 20
21.36031897440839
 30
0.0
 11
-2.8063131327311046
 21
21.316064519536926
 31
0.0
  0
LINE
  5
167
330
17
100
AcDbEntity
  8
0
100
AcDbLine
 10
-2.8063131327311046
 20
21.316064519536926
 30
0.0
 11
-3.165041285160652
 21
21.265759183796582
 31
0.0
  0
LINE
  5
168
330
17
100
AcDbEntity
  8
0
100
AcDbLine
 10
-3.165041285160652
 20
21.265759183796582
 30
0.0
 11
-3.522870993707932
 21
21.209417247102554
 31
0.0
  0
LINE
  5
169
330
17
100
AcDbEntity
  8
0
100
AcDbLine
 10
-3.522870993707932
 20
21.209417247102554
 30
0.0
 11
-3.879700683106279
 21
21.147054702948697
 31
0.0
  0
LINE
  5
16A
330
17
100
AcDbEntity
  8
0
100
AcDbLine
 10
-3.879700683106279
 20
21.147054702948697
 30
0.0
 11
-4.0696477426303455
 21
22.182397680800186
 31
0.0
  0
LINE
  5
16B
330
17
100
AcDbEntity
  8
0
100
AcDbLine
 10
-4.0696477426303455
 20
22.182397680800186
 30
0.0
 11
-4.0726033873740155
 21
22.196588167304153
 31
0.0
  0
LINE
  5
16C
330
17
100
AcDbEntity
  8
0
100
AcDbLine
 10
-4.0726033873740155
 20
22.196588167304153
 30
0.0
 11
-4.082822176050177
 21
22.238854797470648
 31
0.0
  0
LINE
  5
16D
330
17
100
AcDbEntity
  8
0
100
AcDbLine
 10
-4.082822176050177
 20
22.238854797470648
 30
0.0
 11
-4.102312058072282
 21
22.308658866231312
 31
0.0
  0
LINE
  5
16E
330
17
100
AcDbEntity
  8
0
100
AcDbLine
 10
-4.102312058072282
 20
22.308658866231312
 30
0.0
 11
-4.13305040436761
 21
22.405354136837047
 31
0.0
  0
LINE
  5
16F
330
17
100
AcDbEntity
  8
0
100
AcDbLine
 10
-4.13305040436761
 20
22.405354136837047
 30
0.0
 11
-4.176978891956299
 21
22.52818838681211
 31
0.0
  0
LINE
  5
170
330
17
100
AcDbEntity
  8
0
100
AcDbLine
 10
-4.176978891956299
 20
22.52818838681211
 30
0.0
 11
-4.235998461704697
 21
22.676305181937874
 31
0.0
  0
LINE
  5
171
330
17
100
AcDbEntity
  8
0
100
AcDbLine
 10
-4.235998461704697
 20
22.676305181937874
 30
0.0
 11
-4.31196435900739
 21
22.848745874948627
 31
0.0
  0
LINE
  5
172
330
17
100
AcDbEntity
  8
0
100
AcDbLine
 10
-4.31196435900739
 20
22.848745874948627
 30
0.0
 11
-4.40668126700606
 21
23.04445182521635
 31
0.0
  0
LINE
  5
173
330
17
100
AcDbEntity
  8
0
100
AcDbLine
 10
-4.40668126700606
 20
23.04445182521635
 30
0.0
 11
-4.521898541791279
 21
23.26226683530207
 31
0.0
  0
LINE
  5
174
330
17
100
AcDbEntity
  8
0
100
AcDbLine
 10
-4.521898541791279
 20
23.26226683530207
 30
0.0
 11
-4.6593055588544035
 21
23.500939799859264
 31
0.0
  0
LINE
  5
175
330
17
100
AcDbEntity
  8
0
100
AcDbLine
 10
-4.6593055588544035
 20
23.500939799859264
 30
0.0
 11
-4.820527179862339
 21
23.7591275619898
 31
0.0
  0
LINE
  5
176
330
17
100
AcDbEntity
  8
0
100
AcDbLine
 10
-4.820527179862339
 20
23.7591275619898
 30
0.0
 11
-5.007119348617665
 21
24.03539797177675
 31
0.0
  0
LINE
  5
177
330
17
100
AcDbEntity
  8
0
100
AcDbLine
 10
-5.007119348617665
 20
24.03539797177675
 30
0.0
 11
-5.2205648248411025
 21
24.328233141350438
 31
0.0
  0
LINE
  5
178
330
17
100
AcDbEntity
  8
0
100
AcDbLine
 10
-5.2205648248411025
 20
24.328233141350438
 30
0.0
 11
-5.462269064172881
 21
24.636032890486057
 31
0.0
  0
LINE
  5
179
330
17
100
AcDbEntity
  8
0
100
AcDbLine
 10
-5.462269064172881
 20
24.636032890486057
 30
0.0
 11
-5.7335562525345525
 21
24.957118376383047
 31
0.0
  0
LINE
  5
17A
330
17
100
AcDbEntity
  8
0
100
AcDbLine
 10
-5.7335562525345525
 20
24.957118376383047
 30
0.0
 11
-6.035665502723701
 21
25.289735900938766
 31
0.0
  0
LINE
  5
17B
330
17
100
AcDbEntity
  8
0
100
AcDbLine
 10
-6.035665502723701
 20
25.289735900938766
 30
0.0
 11
-6.313695416827842
 21
25.221761440936817
 31
0.0
  0
LINE
  5
17C
330
17
100
AcDbEntity
  8
0
100
AcDbLine
 10
-6.313695416827842
 20
25.221761440936817
 30
0.0
 11
-6.590960204815654
 21
25.15073047803058
 31
0.0
  0
LINE
  5
17D
330
17
100
AcDbEntity
  8
0
100
AcDbLine
 10
-6.590960204815654
 20
25.15073047803058
 30
0.0
 11
-6.86742626631264
 21
25.07665162011785
 31
0.0
  0
LINE
  5
17E
330
17
100
AcDbEntity
  8
0
100
AcDbLine
 10
-6.86742626631264
 20
25.07665162011785
 30
0.0
 11
-7.1430600977381085
 21
24.999533844456014
 31
0.0
  0
LINE
  5
17F
330
17
100
AcDbEntity
  8
0
100
AcDbLine
 10
-7.1430600977381085
 20
24.999533844456014
 30
0.0
 11
-7.417828296365276
 21
24.919386496574162
 31
0.0
  0
LINE
  5
180
330
17
100
AcDbEntity
  8
0
100
AcDbLine
 10
-7.417828296365276
 20
24.919386496574162
 30
0.0
 11
-7.513153819469488
 21
24.48027664547044
 31
0.0
  0
LINE
  5
181
330
17
100
AcDbEntity
  8
0
100
AcDbLine
 10
-7.513153819469488
 20
24.48027664547044
 30
0.0
 11
-7.587552673363453
 21
24.06656486371634
 31
0.0
  0
LINE
  5
182
330
17
100
AcDbEntity
  8
0
100
AcDbLine
 10
-7.587552673363453
 20
24.06656486371634
 30
0.0
 11
-7.642974810259359
 21
23.679150342020527
 31
0.0
  0
LINE
  5
183
330
17
100
AcDbEntity
  8
0
100
AcDbLine
 10
-7.642974810259359
 20
23.679150342020527
 30
0.0
 11
-7.68140643020488
 21
23.31882490793647
 31
0.0
  0
LINE
  5
184
330
17
100
AcDbEntity
  8
0
100
AcDbLine
 10
-7.68140643020488
 20
23.31882490793647
 30
0.0
 11
-7.70486478360075
 21
22.986271630369373
 31
0.0
  0
LINE
  5
185
330
17
100
AcDbEntity
  8
0
100
AcDbLine
 10
-7.70486478360075
 20
22.986271630369373
 30
0.0
 11
-7.715392921967662
 21
22.682063658914107
 31
0.0
  0
LINE
  5
186
330
17
100
AcDbEntity
  8
0
100
AcDbLine
 10
-7.715392921967662
 20
22.682063658914107
 30
0.0
 11
-7.715054407123972
 21
22.406663299879476
 31
0.0
  0
LINE
  5
187
330
17
100
AcDbEntity
  8
0
100
AcDbLine
 10
-7.715054407123972
 20
22.406663299879476
 30
0.0
 11
-7.705927988999924
 21
22.160421330427063
 31
0.0
  0
LINE
  5
188
330
17
100
AcDbEntity
  8
0
100
AcDbLine
 10
-7.705927988999924
 20
22.160421330427063
 30
0.0
 11
-7.690102262360825
 21
21.94357655182411
 31
0.0
  0
LINE
  5
189
330
17
100
AcDbEntity
  8
0
100
AcDbLine
 10
-7.690102262360825
 20
21.94357655182411
 30
0.0
 11
-7.669670312740859
 21
21.756255582379257
 31
0.0
  0
LINE
  5
18A
330
17
100
AcDbEntity
  8
0
100
AcDbLine
 10
-7.669670312740859
 20
21.756255582379257
 30
0.0
 11
-7.646724361900517
 21
21.598472890199012
 31
0.0
  0
LINE
  5
18B
330
17
100
AcDbEntity
  8
0
100
AcDbLine
 10
-7.646724361900517
 20
21.598472890199012
 30
0.0
 11
-7.62335042311462
 21
21.470131065471456
 31
0.0
  0
LINE
  5
18C
330
17
100
AcDbEntity
  8
0
100
AcDbLine
 10
-7.62335042311462
 20
21.470131065471456
 30
0.0
 11
-7.60162297657383
 21
21.371021331553415
 31
0.0
  0
LINE
  5
18D
330
17
100
AcDbEntity
  8
0
100
AcDbLine
 10
-7.60162297657383
 20
21.371021331553415
 30
0.0
 11
-7.583599675141402
 21
21.30082429370811
 31
0.0
  0
LINE
  5
18E
330
17
100
AcDbEntity
  8
0
100
AcDbLine
 10
-7.583599675141402
 20
21.30082429370811
 30
0.0
 11
-7.571316090647616
 21
21.259110923913482
 31
0.0
  0
LINE
  5
18F
330
17
100
AcDbEntity
  8
0
100
AcDbLine
 10
-7.571316090647616
 20
21.259110923913482
 30
0.0
 11
-7.566780510828211
 21
21.24534377973715
 31
0.0
  0
LINE
  5
190
330
17
100
AcDbEntity
  8
0
100
AcDbLine
 10
-7.566780510828211
 20
21.24534377973715
 30
0.0
 11
-7.213608000824466
 21
20.2537369295259
 31
0.0
  0
LINE
  5
191
330
17
100
AcDbEntity
  8
0
100
AcDbLine
 10
-7.213608000824466
 20
20.2537369295259
 30
0.0
 11
-7.553812848744873
 21
20.129329632308593
 31
0.0
  0
LINE
  5
192
330
17
100
AcDbEntity
  8
0
100
AcDbLine
 10
-7.553812848744873
 20
20.129329632308593
 30
0.0
 11
-7.891873434922612
 21
19.9992083265104
 31
0.0
  0
LINE
  5
193
330
17
100
AcDbEntity
  8
0
100
AcDbLine
 10
-7.891873434922612
 20
19.9992083265104
 30
0.0
 11
-8.22769379584943
 21
19.863409948992665
 31
0.0
  0
LINE
  5
194
330
17
100
AcDbEntity
  8
0
100
AcDbLine
 10
-8.22769379584943
 20
19.863409948992665
 30
0.0
 11
-8.561178603938208
 21
19.72197304813772
 31
0.0
  0
LINE
  5
195
330
17
100
AcDbEntity
  8
0
100
AcDbLine
 10
-8.561178603938208
 20
19.72197304813772
 30
0.0
 11
-8.892233194583136
 21
19.5749377729063
 31
0.0
  0
LINE
  5
196
330
17
100
AcDbEntity
  8
0
100
AcDbLine
 10
-8.892233194583136
 20
19.5749377729063
 30
0.0
 11
-9.220763593031647
 21
19.422345861440686
 31
0.0
  0
LINE
  5
197
330
17
100
AcDbEntity
  8
0
100
AcDbLine
 10
-9.220763593031647
 20
19.422345861440686
 30
0.0
 11
-9.672204844334733
 21
20.373248466248416
 31
0.0
  0
LINE
  5
198
330
17
100
AcDbEntity
  8
0
100
AcDbLine
 10
-9.672204844334733
 20
20.373248466248416
 30
0.0
 11
-9.678732546092474
 21
20.386190446499985
 31
0.0
  0
LINE
  5
199
330
17
100
AcDbEntity
  8
0
100
AcDbLine
 10
-9.678732546092474
 20
20.386190446499985
 30
0.0
 11
-9.699542546847564
 21
20.424372059040746
 31
0.0
  0
LINE
  5
19A
330
17
100
AcDbEntity
  8
0
100
AcDbLine
 10
-9.699542546847564
 20
20.424372059040746
 30
0.0
 11
-9.736434949664943
 21
20.486753259182606
 31
0.0
  0
LINE
  5
19B
330
17
100
AcDbEntity
  8
0
100
AcDbLine
 10
-9.736434949664943
 20
20.486753259182606
 30
0.0
 11
-9.791152489813129
 21
20.57219804890451
 31
0.0
  0
LINE
  5
19C
330
17
100
AcDbEntity
  8
0
100
AcDbLine
 10
-9.791152489813129
 20
20.57219804890451
 30
0.0
 11
-9.865375993769288
 21
20.67947729409777
 31
0.0
  0
LINE
  5
19D
330
17
100
AcDbEntity
  8
0
100
AcDbLine
 10
-9.865375993769288
 20
20.67947729409777
 30
0.0
 11
-9.960719967923835
 21
20.80727174313227
 31
0.0
  0
LINE
  5
19E
330
17
100
AcDbEntity
  8
0
100
AcDbLine
 10
-9.960719967923835
 20
20.80727174313227
 30
0.0
 11
-10.078728325547582
 21
20.9541752410143
 31
0.0
  0
LINE
  5
19F
330
17
100
AcDbEntity
  8
0
100
AcDbLine
 10
-10.078728325547582
 20
20.9541752410143
 30
0.0
 11
-10.220870260338922
 21
21.11869813305306
 31
0.0
  0
LINE
  5
1A0
330
17
100
AcDbEntity
  8
0
100
AcDbLine
 10
-10.220870260338922
 20
21.11869813305306
 30
0.0
 11
-10.388536274607992
 21
21.299270851609045
 31
0.0
  0
LINE
  5
1A1
330
17
100
AcDbEntity
  8
0
100
AcDbLine
 10
-10.388536274607992
 20
21.299270851609045
 30
0.0
 11
-10.583034369881087
 21
21.49424767916515
 31
0.0
  0
LINE
  5
1A2
330
17
100
AcDbEntity
  8
0
100
AcDbLine
 10
-10.583034369881087
 20
21.49424767916515
 30
0.0
 11
-10.805586407420622
 21
21.701910680639656
 31
0.0
  0
LINE
  5
1A3
330
17
100
AcDbEntity
  8
0
100
AcDbLine
 10
-10.805586407420622
 20
21.701910680639656
 30
0.0
 11
-11.05732464585582
 21
21.920473797551477
 31
0.0
  0
LINE
  5
1A4
330
17
100
AcDbEntity
  8
0
100
AcDbLine
 10
-11.05732464585582
 20
21.920473797551477
 30
0.0
 11
-11.339288462806104
 21
22.148087096350835
 31
0.0
  0
LINE
  5
1A5
330
17
100
AcDbEntity
  8
0
100
AcDbLine
 10
-11.339288462806104
 20
22.148087096350835
 30
0.0
 11
-11.652421267054304
 21
22.38284116294514
 31
0.0
  0
LINE
  5
1A6
330
17
100
AcDbEntity
  8
0
100
AcDbLine
 10
-11.652421267054304
 20
22.38284116294514
 30
0.0
 11
-11.997567607490318
 21
22.62277163517931
 31
0.0
  0
LINE
  5
1A7
330
17
100
AcDbEntity
  8
0
100
AcDbLine
 10
-11.997567607490318
 20
22.62277163517931
 30
0.0
 11
-12.375470484698727
 21
22.865863864773416
 31
0.0
  0
LINE
  5
1A8
330
17
100
AcDbEntity
  8
0
100
AcDbLine
 10
-12.375470484698727
 20
22.865863864773416
 30
0.0
 11
-12.62643367438378
 21
22.728246141451113
 31
0.0
  0
LINE
  5
1A9
330
17
100
AcDbEntity
  8
0
100
AcDbLine
 10
-12.62643367438378
 20
22.728246141451113
 30
0.0
 11
-12.875866727829662
 21
22.587874092246246
 31
0.0
  0
LINE
  5
1AA
330
17
100
AcDbEntity
  8
0
100
AcDbLine
 10
-12.875866727829662
 20
22.587874092246246
 30
0.0
 11
-13.123739417454775
 21
22.44476472816643
 31
0.0
  0
LINE
  5
1AB
330
17
100
AcDbEntity
  8
0
100
AcDbLine
 10
-13.123739417454775
 20
22.44476472816643
 30
0.0
 11
-13.370021704770409
 21
22.298935391941207
 31
0.0
  0
LINE
  5
1AC
330
17
100
AcDbEntity
  8
0
100
AcDbLine
 10
-13.370021704770409
 20
22.298935391941207
 30
0.0
 11
-13.614683744021027
 21
22.15040375592033
 31
0.0
  0
LINE
  5
1AD
330
17
100
AcDbEntity
  8
0
100
AcDbLine
 10
-13.614683744021027
 20
22.15040375592033
 30
0.0
 11
-13.593111136334137
 21
21.701584149297563
 31
0.0
  0
LINE
  5
1AE
330
17
100
AcDbEntity
  8
0
100
AcDbLine
 10
-13.593111136334137
 20
21.701584149297563
 30
0.0
 11
-13.557898422455358
 21
21.28271341433966
 31
0.0
  0
LINE
  5
1AF
330
17
100
AcDbEntity
  8
0
100
AcDbLine
 10
-13.557898422455358
 20
21.28271341433966
 30
0.0
 11
-13.511161839267086
 21
20.894155417805308
 31
0.0
  0
LINE
  5
1B0
330
17
100
AcDbEntity
  8
0
100
AcDbLine
 10
-13.511161839267086
 20
20.894155417805308
 30
0.0
 11
-13.455024848742802
 21
20.536160939978654
 31
0.0
  0
LINE
  5
1B1
330
17
100
AcDbEntity
  8
0
100
AcDbLine
 10
-13.455024848742802
 20
20.536160939978654
 30
0.0
 11
-13.391612756384461
 21
20.208867671933923
 31
0.0
  0
LINE
  5
1B2
330
17
100
AcDbEntity
  8
0
100
AcDbLine
 10
-13.391612756384461
 20
20.208867671933923
 30
0.0
 11
-13.323047340451179
 21
19.91230045302344
 31
0.0
  0
LINE
  5
1B3
330
17
100
AcDbEntity
  8
0
100
AcDbLine
 10
-13.323047340451179
 20
19.91230045302344
 30
0.0
 11
-13.251441502274842
 21
19.646371747751203
 31
0.0
  0
LINE
  5
1B4
330
17
100
AcDbEntity
  8
0
100
AcDbLine
 10
-13.251441502274842
 20
19.646371747751203
 30
0.0
 11
-13.178893947909474
 21
19.41088236076491
 31
0.0
  0
LINE
  5
1B5
330
17
100
AcDbEntity
  8
0
100
AcDbLine
 10
-13.178893947909474
 20
19.41088236076491
 30
0.0
 11
-13.107483911295498
 21
19.20552238827316
 31
0.0
  0
LINE
  5
1B6
330
17
100
AcDbEntity
  8
0
100
AcDbLine
 10
-13.107483911295498
 20
19.20552238827316
 30
0.0
 11
-13.039265929036736
 21
19.029872403771098
 31
0.0
  0
LINE
  5
1B7
330
17
100
AcDbEntity
  8
0
100
AcDbLine
 10
-13.039265929036736
 20
19.029872403771098
 30
0.0
 11
-12.9762646767875
 21
18.883404875538243
 31
0.0
  0
LINE
  5
1B8
330
17
100
AcDbEntity
  8
0
100
AcDbLine
 10
-12.9762646767875
 20
18.883404875538243
 30
0.0
 11
-12.920469877129396
 21
18.76548581295769
 31
0.0
  0
LINE
  5
1B9
330
17
100
AcDbEntity
  8
0
100
AcDbLine
 10
-12.920469877129396
 20
18.76548581295769
 30
0.0
 11
-12.873831288683302
 21
18.675376638295813
 31
0.0
  0
LINE
  5
1BA
330
17
100
AcDbEntity
  8
0
100
AcDbLine
 10
-12.873831288683302
 20
18.675376638295813
 30
0.0
 11
-12.838253786050576
 21
18.61223628017838
 31
0.0
  0
LINE
  5
1BB
330
17
100
AcDbEntity
  8
0
100
AcDbLine
 10
-12.838253786050576
 20
18.61223628017838
 30
0.0
 11
-12.815592540010371
 21
18.57512348460132
 31
0.0
  0
LINE
  5
1BC
330
17
100
AcDbEntity
  8
0
100
AcDbLine
 10
-12.815592540010371
 20
18.57512348460132
 30
0.0
 11
-12.807648307216107
 21
18.562999338925003
 31
0.0
  0
LINE
  5
1BD
330
17
100
AcDbEntity
  8
0
100
AcDbLine
 10
-12.807648307216107
 20
18.562999338925003
 30
0.0
 11
-12.20986312057936
 21
17.69658844457643
 31
0.0
  0
LINE
  5
1BE
330
17
100
AcDbEntity
  8
0
100
AcDbLine
 10
-12.20986312057936
 20
17.69658844457643
 30
0.0
 11
-12.506276791544861
 21
17.488368729337406
 31
0.0
  0
LINE
  5
1BF
330
17
100
AcDbEntity
  8
0
100
AcDbLine
 10
-12.506276791544861
 20
17.488368729337406
 30
0.0
 11
-12.799140370470177
 21
17.275184681415144
 31
0.0
  0
LINE
  5
1C0
330
17
100
AcDbEntity
  8
0
100
AcDbLine
 10
-12.799140370470177
 20
17.275184681415144
 30
0.0
 11
-13.088370723687493
 21
17.057096816261556
 31
0.0
  0
LINE
  5
1C1
330
17
100
AcDbEntity
  8
0
100
AcDbLine
 10
-13.088370723687493
 20
17.057096816261556
 30
0.0
 11
-13.373885748873962
 21
16.834167041349744
 31
0.0
  0
LINE
  5
1C2
330
17
100
AcDbEntity
  8
0
100
AcDbLine
 10
-13.373885748873962
 20
16.834167041349744
 30
0.0
 11
-13.655604398357674
 21
16.60645863860066
 31
0.0
  0
LINE
  5
1C3
330
17
100
AcDbEntity
  8
0
100
AcDbLine
 10
-13.655604398357674
 20
16.60645863860066
 30
0.0
 11
-13.933446702124229
 21
16.374036246419617
 31
0.0
  0
LINE
  5
1C4
330
17
100
AcDbEntity
  8
0
100
AcDbLine
 10
-13.933446702124229
 20
16.374036246419617
 30
0.0
 11
-14.61561716997197
 21
17.175696037106803
 31
0.0
  0
LINE
  5
1C5
330
17
100
AcDbEntity
  8
0
100
AcDbLine
 10
-14.61561716997197
 20
17.175696037106803
 30
0.0
 11
-14.62527207665653
 21
17.186507536539462
 31
0.0
  0
LINE
  5
1C6
330
17
100
AcDbEntity
  8
0
100
AcDbLine
 10
-14.62527207665653
 20
17.186507536539462
 30
0.0
 11
-14.655255122329242
 21
17.218002117657928
 31
0.0
  0
LINE
  5
1C7
330
17
100
AcDbEntity
  8
0
100
AcDbLine
 10
-14.655255122329242
 20
17.218002117657928
 30
0.0
 11
-14.707035889657474
 21
17.268709273481132
 31
0.0
  0
LINE
  5
1C8
330
17
100
AcDbEntity
  8
0
100
AcDbLine
 10
-14.707035889657474
 20
17.268709273481132
 30
0.0
 11
-14.782003713722423
 21
17.33708066110384
 31
0.0
  0
LINE
  5
1C9
330
17
100
AcDbEntity
  8
0
100
AcDbLine
 10
-14.782003713722423
 20
17.33708066110384
 30
0.0
 11
-14.881464024911585
 21
17.421493998242713
 31
0.0
  0
LINE
  5
1CA
330
17
100
AcDbEntity
  8
0
100
AcDbLine
 10
-14.881464024911585
 20
17.421493998242713
 30
0.0
 11
-15.00663486919701
 21
17.520257120674557
 31
0.0
  0
LINE
  5
1CB
330
17
100
AcDbEntity
  8
0
100
AcDbLine
 10
-15.00663486919701
 20
17.520257120674557
 30
0.0
 11
-15.158643612587792
 21
17.63161219281672
 31
0.0
  0
LINE
  5
1CC
330
17
100
AcDbEntity
  8
0
100
AcDbLine
 10
-15.158643612587792
 20
17.63161219281672
 30
0.0
 11
-15.33852383621642
 21
17.753740063421002
 31
0.0
  0
LINE
  5
1CD
330
17
100
AcDbEntity
  8
0
100
AcDbLine
 10
-15.33852383621642
 20
17.753740063421002
 30
0.0
 11
-15.547212428178094
 21
17.884764758088192
 31
0.0
  0
LINE
  5
1CE
330
17
100
AcDbEntity
  8
0
100
AcDbLine
 10
-15.547212428178094
 20
17.884764758088192
 30
0.0
 11
-15.785546877891598
 21
18.0227581000597
 31
0.0
  0
LINE
  5
1CF
330
17
100
AcDbEntity
  8
0
100
AcDbLine
 10
-15.785546877891598
 20
18.0227581000597
 30
0.0
 11
-16.054262778389045
 21
18.16574445050703
 31
0.0
  0
LINE
  5
1D0
330
17
100
AcDbEntity
  8
0
100
AcDbLine
 10
-16.054262778389045
 20
18.16574445050703
 30
0.0
 11
-16.353991541571865
 21
18.311705559318806
 31
0.0
  0
LINE
  5
1D1
330
17
100
AcDbEntity
  8
0
100
AcDbLine
 10
-16.353991541571865
 20
18.311705559318806
 30
0.0
 11
-16.685258331091074
 21
18.458585517179422
 31
0.0
  0
LINE
  5
1D2
330
17
100
AcDbEntity
  8
0
100
AcDbLine
 10
-16.685258331091074
 20
18.458585517179422
 30
0.0
 11
-17.0484802171226
 21
18.60429579954345
 31
0.0
  0
LINE
  5
1D3
330
17
100
AcDbEntity
  8
0
100
AcDbLine
 10
-17.0484802171226
 20
18.60429579954345
 30
0.0
 11
-17.44396455691355
 21
18.74672039293589
 31
0.0
  0
LINE
  5
1D4
330
17
100
AcDbEntity
  8
0
100
AcDbLine
 10
-17.44396455691355
 20
18.74672039293589
 30
0.0
 11
-17.87190760457348
 21
18.88372099385046
 31
0.0
  0
LINE
  5
1D5
330
17
100
AcDbEntity
  8
0
100
AcDbLine
 10
-17.87190760457348
 20
18.88372099385046
 30
0.0
 11
-18.0787013431987
 21
18.68583842762817
 31
0.0
  0
LINE
  5
1D6
330
17
100
AcDbEntity
  8
0
100
AcDbLine
 10
-18.0787013431987
 20
18.68583842762817
 30
0.0
 11
-18.28330421171793
 21
18.4856914153022
 31
0.0
  0
LINE
  5
1D7
330
17
100
AcDbEntity
  8
0
100
AcDbLine
 10
-18.28330421171793
 20
18.4856914153022
 30
0.0
 11
-18.485691415302195
 21
18.283304211717933
 31
0.0
  0
LINE
  5
1D8
330
17
100
AcDbEntity
  8
0
100
AcDbLine
 10
-18.485691415302195
 20
18.283304211717933
 30
0.0
 11
-18.685838427628166
 21
18.078701343198702
 31
0.0
  0
LINE
  5
1D9
330
17
100
AcDbEntity
  8
0
100
AcDbLine
 10
-18.685838427628166
 20
18.078701343198702
 30
0.0
 11
-18.883720993850456
 21
17.871907604573483
 31
0.0
  0
LINE
  5
1DA
330
17
100
AcDbEntity
  8
0
100
AcDbLine
 10
-18.883720993850456
 20
17.871907604573483
 30
0.0
 11
-18.746720392935885
 21
17.44396455691355
 31
0.0
  0
LINE
  5
1DB
330
17
100
AcDbEntity
  8
0
100
AcDbLine
 10
-18.746720392935885
 20
17.44396455691355
 30
0.0
 11
-18.604295799543447
 21
17.048480217122606
 31
0.0
  0
LINE
  5
1DC
330
17
100
AcDbEntity
  8
0
100
AcDbLine
 10
-18.604295799543447
 20
17.048480217122606
 30
0.0
 11
-18.45858551717942
 21
16.685258331091074
 31
0.0
  0
LINE
  5
1DD
330
17
100
AcDbEntity
  8
0
100
AcDbLine
 10
-18.45858551717942
 20
16.685258331091074
 30
0.0
 11
-18.3117055593188
 21
16.35399154157187
 31
0.0
  0
LINE
  5
1DE
330
17
100
AcDbEntity
  8
0
100
AcDbLine
 10
-18.3117055593188
 20
16.35399154157187
 30
0.0
 11
-18.16574445050703
 21
16.05426277838905
 31
0.0
  0
LINE
  5
1DF
330
17
100
AcDbEntity
  8
0
100
AcDbLine
 10
-18.16574445050703
 20
16.05426277838905
 30
0.0
 11
-18.0227581000597
 21
15.7855468778916
 31
0.0
  0
LINE
  5
1E0
330
17
100
AcDbEntity
  8
0
100
AcDbLine
 10
-18.0227581000597
 20
15.7855468778916
 30
0.0
 11
-17.88476475808819
 21
15.547212428178096
 31
0.0
  0
LINE
  5
1E1
330
17
100
AcDbEntity
  8
0
100
AcDbLine
 10
-17.88476475808819
 20
15.547212428178096
 30
0.0
 11
-17.753740063421
 21
15.338523836216424
 31
0.0
  0
LINE
  5
1E2
330
17
100
AcDbEntity
  8
0
100
AcDbLine
 10
-17.753740063421
 20
15.338523836216424
 30
0.0
 11
-17.631612192816718
 21
15.158643612587797
 31
0.0
  0
LINE
  5
1E3
330
17
100
AcDbEntity
  8
0
100
AcDbLine
 10
-17.631612192816718
 20
15.158643612587797
 30
0.0
 11
-17.520257120674554
 21
15.006634869197013
 31
0.0
  0
LINE
  5
1E4
330
17
100
AcDbEntity
  8
0
100
AcDbLine
 10
-17.520257120674554
 20
15.006634869197013
 30
0.0
 11
-17.42149399824271
 21
14.881464024911587
 31
0.0
  0
LINE
  5
1E5
330
17
100
AcDbEntity
  8
0
100
AcDbLine
 10
-17.42149399824271
 20
14.881464024911587
 30
0.0
 11
-17.33708066110384
 21
14.782003713722425
 31
0.0
  0
LINE
  5
1E6
330
17
100
AcDbEntity
  8
0
100
AcDbLine
 10
-17.33708066110384
 20
14.782003713722425
 30
0.0
 11
-17.26870927348113
 21
14.707035889657476
 31
0.0
  0
LINE
  5
1E7
330
17
100
AcDbEntity
  8
0
100
AcDbLine
 10
-17.26870927348113
 20
14.707035889657476
 30
0.0
 11
-17.218002117657928
 21
14.655255122329244
 31
0.0
  0
LINE
  5
1E8
330
17
100
AcDbEntity
  8
0
100
AcDbLine
 10
-17.218002117657928
 20
14.655255122329244
 30
0.0
 11
-17.18650753653946
 21
14.625272076656536
 31
0.0
  0
LINE
  5
1E9
330
17
100
AcDbEntity
  8
0
100
AcDbLine
 10
-17.18650753653946
 20
14.625272076656536
 30
0.0
 11
-17.1756960371068
 21
14.615617169971971
 31
0.0
  0
LINE
  5
1EA
330
17
100
AcDbEntity
  8
0
100
AcDbLine
 10
-17.1756960371068
 20
14.615617169971971
 30
0.0
 11
-16.374036246419617
 21
13.93344670212423
 31
0.0
  0
LINE
  5
1EB
330
17
100
AcDbEntity
  8
0
100
AcDbLine
 10
-16.374036246419617
 20
13.93344670212423
 30
0.0
 11
-16.60645863860066
 21
13.655604398357676
 31
0.0
  0
LINE
  5
1EC
330
17
100
AcDbEntity
  8
0
100
AcDbLine
 10
-16.60645863860066
 20
13.655604398357676
 30
0.0
 11
-16.834167041349737
 21
13.37388574887397
 31
0.0
  0
LINE
  5
1ED
330
17
100
AcDbEntity
  8
0
100
AcDbLine
 10
-16.834167041349737
 20
13.37388574887397
 30
0.0
 11
-17.057096816261552
 21
13.088370723687499
 31
0.0
  0
LINE
  5
1EE
330
17
100
AcDbEntity
  8
0
100
AcDbLine
 10
-17.057096816261552
 20
13.088370723687499
 30
0.0
 11
-17.275184681415144
 21
12.799140370470182
 31
0.0
  0
LINE
  5
1EF
330
17
100
AcDbEntity
  8
0
100
AcDbLine
 10
-17.275184681415144
 20
12.799140370470182
 30
0.0
 11
-17.4883687293374
 21
12.50627679154487
 31
0.0
  0
LINE
  5
1F0
330
17
100
AcDbEntity
  8
0
100
AcDbLine
 10
-17.4883687293374
 20
12.50627679154487
 30
0.0
 11
-17.696588444576424
 21
12.209863120579369
 31
0.0
  0
LINE
  5
1F1
330
17
100
AcDbEntity
  8
0
100
AcDbLine
 10
-17.696588444576424
 20
12.209863120579369
 30
0.0
 11
-18.562999338924996
 21
12.807648307216116
 31
0.0
  0
LINE
  5
1F2
330
17
100
AcDbEntity
  8
0
100
AcDbLine
 10
-18.562999338924996
 20
12.807648307216116
 30
0.0
 11
-18.575123484601313
 21
12.815592540010382
 31
0.0
  0
LINE
  5
1F3
330
17
100
AcDbEntity
  8
0
100
AcDbLine
 10
-18.575123484601313
 20
12.815592540010382
 30
0.0
 11
-18.612236280178372
 21
12.838253786050588
 31
0.0
  0
LINE
  5
1F4
330
17
100
AcDbEntity
  8
0
100
AcDbLine
 10
-18.612236280178372
 20
12.838253786050588
 30
0.0
 11
-18.675376638295802
 21
12.873831288683313
 31
0.0
  0
LINE
  5
1F5
330
17
100
AcDbEntity
  8
0
100
AcDbLine
 10
-18.675376638295802
 20
12.873831288683313
 30
0.0
 11
-18.765485812957678
 21
12.920469877129406
 31
0.0
  0
LINE
  5
1F6
330
17
100
AcDbEntity
  8
0
100
AcDbLine
 10
-18.765485812957678
 20
12.920469877129406
 30
0.0
 11
-18.883404875538236
 21
12.97626467678751
 31
0.0
  0
LINE
  5
1F7
330
17
100
AcDbEntity
  8
0
100
AcDbLine
 10
-18.883404875538236
 20
12.97626467678751
 30
0.0
 11
-19.02987240377109
 21
13.039265929036748
 31
0.0
  0
LINE
  5
1F8
330
17
100
AcDbEntity
  8
0
100
AcDbLine
 10
-19.02987240377109
 20
13.039265929036748
 30
0.0
 11
-19.205522388273153
 21
13.10748391129551
 31
0.0
  0
LINE
  5
1F9
330
17
100
AcDbEntity
  8
0
100
AcDbLine
 10
-19.205522388273153
 20
13.10748391129551
 30
0.0
 11
-19.4108823607649
 21
13.178893947909485
 31
0.0
  0
LINE
  5
1FA
330
17
100
AcDbEntity
  8
0
100
AcDbLine
 10
-19.4108823607649
 20
13.178893947909485
 30
0.0
 11
-19.646371747751193
 21
13.251441502274854
 31
0.0
  0
LINE
  5
1FB
330
17
100
AcDbEntity
  8
0
100
AcDbLine
 10
-19.646371747751193
 20
13.251441502274854
 30
0.0
 11
-19.912300453023434
 21
13.323047340451192
 31
0.0
  0
LINE
  5
1FC
330
17
100
AcDbEntity
  8
0
100
AcDbLine
 10
-19.912300453023434
 20
13.323047340451192
 30
0.0
 11
-20.208867671933913
 21
13.391612756384474
 31
0.0
  0
LINE
  5
1FD
330
17
100
AcDbEntity
  8
0
100
AcDbLine
 10
-20.208867671933913
 20
13.391612756384474
 30
0.0
 11
-20.536160939978647
 21
13.455024848742816
 31
0.0
  0
LINE
  5
1FE
330
17
100
AcDbEntity
  8
0
100
AcDbLine
 10
-20.536160939978647
 20
13.455024848742816
 30
0.0
 11
-20.894155417805298
 21
13.511161839267096
 31
0.0
  0
LINE
  5
1FF
330
17
100
AcDbEntity
  8
0
100
AcDbLine
 10
-20.894155417805298
 20
13.511161839267096
 30
0.0
 11
-21.282713414339653
 21
13.557898422455372
 31
0.0
  0
LINE
  5
200
330
17
100
AcDbEntity
  8
0
100
AcDbLine
 10
-21.282713414339653
 20
13.557898422455372
 30
0.0
 11
-21.701584149297556
 21
13.593111136334151
 31
0.0
  0
LINE
  5
201
330
17
100
AcDbEntity
  8
0
100
AcDbLine
 10
-21.701584149297556
 20
13.593111136334151
 30
0.0
 11
-22.150403755920316
 21
13.614683744021054
 31
0.0
  0
LINE
  5
202
330
17
100
AcDbEntity
  8
0
100
AcDbLine
 10
-22.150403755920316
 20
13.614683744021054
 30
0.0
 11
-22.2989353919412
 21
13.370021704770423
 31
0.0
  0
LINE
  5
203
330
17
100
AcDbEntity
  8
0
100
AcDbLine
 10
-22.2989353919412
 20
13.370021704770423
 30
0.0
 11
-22.44476472816642
 21
13.123739417454786
 31
0.0
  0
LINE
  5
204
330
17
100
AcDbEntity
  8
0
100
AcDbLine
 10
-22.44476472816642
 20
13.123739417454786
 30
0.0
 11
-22.58787409224624
 21
12.875866727829674
 31
0.0
  0
LINE
  5
205
330
17
100
AcDbEntity
  8
0
100
AcDbLine
 10
-22.58787409224624
 20
12.875866727829674
 30
0.0
 11
-22.728246141451105
 21
12.626433674383794
 31
0.0
  0
LINE
  5
206
330
17
100
AcDbEntity
  8
0
100
AcDbLine
 10
-22.728246141451105
 20
12.626433674383794
 30
0.0
 11
-22.865863864773413
 21
12.375470484698731
 31
0.0
  0
LINE
  5
207
330
17
100
AcDbEntity
  8
0
100
AcDbLine
 10
-22.865863864773413
 20
12.375470484698731
 30
0.0
 11
-22.6227716351793
 21
11.997567607490332
 31
0.0
  0
LINE
  5
208
330
17
100
AcDbEntity
  8
0
100
AcDbLine
 10
-22.6227716351793
 20
11.997567607490332
 30
0.0
 11
-22.382841162945134
 21
11.652421267054319
 31
0.0
  0
LINE
  5
209
330
17
100
AcDbEntity
  8
0
100
AcDbLine
 10
-22.382841162945134
 20
11.652421267054319
 30
0.0
 11
-22.148087096350825
 21
11.339288462806117
 31
0.0
  0
LINE
  5
20A
330
17
100
AcDbEntity
  8
0
100
AcDbLine
 10
-22.148087096350825
 20
11.339288462806117
 30
0.0
 11
-21.920473797551466
 21
11.057324645855834
 31
0.0
  0
LINE
  5
20B
330
17
100
AcDbEntity
  8
0
100
AcDbLine
 10
-21.920473797551466
 20
11.057324645855834
 30
0.0
 11
-21.701910680639653
 21
10.805586407420636
 31
0.0
  0
LINE
  5
20C
330
17
100
AcDbEntity
  8
0
100
AcDbLine
 10
-21.701910680639653
 20
10.805586407420636
 30
0.0
 11
-21.49424767916514
 21
10.583034369881101
 31
0.0
  0
LINE
  5
20D
330
17
100
AcDbEntity
  8
0
100
AcDbLine
 10
-21.49424767916514
 20
10.583034369881101
 30
0.0
 11
-21.299270851609037
 21
10.388536274608006
 31
0.0
  0
LINE
  5
20E
330
17
100
AcDbEntity
  8
0
100
AcDbLine
 10
-21.299270851609037
 20
10.388536274608006
 30
0.0
 11
-21.118698133053048
 21
10.220870260338934
 31
0.0
  0
LINE
  5
20F
330
17
100
AcDbEntity
  8
0
100
AcDbLine
 10
-21.118698133053048
 20
10.220870260338934
 30
0.0
 11
-20.954175241014294
 21
10.078728325547596
 31
0.0
  0
LINE
  5
210
330
17
100
AcDbEntity
  8
0
100
AcDbLine
 10
-20.954175241014294
 20
10.078728325547596
 30
0.0
 11
-20.80727174313226
 21
9.960719967923847
 31
0.0
  0
LINE
  5
211
330
17
100
AcDbEntity
  8
0
100
AcDbLine
 10
-20.80727174313226
 20
9.960719967923847
 30
0.0
 11
-20.67947729409776
 21
9.8653759937693
 31
0.0
  0
LINE
  5
212
330
17
100
AcDbEntity
  8
0
100
AcDbLine
 10
-20.67947729409776
 20
9.8653759937693
 30
0.0
 11
-20.5721980489045
 21
9.791152489813141
 31
0.0
  0
LINE
  5
213
330
17
100
AcDbEntity
  8
0
100
AcDbLine
 10
-20.5721980489045
 20
9.791152489813141
 30
0.0
 11
-20.486753259182603
 21
9.736434949664956
 31
0.0
  0
LINE
  5
214
330
17
100
AcDbEntity
  8
0
100
AcDbLine
 10
-20.486753259182603
 20
9.736434949664956
 30
0.0
 11
-20.42437205904074
 21
9.699542546847576
 31
0.0
  0
LINE
  5
215
330
17
100
AcDbEntity
  8
0
100
AcDbLine
 10
-20.42437205904074
 20
9.699542546847576
 30
0.0
 11
-20.38619044649998
 21
9.678732546092487
 31
0.0
  0
LINE
  5
216
330
17
100
AcDbEntity
  8
0
100
AcDbLine
 10
-20.38619044649998
 20
9.678732546092487
 30
0.0
 11
-20.373248466248413
 21
9.672204844334745
 31
0.0
  0
LINE
  5
217
330
17
100
AcDbEntity
  8
0
100
AcDbLine
 10
-20.373248466248413
 20
9.672204844334745
 30
0.0
 11
-19.422345861440682
 21
9.220763593031657
 31
0.0
  0
LINE
  5
218
330
17
100
AcDbEntity
  8
0
100
AcDbLine
 10
-19.422345861440682
 20
9.220763593031657
 30
0.0
 11
-19.574937772906292
 21
8.89223319458315
 31
0.0
  0
LINE
  5
219
330
17
100
AcDbEntity
  8
0
100
AcDbLine
 10
-19.574937772906292
 20
8.89223319458315
 30
0.0
 11
-19.721973048137716
 21
8.561178603938217
 31
0.0
  0
LINE
  5
21A
330
17
100
AcDbEntity
  8
0
100
AcDbLine
 10
-19.721973048137716
 20
8.561178603938217
 30
0.0
 11
-19.86340994899266
 21
8.227693795849442
 31
0.0
  0
LINE
  5
21B
330
17
100
AcDbEntity
  8
0
100
AcDbLine
 10
-19.86340994899266
 20
8.227693795849442
 30
0.0
 11
-19.99920832651039
 21
7.891873434922625
 31
0.0
  0
LINE
  5
21C
330
17
100
AcDbEntity
  8
0
100
AcDbLine
 10
-19.99920832651039
 20
7.891873434922625
 30
0.0
 11
-20.12932963230859
 21
7.553812848744885
 31
0.0
  0
LINE
  5
21D
330
17
100
AcDbEntity
  8
0
100
AcDbLine
 10
-20.12932963230859
 20
7.553812848744885
 30
0.0
 11
-20.2537369295259
 21
7.213608000824474
 31
0.0
  0
LINE
  5
21E
330
17
100
AcDbEntity
  8
0
100
AcDbLine
 10
-20.2537369295259
 20
7.213608000824474
 30
0.0
 11
-21.245343779737148
 21
7.56678051082822
 31
0.0
  0
LINE
  5
21F
330
17
100
AcDbEntity
  8
0
100
AcDbLine
 10
-21.245343779737148
 20
7.56678051082822
 30
0.0
 11
-21.25911092391348
 21
7.571316090647625
 31
0.0
  0
LINE
  5
220
330
17
100
AcDbEntity
  8
0
100
AcDbLine
 10
-21.25911092391348
 20
7.571316090647625
 30
0.0
 11
-21.300824293708107
 21
7.583599675141411
 31
0.0
  0
LINE
  5
221
330
17
100
AcDbEntity
  8
0
100
AcDbLine
 10
-21.300824293708107
 20
7.583599675141411
 30
0.0
 11
-21.371021331553408
 21
7.601622976573843
 31
0.0
  0
LINE
  5
222
330
17
100
AcDbEntity
  8
0
100
AcDbLine
 10
-21.371021331553408
 20
7.601622976573843
 30
0.0
 11
-21.47013106547145
 21
7.623350423114629
 31
0.0
  0
LINE
  5
223
330
17
100
AcDbEntity
  8
0
100
AcDbLine
 10
-21.47013106547145
 20
7.623350423114629
 30
0.0
 11
-21.598472890199005
 21
7.646724361900531
 31
0.0
  0
LINE
  5
224
330
17
100
AcDbEntity
  8
0
100
AcDbLine
 10
-21.598472890199005
 20
7.646724361900531
 30
0.0
 11
-21.756255582379254
 21
7.669670312740868
 31
0.0
  0
LINE
  5
225
330
17
100
AcDbEntity
  8
0
100
AcDbLine
 10
-21.756255582379254
 20
7.669670312740868
 30
0.0
 11
-21.943576551824105
 21
7.690102262360839
 31
0.0
  0
LINE
  5
226
330
17
100
AcDbEntity
  8
0
100
AcDbLine
 10
-21.943576551824105
 20
7.690102262360839
 30
0.0
 11
-22.16042133042706
 21
7.705927988999933
 31
0.0
  0
LINE
  5
227
330
17
100
AcDbEntity
  8
0
100
AcDbLine
 10
-22.16042133042706
 20
7.705927988999933
 30
0.0
 11
-22.406663299879472
 21
7.715054407123982
 31
0.0
  0
LINE
  5
228
330
17
100
AcDbEntity
  8
0
100
AcDbLine
 10
-22.406663299879472
 20
7.715054407123982
 30
0.0
 11
-22.682063658914103
 21
7.715392921967671
 31
0.0
  0
LINE
  5
229
330
17
100
AcDbEntity
  8
0
100
AcDbLine
 10
-22.682063658914103
 20
7.715392921967671
 30
0.0
 11
-22.986271630369373
 21
7.70486478360076
 31
0.0
  0
LINE
  5
22A
330
17
100
AcDbEntity
  8
0
100
AcDbLine
 10
-22.986271630369373
 20
7.70486478360076
 30
0.0
 11
-23.31882490793647
 21
7.6814064302048894
 31
0.0
  0
LINE
  5
22B
330
17
100
AcDbEntity
  8
0
100
AcDbLine
 10
-23.31882490793647
 20
7.6814064302048894
 30
0.0
 11
-23.679150342020524
 21
7.642974810259369
 31
0.0
  0
LINE
  5
22C
330
17
100
AcDbEntity
  8
0
100
AcDbLine
 10
-23.679150342020524
 20
7.642974810259369
 30
0.0
 11
-24.06656486371634
 21
7.587552673363459
 31
0.0
  0
LINE
  5
22D
330
17
100
AcDbEntity
  8
0
100
AcDbLine
 10
-24.06656486371634
 20
7.587552673363459
 30
0.0
 11
-24.480276645470436
 21
7.513153819469504
 31
0.0
  0
LINE
  5
22E
330
17
100
AcDbEntity
  8
0
100
AcDbLine
 10
-24.480276645470436
 20
7.513153819469504
 30
0.0
 11
-24.919386496574162
 21
7.417828296365281
 31
0.0
  0
LINE
  5
22F
330
17
100
AcDbEntity
  8
0
100
AcDbLine
 10
-24.919386496574162
 20
7.417828296365281
 30
0.0
 11
-24.99953384445601
 21
7.143060097738119
 31
0.0
  0
LINE
  5
230
330
17
100
AcDbEntity
  8
0
100
AcDbLine
 10
-24.99953384445601
 20
7.143060097738119
 30
0.0
 11
-25.076651620117847
 21
6.867426266312656
 31
0.0
  0
LINE
  5
231
330
17
100
AcDbEntity
  8
0
100
AcDbLine
 10
-25.076651620117847
 20
6.867426266312656
 30
0.0
 11
-25.15073047803058
 21
6.590960204815659
 31
0.0
  0
LINE
  5
232
330
17
100
AcDbEntity
  8
0
100
AcDbLine
 10
-25.15073047803058
 20
6.590960204815659
 30
0.0
 11
-25.221761440936813
 21
6.313695416827852
 31
0.0
  0
LINE
  5
233
330
17
100
AcDbEntity
  8
0
100
AcDbLine
 10
-25.221761440936813
 20
6.313695416827852
 30
0.0
 11
-25.289735900938762
 21
6.035665502723717
 31
0.0
  0
LINE
  5
234
330
17
100
AcDbEntity
  8
0
100
AcDbLine
 10
-25.289735900938762
 20
6.035665502723717
 30
0.0
 11
-24.957118376383047
 21
5.733556252534556
 31
0.0
  0
LINE
  5
235
330
17
100
AcDbEntity
  8
0
100
AcDbLine
 10
-24.957118376383047
 20
5.733556252534556
 30
0.0
 11
-24.636032890486053
 21
5.462269064172897
 31
0.0
  0
LINE
  5
236
330
17
100
AcDbEntity
  8
0
100
AcDbLine
 10
-24.636032890486053
 20
5.462269064172897
 30
0.0
 11
-24.328233141350434
 21
5.220564824841112
 31
0.0
  0
LINE
  5
237
330
17
100
AcDbEntity
  8
0
100
AcDbLine
 10
-24.328233141350434
 20
5.220564824841112
 30
0.0
 11
-24.03539797177675
 21
5.007119348617675
 31
0.0
  0
LINE
  5
238
330
17
100
AcDbEntity
  8
0
100
AcDbLine
 10
-24.03539797177675
 20
5.007119348617675
 30
0.0
 11
-23.7591275619898
 21
4.820527179862348
 31
0.0
  0
LINE
  5
239
330
17
100
AcDbEntity
  8
0
100
AcDbLine
 10
-23.7591275619898
 20
4.820527179862348
 30
0.0
 11
-23.500939799859264
 21
4.659305558854412
 31
0.0
  0
LINE
  5
23A
330
17
100
AcDbEntity
  8
0
100
AcDbLine
 10
-23.500939799859264
 20
4.659305558854412
 30
0.0
 11
-23.26226683530207
 21
4.521898541791288
 31
0.0
  0
LINE
  5
23B
330
17
100
AcDbEntity
  8
0
100
AcDbLine
 10
-23.26226683530207
 20
4.521898541791288
 30
0.0
 11
-23.044451825216345
 21
4.406681267006069
 31
0.0
  0
LINE
  5
23C
330
17
100
AcDbEntity
  8
0
100
AcDbLine
 10
-23.044451825216345
 20
4.406681267006069
 30
0.0
 11
-22.848745874948627
 21
4.311964359007393
 31
0.0
  0
LINE
  5
23D
330
17
100
AcDbEntity
  8
0
100
AcDbLine
 10
-22.848745874948627
 20
4.311964359007393
 30
0.0
 11
-22.67630518193787
 21
4.235998461704707
 31
0.0
  0
LINE
  5
23E
330
17
100
AcDbEntity
  8
0
100
AcDbLine
 10
-22.67630518193787
 20
4.235998461704707
 30
0.0
 11
-22.52818838681211
 21
4.176978891956304
 31
0.0
  0
LINE
  5
23F
330
17
100
AcDbEntity
  8
0
100
AcDbLine
 10
-22.52818838681211
 20
4.176978891956304
 30
0.0
 11
-22.405354136837044
 21
4.133050404367619
 31
0.0
  0
LINE
  5
240
330
17
100
AcDbEntity
  8
0
100
AcDbLine
 10
-22.405354136837044
 20
4.133050404367619
 30
0.0
 11
-22.308658866231312
 21
4.102312058072286
 31
0.0
  0
LINE
  5
241
330
17
100
AcDbEntity
  8
0
100
AcDbLine
 10
-22.308658866231312
 20
4.102312058072286
 30
0.0
 11
-22.238854797470648
 21
4.082822176050186
 31
0.0
  0
LINE
  5
242
330
17
100
AcDbEntity
  8
0
100
AcDbLine
 10
-22.238854797470648
 20
4.082822176050186
 30
0.0
 11
-22.196588167304153
 21
4.072603387374024
 31
0.0
  0
LINE
  5
243
330
17
100
AcDbEntity
  8
0
100
AcDbLine
 10
-22.196588167304153
 20
4.072603387374024
 30
0.0
 11
-22.182397680800182
 21
4.069647742630354
 31
0.0
  0
LINE
  5
244
330
17
100
AcDbEntity
  8
0
100
AcDbLine
 10
-22.182397680800182
 20
4.069647742630354
 30
0.0
 11
-21.147054702948697
 21
3.879700683106287
 31
0.0
  0
LINE
  5
245
330
17
100
AcDbEntity
  8
0
100
AcDbLine
 10
-21.147054702948697
 20
3.879700683106287
 30
0.0
 11
-21.209417247102554
 21
3.5228709937079365
 31
0.0
  0
LINE
  5
246
330
17
100
AcDbEntity
  8
0
100
AcDbLine
 10
-21.209417247102554
 20
3.5228709937079365
 30
0.0
 11
-21.265759183796582
 21
3.1650412851606555
 31
0.0
  0
LINE
  5
247
330
17
100
AcDbEntity
  8
0
100
AcDbLine
 10
-21.265759183796582
 20
3.1650412851606555
 30
0.0
 11
-21.316064519536923
 21
2.806313132731109
 31
0.0
  0
LINE
  5
248
330
17
100
AcDbEntity
  8
0
100
AcDbLine
 10
-21.316064519536923
 20
2.806313132731109
 30
0.0
 11
-21.36031897440839
 21
2.446788366722579
 31
0.0
  0
LINE
  5
249
330
17
100
AcDbEntity
  8
0
100
AcDbLine
 10
-21.36031897440839
 20
2.446788366722579
 30
0.0
 11
-21.398509986128005
 21
2.0865690435688964
 31
0.0
  0
LINE
  5
24A
330
17
100
AcDbEntity
  8
0
100
AcDbLine
 10
-21.398509986128005
 20
2.0865690435688964
 30
0.0
 11
-21.430626713611016
 21
1.725757416864258
 31
0.0
  0
LINE
  5
24B
330
17
100
AcDbEntity
  8
0
100
AcDbLine
 10
-21.430626713611016
 20
1.725757416864258
 30
0.0
 11
-22.47985315155085
 21
1.8102491273234167
 31
0.0
  0
LINE
  5
24C
330
17
100
AcDbEntity
  8
0
100
AcDbLine
 10
-22.47985315155085
 20
1.8102491273234167
 30
0.0
 11
-22.494325086102855
 21
1.8110669618986674
 31
0.0
  0
LINE
  5
24D
330
17
100
AcDbEntity
  8
0
100
AcDbLine
 10
-22.494325086102855
 20
1.8110669618986674
 30
0.0
 11
-22.53779633289815
 21
1.8121357788623655
 31
0.0
  0
LINE
  5
24E
330
17
100
AcDbEntity
  8
0
100
AcDbLine
 10
-22.53779633289815
 20
1.8121357788623655
 30
0.0
 11
-22.610266238348252
 21
1.8113766208867985
 31
0.0
  0
LINE
  5
24F
330
17
100
AcDbEntity
  8
0
100
AcDbLine
 10
-22.610266238348252
 20
1.8113766208867985
 30
0.0
 11
-22.71162236694253
 21
1.806712235946826
 31
0.0
  0
LINE
  5
250
330
17
100
AcDbEntity
  8
0
100
AcDbLine
 10
-22.71162236694253
 20
1.806712235946826
 30
0.0
 11
-22.841640670556796
 21
1.7960724185595272
 31
0.0
  0
LINE
  5
251
330
17
100
AcDbEntity
  8
0
100
AcDbLine
 10
-22.841640670556796
 20
1.7960724185595272
 30
0.0
 11
-22.999985896960577
 21
1.7773993393611713
 31
0.0
  0
LINE
  5
252
330
17
100
AcDbEntity
  8
0
100
AcDbLine
 10
-22.999985896960577
 20
1.7773993393611713
 30
0.0
 11
-23.186212236843087
 21
1.748652852741144
 31
0.0
  0
LINE
  5
253
330
17
100
AcDbEntity
  8
0
100
AcDbLine
 10
-23.186212236843087
 20
1.748652852741144
 30
0.0
 11
-23.399764208248403
 21
1.70781577228815
 31
0.0
  0
LINE
  5
254
330
17
100
AcDbEntity
  8
0
100
AcDbLine
 10
-23.399764208248403
 20
1.70781577228815
 30
0.0
 11
-23.639977776882844
 21
1.6528991038578453
 31
0.0
  0
LINE
  5
255
330
17
100
AcDbEntity
  8
0
100
AcDbLine
 10
-23.639977776882844
 20
1.6528991038578453
 30
0.0
 11
-23.906081710332273
 21
1.5819472261417107
 31
0.0
  0
LINE
  5
256
330
17
100
AcDbEntity
  8
0
100
AcDbLine
 10
-23.906081710332273
 20
1.5819472261417107
 30
0.0
 11
-24.197199163805095
 21
1.49304300870574
 31
0.0
  0
LINE
  5
257
330
17
100
AcDbEntity
  8
0
100
AcDbLine
 10
-24.197199163805095
 20
1.49304300870574
 30
0.0
 11
-24.512349494598634
 21
1.384312857572823
 31
0.0
  0
LINE
  5
258
330
17
100
AcDbEntity
  8
0
100
AcDbLine
 10
-24.512349494598634
 20
1.384312857572823
 30
0.0
 11
-24.8504503020732
 21
1.2539316785455317
 31
0.0
  0
LINE
  5
259
330
17
100
AcDbEntity
  8
0
100
AcDbLine
 10
-24.8504503020732
 20
1.2539316785455317
 30
0.0
 11
-25.210319689509674
 21
1.1001277486054828
 31
0.0
  0
LINE
  5
25A
330
17
100
AcDbEntity
  8
0
100
AcDbLine
 10
-25.210319689509674
 20
1.1001277486054828
 30
0.0
 11
-25.590678743824466
 21
0.9211874858817477
 31
0.0
  0
LINE
  5
25B
330
17
100
AcDbEntity
  8
0
100
AcDbLine
 10
-25.590678743824466
 20
0.9211874858817477
 30
0.0
 11
-25.990154228719764
 21
0.715460108853099
 31
0.0
  0
LINE
  5
25C
330
17
100
AcDbEntity
  8
0
100
AcDbLine
 10
-25.990154228719764
 20
0.715460108853099
 30
0.0
 11
-25.9964553791542
 21
0.4293107495099072
 31
0.0
  0
LINE
  5
25D
330
17
100
AcDbEntity
  8
0
100
AcDbLine
 10
-25.9964553791542
 20
0.4293107495099072
 30
0.0
 11
-25.999606145284442
 21
0.14310936407981836
 31
0.0
  0
LINE
  5
25E
330
17
100
AcDbEntity
  8
0
100
AcDbLine
 10
-25.999606145284442
 20
0.14310936407981836
 30
0.0
 11
-25.999606145284442
 21
-0.143109364079812
 31
0.0
  0
LINE
  5
25F
330
17
100
AcDbEntity
  8
0
100
AcDbLine
 10
-25.999606145284442
 20
-0.143109364079812
 30
0.0
 11
-25.9964553791542
 21
-0.4293107495099009
 31
0.0
  0
LINE
  5
260
330
17
100
AcDbEntity
  8
0
100
AcDbLine
 10
-25.9964553791542
 20
-0.4293107495099009
 30
0.0
 11
-25.990154228719767
 21
-0.7154601088530926
 31
0.0
  0
LINE
  5
261
330
17
100
AcDbEntity
  8
0
100
AcDbLine
 10
-25.990154228719767
 20
-0.7154601088530926
 30
0.0
 11
-25.590678743824466
 21
-0.9211874858817415
 31
0.0
  0
LINE
  5
262
330
17
100
AcDbEntity
  8
0
100
AcDbLine
 10
-25.590678743824466
 20
-0.9211874858817415
 30
0.0
 11
-25.210319689509674
 21
-1.1001277486054768
 31
0.0
  0
LINE
  5
263
330
17
100
AcDbEntity
  8
0
100
AcDbLine
 10
-25.210319689509674
 20
-1.1001277486054768
 30
0.0
 11
-24.8504503020732
 21
-1.2539316785455257
 31
0.0
  0
LINE
  5
264
330
17
100
AcDbEntity
  8
0
100
AcDbLine
 10
-24.8504503020732
 20
-1.2539316785455257
 30
0.0
 11
-24.512349494598634
 21
-1.384312857572817
 31
0.0
  0
LINE
  5
265
330
17
100
AcDbEntity
  8
0
100
AcDbLine
 10
-24.512349494598634
 20
-1.384312857572817
 30
0.0
 11
-24.197199163805095
 21
-1.493043008705734
 31
0.0
  0
LINE
  5
266
330
17
100
AcDbEntity
  8
0
100
AcDbLine
 10
-24.197199163805095
 20
-1.493043008705734
 30
0.0
 11
-23.906081710332273
 21
-1.5819472261417051
 31
0.0
  0
LINE
  5
267
330
17
100
AcDbEntity
  8
0
100
AcDbLine
 10
-23.906081710332273
 20
-1.5819472261417051
 30
0.0
 11
-23.639977776882844
 21
-1.6528991038578396
 31
0.0
  0
LINE
  5
268
330
17
100
AcDbEntity
  8
0
100
AcDbLine
 10
-23.639977776882844
 20
-1.6528991038578396
 30
0.0
 11
-23.399764208248403
 21
-1.7078157722881444
 31
0.0
  0
LINE
  5
269
330
17
100
AcDbEntity
  8
0
100
AcDbLine
 10
-23.399764208248403
 20
-1.7078157722881444
 30
0.0
 11
-23.18621223684309
 21
-1.7486528527411382
 31
0.0
  0
LINE
  5
26A
330
17
100
AcDbEntity
  8
0
100
AcDbLine
 10
-23.18621223684309
 20
-1.7486528527411382
 30
0.0
 11
-22.99998589696058
 21
-1.777399339361166
 31
0.0
  0
LINE
  5
26B
330
17
100
AcDbEntity
  8
0
100
AcDbLine
 10
-22.99998589696058
 20
-1.777399339361166
 30
0.0
 11
-22.841640670556796
 21
-1.7960724185595214
 31
0.0
  0
LINE
  5
26C
330
17
100
AcDbEntity
  8
0
100
AcDbLine
 10
-22.841640670556796
 20
-1.7960724185595214
 30
0.0
 11
-22.71162236694253
 21
-1.8067122359468202
 31
0.0
  0
LINE
  5
26D
330
17
100
AcDbEntity
  8
0
100
AcDbLine
 10
-22.71162236694253
 20
-1.8067122359468202
 30
0.0
 11
-22.610266238348252
 21
-1.8113766208867932
 31
0.0
  0
LINE
  5
26E
330
17
100
AcDbEntity
  8
0
100
AcDbLine
 10
-22.610266238348252
 20
-1.8113766208867932
 30
0.0
 11
-22.53779633289815
 21
-1.8121357788623602
 31
0.0
  0
LINE
  5
26F
330
17
100
AcDbEntity
  8
0
100
AcDbLine
 10
-22.53779633289815
 20
-1.8121357788623602
 30
0.0
 11
-22.494325086102855
 21
-1.8110669618986621
 31
0.0
  0
LINE
  5
270
330
17
100
AcDbEntity
  8
0
100
AcDbLine
 10
-22.494325086102855
 20
-1.8110669618986621
 30
0.0
 11
-22.47985315155085
 21
-1.810249127323411
 31
0.0
  0
LINE
  5
271
330
17
100
AcDbEntity
  8
0
100
AcDbLine
 10
-22.47985315155085
 20
-1.810249127323411
 30
0.0
 11
-21.430626713611016
 21
-1.7257574168642527
 31
0.0
  0
LINE
  5
272
330
17
100
AcDbEntity
  8
0
100
AcDbLine
 10
-21.430626713611016
 20
-1.7257574168642527
 30
0.0
 11
-21.398509986128005
 21
-2.0865690435688915
 31
0.0
  0
LINE
  5
273
330
17
100
AcDbEntity
  8
0
100
AcDbLine
 10
-21.398509986128005
 20
-2.0865690435688915
 30
0.0
 11
-21.36031897440839
 21
-2.4467883667225645
 31
0.0
  0
LINE
  5
274
330
17
100
AcDbEntity
  8
0
100
AcDbLine
 10
-21.36031897440839
 20
-2.4467883667225645
 30
0.0
 11
-21.316064519536926
 21
-2.8063131327311033
 31
0.0
  0
LINE
  5
275
330
17
100
AcDbEntity
  8
0
100
AcDbLine
 10
-21.316064519536926
 20
-2.8063131327311033
 30
0.0
 11
-21.265759183796582
 21
-3.165041285160651
 31
0.0
  0
LINE
  5
276
330
17
100
AcDbEntity
  8
0
100
AcDbLine
 10
-21.265759183796582
 20
-3.165041285160651
 30
0.0
 11
-21.209417247102554
 21
-3.5228709937079214
 31
0.0
  0
LINE
  5
277
330
17
100
AcDbEntity
  8
0
100
AcDbLine
 10
-21.209417247102554
 20
-3.5228709937079214
 30
0.0
 11
-21.147054702948697
 21
-3.8797006831062726
 31
0.0
  0
LINE
  5
278
330
17
100
AcDbEntity
  8
0
100
AcDbLine
 10
-21.147054702948697
 20
-3.8797006831062726
 30
0.0
 11
-22.182397680800186
 21
-4.069647742630339
 31
0.0
  0
LINE
  5
279
330
17
100
AcDbEntity
  8
0
100
AcDbLine
 10
-22.182397680800186
 20
-4.069647742630339
 30
0.0
 11
-22.196588167304153
 21
-4.072603387374009
 31
0.0
  0
LINE
  5
27A
330
17
100
AcDbEntity
  8
0
100
AcDbLine
 10
-22.196588167304153
 20
-4.072603387374009
 30
0.0
 11
-22.238854797470648
 21
-4.082822176050171
 31
0.0
  0
LINE
  5
27B
330
17
100
AcDbEntity
  8
0
100
AcDbLine
 10
-22.238854797470648
 20
-4.082822176050171
 30
0.0
 11
-22.308658866231315
 21
-4.102312058072271
 31
0.0
  0
LINE
  5
27C
330
17
100
AcDbEntity
  8
0
100
AcDbLine
 10
-22.308658866231315
 20
-4.102312058072271
 30
0.0
 11
-22.405354136837047
 21
-4.133050404367604
 31
0.0
  0
LINE
  5
27D
330
17
100
AcDbEntity
  8
0
100
AcDbLine
 10
-22.405354136837047
 20
-4.133050404367604
 30
0.0
 11
-22.52818838681211
 21
-4.1769788919562885
 31
0.0
  0
LINE
  5
27E
330
17
100
AcDbEntity
  8
0
100
AcDbLine
 10
-22.52818838681211
 20
-4.1769788919562885
 30
0.0
 11
-22.676305181937874
 21
-4.235998461704691
 31
0.0
  0
LINE
  5
27F
330
17
100
AcDbEntity
  8
0
100
AcDbLine
 10
-22.676305181937874
 20
-4.235998461704691
 30
0.0
 11
-22.84874587494863
 21
-4.311964359007378
 31
0.0
  0
LINE
  5
280
330
17
100
AcDbEntity
  8
0
100
AcDbLine
 10
-22.84874587494863
 20
-4.311964359007378
 30
0.0
 11
-23.04445182521635
 21
-4.406681267006054
 31
0.0
  0
LINE
  5
281
330
17
100
AcDbEntity
  8
0
100
AcDbLine
 10
-23.04445182521635
 20
-4.406681267006054
 30
0.0
 11
-23.26226683530207
 21
-4.521898541791272
 31
0.0
  0
LINE
  5
282
330
17
100
AcDbEntity
  8
0
100
AcDbLine
 10
-23.26226683530207
 20
-4.521898541791272
 30
0.0
 11
-23.500939799859264
 21
-4.659305558854396
 31
0.0
  0
LINE
  5
283
330
17
100
AcDbEntity
  8
0
100
AcDbLine
 10
-23.500939799859264
 20
-4.659305558854396
 30
0.0
 11
-23.759127561989803
 21
-4.820527179862332
 31
0.0
  0
LINE
  5
284
330
17
100
AcDbEntity
  8
0
100
AcDbLine
 10
-23.759127561989803
 20
-4.820527179862332
 30
0.0
 11
-24.035397971776753
 21
-5.007119348617659
 31
0.0
  0
LINE
  5
285
330
17
100
AcDbEntity
  8
0
100
AcDbLine
 10
-24.035397971776753
 20
-5.007119348617659
 30
0.0
 11
-24.328233141350438
 21
-5.220564824841095
 31
0.0
  0
LINE
  5
286
330
17
100
AcDbEntity
  8
0
100
AcDbLine
 10
-24.328233141350438
 20
-5.220564824841095
 30
0.0
 11
-24.636032890486057
 21
-5.46226906417288
 31
0.0
  0
LINE
  5
287
330
17
100
AcDbEntity
  8
0
100
AcDbLine
 10
-24.636032890486057
 20
-5.46226906417288
 30
0.0
 11
-24.95711837638305
 21
-5.733556252534539
 31
0.0
  0
LINE
  5
288
330
17
100
AcDbEntity
  8
0
100
AcDbLine
 10
-24.95711837638305
 20
-5.733556252534539
 30
0.0
 11
-25.28973590093877
 21
-6.035665502723687
 31
0.0
  0
LINE
  5
289
330
17
100
AcDbEntity
  8
0
100
AcDbLine
 10
-25.28973590093877
 20
-6.035665502723687
 30
0.0
 11
-25.221761440936817
 21
-6.3136954168278345
 31
0.0
  0
LINE
  5
28A
330
17
100
AcDbEntity
  8
0
100
AcDbLine
 10
-25.221761440936817
 20
-6.3136954168278345
 30
0.0
 11
-25.150730478030585
 21
-6.590960204815641
 31
0.0
  0
LINE
  5
28B
330
17
100
AcDbEntity
  8
0
100
AcDbLine
 10
-25.150730478030585
 20
-6.590960204815641
 30
0.0
 11
-25.07665162011785
 21
-6.867426266312639
 31
0.0
  0
LINE
  5
28C
330
17
100
AcDbEntity
  8
0
100
AcDbLine
 10
-25.07665162011785
 20
-6.867426266312639
 30
0.0
 11
-24.999533844456018
 21
-7.143060097738101
 31
0.0
  0
LINE
  5
28D
330
17
100
AcDbEntity
  8
0
100
AcDbLine
 10
-24.999533844456018
 20
-7.143060097738101
 30
0.0
 11
-24.919386496574162
 21
-7.417828296365275
 31
0.0
  0
LINE
  5
28E
330
17
100
AcDbEntity
  8
0
100
AcDbLine
 10
-24.919386496574162
 20
-7.417828296365275
 30
0.0
 11
-24.48027664547044
 21
-7.513153819469487
 31
0.0
  0
LINE
  5
28F
330
17
100
AcDbEntity
  8
0
100
AcDbLine
 10
-24.48027664547044
 20
-7.513153819469487
 30
0.0
 11
-24.066564863716348
 21
-7.587552673363442
 31
0.0
  0
LINE
  5
290
330
17
100
AcDbEntity
  8
0
100
AcDbLine
 10
-24.066564863716348
 20
-7.587552673363442
 30
0.0
 11
-23.67915034202053
 21
-7.642974810259353
 31
0.0
  0
LINE
  5
291
330
17
100
AcDbEntity
  8
0
100
AcDbLine
 10
-23.67915034202053
 20
-7.642974810259353
 30
0.0
 11
-23.318824907936474
 21
-7.681406430204873
 31
0.0
  0
LINE
  5
292
330
17
100
AcDbEntity
  8
0
100
AcDbLine
 10
-23.318824907936474
 20
-7.681406430204873
 30
0.0
 11
-22.986271630369377
 21
-7.704864783600743
 31
0.0
  0
LINE
  5
293
330
17
100
AcDbEntity
  8
0
100
AcDbLine
 10
-22.986271630369377
 20
-7.704864783600743
 30
0.0
 11
-22.68206365891411
 21
-7.715392921967655
 31
0.0
  0
LINE
  5
294
330
17
100
AcDbEntity
  8
0
100
AcDbLine
 10
-22.68206365891411
 20
-7.715392921967655
 30
0.0
 11
-22.406663299879476
 21
-7.715054407123966
 31
0.0
  0
LINE
  5
295
330
17
100
AcDbEntity
  8
0
100
AcDbLine
 10
-22.406663299879476
 20
-7.715054407123966
 30
0.0
 11
-22.160421330427067
 21
-7.7059279889999175
 31
0.0
  0
LINE
  5
296
330
17
100
AcDbEntity
  8
0
100
AcDbLine
 10
-22.160421330427067
 20
-7.7059279889999175
 30
0.0
 11
-21.94357655182411
 21
-7.690102262360824
 31
0.0
  0
LINE
  5
297
330
17
100
AcDbEntity
  8
0
100
AcDbLine
 10
-21.94357655182411
 20
-7.690102262360824
 30
0.0
 11
-21.756255582379257
 21
-7.669670312740853
 31
0.0
  0
LINE
  5
298
330
17
100
AcDbEntity
  8
0
100
AcDbLine
 10
-21.756255582379257
 20
-7.669670312740853
 30
0.0
 11
-21.598472890199012
 21
-7.646724361900516
 31
0.0
  0
LINE
  5
299
330
17
100
AcDbEntity
  8
0
100
AcDbLine
 10
-21.598472890199012
 20
-7.646724361900516
 30
0.0
 11
-21.470131065471456
 21
-7.623350423114615
 31
0.0
  0
LINE
  5
29A
330
17
100
AcDbEntity
  8
0
100
AcDbLine
 10
-21.470131065471456
 20
-7.623350423114615
 30
0.0
 11
-21.371021331553415
 21
-7.601622976573828
 31
0.0
  0
LINE
  5
29B
330
17
100
AcDbEntity
  8
0
100
AcDbLine
 10
-21.371021331553415
 20
-7.601622976573828
 30
0.0
 11
-21.30082429370811
 21
-7.5835996751413965
 31
0.0
  0
LINE
  5
29C
330
17
100
AcDbEntity
  8
0
100
AcDbLine
 10
-21.30082429370811
 20
-7.5835996751413965
 30
0.0
 11
-21.259110923913482
 21
-7.57131609064761
 31
0.0
  0
LINE
  5
29D
330
17
100
AcDbEntity
  8
0
100
AcDbLine
 10
-21.259110923913482
 20
-7.57131609064761
 30
0.0
 11
-21.245343779737155
 21
-7.566780510828207
 31
0.0
  0
LINE
  5
29E
330
17
100
AcDbEntity
  8
0
100
AcDbLine
 10
-21.245343779737155
 20
-7.566780510828207
 30
0.0
 11
-20.253736929525903
 21
-7.213608000824461
 31
0.0
  0
LINE
  5
29F
330
17
100
AcDbEntity
  8
0
100
AcDbLine
 10
-20.253736929525903
 20
-7.213608000824461
 30
0.0
 11
-20.129329632308597
 21
-7.5538128487448715
 31
0.0
  0
LINE
  5
2A0
330
17
100
AcDbEntity
  8
0
100
AcDbLine
 10
-20.129329632308597
 20
-7.5538128487448715
 30
0.0
 11
-19.9992083265104
 21
-7.89187343492261
 31
0.0
  0
LINE
  5
2A1
330
17
100
AcDbEntity
  8
0
100
AcDbLine
 10
-19.9992083265104
 20
-7.89187343492261
 30
0.0
 11
-19.86340994899267
 21
-8.227693795849419
 31
0.0
  0
LINE
  5
2A2
330
17
100
AcDbEntity
  8
0
100
AcDbLine
 10
-19.86340994899267
 20
-8.227693795849419
 30
0.0
 11
-19.72197304813772
 21
-8.561178603938203
 31
0.0
  0
LINE
  5
2A3
330
17
100
AcDbEntity
  8
0
100
AcDbLine
 10
-19.72197304813772
 20
-8.561178603938203
 30
0.0
 11
-19.5749377729063
 21
-8.892233194583136
 31
0.0
  0
LINE
  5
2A4
330
17
100
AcDbEntity
  8
0
100
AcDbLine
 10
-19.5749377729063
 20
-8.892233194583136
 30
0.0
 11
-19.422345861440686
 21
-9.220763593031645
 31
0.0
  0
LINE
  5
2A5
330
17
100
AcDbEntity
  8
0
100
AcDbLine
 10
-19.422345861440686
 20
-9.220763593031645
 30
0.0
 11
-20.373248466248416
 21
-9.67220484433473
 31
0.0
  0
LINE
  5
2A6
330
17
100
AcDbEntity
  8
0
100
AcDbLine
 10
-20.373248466248416
 20
-9.67220484433473
 30
0.0
 11
-20.386190446499985
 21
-9.678732546092473
 31
0.0
  0
LINE
  5
2A7
330
17
100
AcDbEntity
  8
0
100
AcDbLine
 10
-20.386190446499985
 20
-9.678732546092473
 30
0.0
 11
-20.424372059040746
 21
-9.699542546847564
 31
0.0
  0
LINE
  5
2A8
330
17
100
AcDbEntity
  8
0
100
AcDbLine
 10
-20.424372059040746
 20
-9.699542546847564
 30
0.0
 11
-20.48675325918261
 21
-9.736434949664941
 31
0.0
  0
LINE
  5
2A9
330
17
100
AcDbEntity
  8
0
100
AcDbLine
 10
-20.48675325918261
 20
-9.736434949664941
 30
0.0
 11
-20.57219804890451
 21
-9.791152489813127
 31
0.0
  0
LINE
  5
2AA
330
17
100
AcDbEntity
  8
0
100
AcDbLine
 10
-20.57219804890451
 20
-9.791152489813127
 30
0.0
 11
-20.67947729409777
 21
-9.865375993769286
 31
0.0
  0
LINE
  5
2AB
330
17
100
AcDbEntity
  8
0
100
AcDbLine
 10
-20.67947729409777
 20
-9.865375993769286
 30
0.0
 11
-20.80727174313227
 21
-9.960719967923833
 31
0.0
  0
LINE
  5
2AC
330
17
100
AcDbEntity
  8
0
100
AcDbLine
 10
-20.80727174313227
 20
-9.960719967923833
 30
0.0
 11
-20.954175241014305
 21
-10.078728325547582
 31
0.0
  0
LINE
  5
2AD
330
17
100
AcDbEntity
  8
0
100
AcDbLine
 10
-20.954175241014305
 20
-10.078728325547582
 30
0.0
 11
-21.11869813305306
 21
-10.22087026033892
 31
0.0
  0
LINE
  5
2AE
330
17
100
AcDbEntity
  8
0
100
AcDbLine
 10
-21.11869813305306
 20
-10.22087026033892
 30
0.0
 11
-21.299270851609045
 21
-10.38853627460799
 31
0.0
  0
LINE
  5
2AF
330
17
100
AcDbEntity
  8
0
100
AcDbLine
 10
-21.299270851609045
 20
-10.38853627460799
 30
0.0
 11
-21.49424767916515
 21
-10.583034369881085
 31
0.0
  0
LINE
  5
2B0
330
17
100
AcDbEntity
  8
0
100
AcDbLine
 10
-21.49424767916515
 20
-10.583034369881085
 30
0.0
 11
-21.701910680639656
 21
-10.805586407420622
 31
0.0
  0
LINE
  5
2B1
330
17
100
AcDbEntity
  8
0
100
AcDbLine
 10
-21.701910680639656
 20
-10.805586407420622
 30
0.0
 11
-21.920473797551477
 21
-11.057324645855818
 31
0.0
  0
LINE
  5
2B2
330
17
100
AcDbEntity
  8
0
100
AcDbLine
 10
-21.920473797551477
 20
-11.057324645855818
 30
0.0
 11
-22.148087096350835
 21
-11.339288462806103
 31
0.0
  0
LINE
  5
2B3
330
17
100
AcDbEntity
  8
0
100
AcDbLine
 10
-22.148087096350835
 20
-11.339288462806103
 30
0.0
 11
-22.38284116294514
 21
-11.652421267054303
 31
0.0
  0
LINE
  5
2B4
330
17
100
AcDbEntity
  8
0
100
AcDbLine
 10
-22.38284116294514
 20
-11.652421267054303
 30
0.0
 11
-22.62277163517931
 21
-11.997567607490316
 31
0.0
  0
LINE
  5
2B5
330
17
100
AcDbEntity
  8
0
100
AcDbLine
 10
-22.62277163517931
 20
-11.997567607490316
 30
0.0
 11
-22.865863864773416
 21
-12.375470484698726
 31
0.0
  0
LINE
  5
2B6
330
17
100
AcDbEntity
  8
0
100
AcDbLine
 10
-22.865863864773416
 20
-12.375470484698726
 30
0.0
 11
-22.728246141451113
 21
-12.626433674383778
 31
0.0
  0
LINE
  5
2B7
330
17
100
AcDbEntity
  8
0
100
AcDbLine
 10
-22.728246141451113
 20
-12.626433674383778
 30
0.0
 11
-22.587874092246246
 21
-12.87586672782966
 31
0.0
  0
LINE
  5
2B8
330
17
100
AcDbEntity
  8
0
100
AcDbLine
 10
-22.587874092246246
 20
-12.87586672782966
 30
0.0
 11
-22.44476472816643
 21
-13.123739417454772
 31
0.0
  0
LINE
  5
2B9
330
17
100
AcDbEntity
  8
0
100
AcDbLine
 10
-22.44476472816643
 20
-13.123739417454772
 30
0.0
 11
-22.29893539194121
 21
-13.370021704770409
 31
0.0
  0
LINE
  5
2BA
330
17
100
AcDbEntity
  8
0
100
AcDbLine
 10
-22.29893539194121
 20
-13.370021704770409
 30
0.0
 11
-22.15040375592033
 21
-13.614683744021027
 31
0.0
  0
LINE
  5
2BB
330
17
100
AcDbEntity
  8
0
100
AcDbLine
 10
-22.15040375592033
 20
-13.614683744021027
 30
0.0
 11
-21.701584149297563
 21
-13.593111136334137
 31
0.0
  0
LINE
  5
2BC
330
17
100
AcDbEntity
  8
0
100
AcDbLine
 10
-21.701584149297563
 20
-13.593111136334137
 30
0.0
 11
-21.28271341433966
 21
-13.557898422455358
 31
0.0
  0
LINE
  5
2BD
330
17
100
AcDbEntity
  8
0
100
AcDbLine
 10
-21.28271341433966
 20
-13.557898422455358
 30
0.0
 11
-20.894155417805308
 21
-13.511161839267084
 31
0.0
  0
LINE
  5
2BE
330
17
100
AcDbEntity
  8
0
100
AcDbLine
 10
-20.894155417805308
 20
-13.511161839267084
 30
0.0
 11
-20.536160939978657
 21
-13.455024848742802
 31
0.0
  0
LINE
  5
2BF
330
17
100
AcDbEntity
  8
0
100
AcDbLine
 10
-20.536160939978657
 20
-13.455024848742802
 30
0.0
 11
-20.208867671933923
 21
-13.39161275638446
 31
0.0
  0
LINE
  5
2C0
330
17
100
AcDbEntity
  8
0
100
AcDbLine
 10
-20.208867671933923
 20
-13.39161275638446
 30
0.0
 11
-19.91230045302344
 21
-13.323047340451176
 31
0.0
  0
LINE
  5
2C1
330
17
100
AcDbEntity
  8
0
100
AcDbLine
 10
-19.91230045302344
 20
-13.323047340451176
 30
0.0
 11
-19.646371747751203
 21
-13.251441502274842
 31
0.0
  0
LINE
  5
2C2
330
17
100
AcDbEntity
  8
0
100
AcDbLine
 10
-19.646371747751203
 20
-13.251441502274842
 30
0.0
 11
-19.41088236076491
 21
-13.178893947909472
 31
0.0
  0
LINE
  5
2C3
330
17
100
AcDbEntity
  8
0
100
AcDbLine
 10
-19.41088236076491
 20
-13.178893947909472
 30
0.0
 11
-19.20552238827316
 21
-13.107483911295498
 31
0.0
  0
LINE
  5
2C4
330
17
100
AcDbEntity
  8
0
100
AcDbLine
 10
-19.20552238827316
 20
-13.107483911295498
 30
0.0
 11
-19.029872403771098
 21
-13.039265929036736
 31
0.0
  0
LINE
  5
2C5
330
17
100
AcDbEntity
  8
0
100
AcDbLine
 10
-19.029872403771098
 20
-13.039265929036736
 30
0.0
 11
-18.883404875538247
 21
-12.976264676787498
 31
0.0
  0
LINE
  5
2C6
330
17
100
AcDbEntity
  8
0
100
AcDbLine
 10
-18.883404875538247
 20
-12.976264676787498
 30
0.0
 11
-18.76548581295769
 21
-12.920469877129394
 31
0.0
  0
LINE
  5
2C7
330
17
100
AcDbEntity
  8
0
100
AcDbLine
 10
-18.76548581295769
 20
-12.920469877129394
 30
0.0
 11
-18.675376638295813
 21
-12.8738312886833
 31
0.0
  0
LINE
  5
2C8
330
17
100
AcDbEntity
  8
0
100
AcDbLine
 10
-18.675376638295813
 20
-12.8738312886833
 30
0.0
 11
-18.612236280178383
 21
-12.838253786050576
 31
0.0
  0
LINE
  5
2C9
330
17
100
AcDbEntity
  8
0
100
AcDbLine
 10
-18.612236280178383
 20
-12.838253786050576
 30
0.0
 11
-18.57512348460132
 21
-12.815592540010368
 31
0.0
  0
LINE
  5
2CA
330
17
100
AcDbEntity
  8
0
100
AcDbLine
 10
-18.57512348460132
 20
-12.815592540010368
 30
0.0
 11
-18.562999338925003
 21
-12.807648307216104
 31
0.0
  0
LINE
  5
2CB
330
17
100
AcDbEntity
  8
0
100
AcDbLine
 10
-18.562999338925003
 20
-12.807648307216104
 30
0.0
 11
-17.69658844457643
 21
-12.209863120579357
 31
0.0
  0
LINE
  5
2CC
330
17
100
AcDbEntity
  8
0
100
AcDbLine
 10
-17.69658844457643
 20
-12.209863120579357
 30
0.0
 11
-17.488368729337406
 21
-12.506276791544858
 31
0.0
  0
LINE
  5
2CD
330
17
100
AcDbEntity
  8
0
100
AcDbLine
 10
-17.488368729337406
 20
-12.506276791544858
 30
0.0
 11
-17.27518468141515
 21
-12.79914037047017
 31
0.0
  0
LINE
  5
2CE
330
17
100
AcDbEntity
  8
0
100
AcDbLine
 10
-17.27518468141515
 20
-12.79914037047017
 30
0.0
 11
-17.05709681626156
 21
-13.088370723687486
 31
0.0
  0
LINE
  5
2CF
330
17
100
AcDbEntity
  8
0
100
AcDbLine
 10
-17.05709681626156
 20
-13.088370723687486
 30
0.0
 11
-16.834167041349744
 21
-13.373885748873958
 31
0.0
  0
LINE
  5
2D0
330
17
100
AcDbEntity
  8
0
100
AcDbLine
 10
-16.834167041349744
 20
-13.373885748873958
 30
0.0
 11
-16.606458638600667
 21
-13.655604398357664
 31
0.0
  0
LINE
  5
2D1
330
17
100
AcDbEntity
  8
0
100
AcDbLine
 10
-16.606458638600667
 20
-13.655604398357664
 30
0.0
 11
-16.374036246419625
 21
-13.933446702124218
 31
0.0
  0
LINE
  5
2D2
330
17
100
AcDbEntity
  8
0
100
AcDbLine
 10
-16.374036246419625
 20
-13.933446702124218
 30
0.0
 11
-17.17569603710681
 21
-14.615617169971959
 31
0.0
  0
LINE
  5
2D3
330
17
100
AcDbEntity
  8
0
100
AcDbLine
 10
-17.17569603710681
 20
-14.615617169971959
 30
0.0
 11
-17.18650753653947
 21
-14.625272076656524
 31
0.0
  0
LINE
  5
2D4
330
17
100
AcDbEntity
  8
0
100
AcDbLine
 10
-17.18650753653947
 20
-14.625272076656524
 30
0.0
 11
-17.21800211765794
 21
-14.655255122329232
 31
0.0
  0
LINE
  5
2D5
330
17
100
AcDbEntity
  8
0
100
AcDbLine
 10
-17.21800211765794
 20
-14.655255122329232
 30
0.0
 11
-17.26870927348114
 21
-14.707035889657464
 31
0.0
  0
LINE
  5
2D6
330
17
100
AcDbEntity
  8
0
100
AcDbLine
 10
-17.26870927348114
 20
-14.707035889657464
 30
0.0
 11
-17.33708066110385
 21
-14.782003713722412
 31
0.0
  0
LINE
  5
2D7
330
17
100
AcDbEntity
  8
0
100
AcDbLine
 10
-17.33708066110385
 20
-14.782003713722412
 30
0.0
 11
-17.42149399824272
 21
-14.881464024911574
 31
0.0
  0
LINE
  5
2D8
330
17
100
AcDbEntity
  8
0
100
AcDbLine
 10
-17.42149399824272
 20
-14.881464024911574
 30
0.0
 11
-17.520257120674565
 21
-15.006634869197
 31
0.0
  0
LINE
  5
2D9
330
17
100
AcDbEntity
  8
0
100
AcDbLine
 10
-17.520257120674565
 20
-15.006634869197
 30
0.0
 11
-17.63161219281673
 21
-15.158643612587785
 31
0.0
  0
LINE
  5
2DA
330
17
100
AcDbEntity
  8
0
100
AcDbLine
 10
-17.63161219281673
 20
-15.158643612587785
 30
0.0
 11
-17.75374006342101
 21
-15.33852383621641
 31
0.0
  0
LINE
  5
2DB
330
17
100
AcDbEntity
  8
0
100
AcDbLine
 10
-17.75374006342101
 20
-15.33852383621641
 30
0.0
 11
-17.8847647580882
 21
-15.547212428178083
 31
0.0
  0
LINE
  5
2DC
330
17
100
AcDbEntity
  8
0
100
AcDbLine
 10
-17.8847647580882
 20
-15.547212428178083
 30
0.0
 11
-18.02275810005971
 21
-15.785546877891589
 31
0.0
  0
LINE
  5
2DD
330
17
100
AcDbEntity
  8
0
100
AcDbLine
 10
-18.02275810005971
 20
-15.785546877891589
 30
0.0
 11
-18.16574445050704
 21
-16.054262778389035
 31
0.0
  0
LINE
  5
2DE
330
17
100
AcDbEntity
  8
0
100
AcDbLine
 10
-18.16574445050704
 20
-16.054262778389035
 30
0.0
 11
-18.311705559318813
 21
-16.353991541571855
 31
0.0
  0
LINE
  5
2DF
330
17
100
AcDbEntity
  8
0
100
AcDbLine
 10
-18.311705559318813
 20
-16.353991541571855
 30
0.0
 11
-18.458585517179433
 21
-16.685258331091063
 31
0.0
  0
LINE
  5
2E0
330
17
100
AcDbEntity
  8
0
100
AcDbLine
 10
-18.458585517179433
 20
-16.685258331091063
 30
0.0
 11
-18.60429579954346
 21
-17.04848021712259
 31
0.0
  0
LINE
  5
2E1
330
17
100
AcDbEntity
  8
0
100
AcDbLine
 10
-18.60429579954346
 20
-17.04848021712259
 30
0.0
 11
-18.7467203929359
 21
-17.44396455691354
 31
0.0
  0
LINE
  5
2E2
330
17
100
AcDbEntity
  8
0
100
AcDbLine
 10
-18.7467203929359
 20
-17.44396455691354
 30
0.0
 11
-18.883720993850464
 21
-17.87190760457348
 31
0.0
  0
LINE
  5
2E3
330
17
100
AcDbEntity
  8
0
100
AcDbLine
 10
-18.883720993850464
 20
-17.87190760457348
 30
0.0
 11
-18.685838427628177
 21
-18.07870134319869
 31
0.0
  0
LINE
  5
2E4
330
17
100
AcDbEntity
  8
0
100
AcDbLine
 10
-18.685838427628177
 20
-18.07870134319869
 30
0.0
 11
-18.485691415302206
 21
-18.283304211717923
 31
0.0
  0
LINE
  5
2E5
330
17
100
AcDbEntity
  8
0
100
AcDbLine
 10
-18.485691415302206
 20
-18.283304211717923
 30
0.0
 11
-18.28330421171794
 21
-18.485691415302185
 31
0.0
  0
LINE
  5
2E6
330
17
100
AcDbEntity
  8
0
100
AcDbLine
 10
-18.28330421171794
 20
-18.485691415302185
 30
0.0
 11
-18.078701343198713
 21
-18.685838427628156
 31
0.0
  0
LINE
  5
2E7
330
17
100
AcDbEntity
  8
0
100
AcDbLine
 10
-18.078701343198713
 20
-18.685838427628156
 30
0.0
 11
-17.8719076045735
 21
-18.88372099385044
 31
0.0
  0
LINE
  5
2E8
330
17
100
AcDbEntity
  8
0
100
AcDbLine
 10
-17.8719076045735
 20
-18.88372099385044
 30
0.0
 11
-17.443964556913564
 21
-18.746720392935877
 31
0.0
  0
LINE
  5
2E9
330
17
100
AcDbEntity
  8
0
100
AcDbLine
 10
-17.443964556913564
 20
-18.746720392935877
 30
0.0
 11
-17.048480217122613
 21
-18.60429579954344
 31
0.0
  0
LINE
  5
2EA
330
17
100
AcDbEntity
  8
0
100
AcDbLine
 10
-17.048480217122613
 20
-18.60429579954344
 30
0.0
 11
-16.685258331091084
 21
-18.45858551717941
 31
0.0
  0
LINE
  5
2EB
330
17
100
AcDbEntity
  8
0
100
AcDbLine
 10
-16.685258331091084
 20
-18.45858551717941
 30
0.0
 11
-16.35399154157188
 21
-18.311705559318792
 31
0.0
  0
LINE
  5
2EC
330
17
100
AcDbEntity
  8
0
100
AcDbLine
 10
-16.35399154157188
 20
-18.311705559318792
 30
0.0
 11
-16.054262778389056
 21
-18.16574445050702
 31
0.0
  0
LINE
  5
2ED
330
17
100
AcDbEntity
  8
0
100
AcDbLine
 10
-16.054262778389056
 20
-18.16574445050702
 30
0.0
 11
-15.78554687789161
 21
-18.02275810005969
 31
0.0
  0
LINE
  5
2EE
330
17
100
AcDbEntity
  8
0
100
AcDbLine
 10
-15.78554687789161
 20
-18.02275810005969
 30
0.0
 11
-15.547212428178106
 21
-17.88476475808818
 31
0.0
  0
LINE
  5
2EF
330
17
100
AcDbEntity
  8
0
100
AcDbLine
 10
-15.547212428178106
 20
-17.88476475808818
 30
0.0
 11
-15.338523836216432
 21
-17.75374006342099
 31
0.0
  0
LINE
  5
2F0
330
17
100
AcDbEntity
  8
0
100
AcDbLine
 10
-15.338523836216432
 20
-17.75374006342099
 30
0.0
 11
-15.158643612587813
 21
-17.631612192816704
 31
0.0
  0
LINE
  5
2F1
330
17
100
AcDbEntity
  8
0
100
AcDbLine
 10
-15.158643612587813
 20
-17.631612192816704
 30
0.0
 11
-15.00663486919703
 21
-17.52025712067454
 31
0.0
  0
LINE
  5
2F2
330
17
100
AcDbEntity
  8
0
100
AcDbLine
 10
-15.00663486919703
 20
-17.52025712067454
 30
0.0
 11
-14.881464024911597
 21
-17.421493998242703
 31
0.0
  0
LINE
  5
2F3
330
17
100
AcDbEntity
  8
0
100
AcDbLine
 10
-14.881464024911597
 20
-17.421493998242703
 30
0.0
 11
-14.78200371372244
 21
-17.337080661103823
 31
0.0
  0
LINE
  5
2F4
330
17
100
AcDbEntity
  8
0
100
AcDbLine
 10
-14.78200371372244
 20
-17.337080661103823
 30
0.0
 11
-14.707035889657492
 21
-17.268709273481115
 31
0.0
  0
LINE
  5
2F5
330
17
100
AcDbEntity
  8
0
100
AcDbLine
 10
-14.707035889657492
 20
-17.268709273481115
 30
0.0
 11
-14.65525512232926
 21
-17.218002117657914
 31
0.0
  0
LINE
  5
2F6
330
17
100
AcDbEntity
  8
0
100
AcDbLine
 10
-14.65525512232926
 20
-17.218002117657914
 30
0.0
 11
-14.625272076656536
 21
-17.18650753653946
 31
0.0
  0
LINE
  5
2F7
330
17
100
AcDbEntity
  8
0
100
AcDbLine
 10
-14.625272076656536
 20
-17.18650753653946
 30
0.0
 11
-14.61561716997198
 21
-17.175696037106793
 31
0.0
  0
LINE
  5
2F8
330
17
100
AcDbEntity
  8
0
100
AcDbLine
 10
-14.61561716997198
 20
-17.175696037106793
 30
0.0
 11
-13.933446702124238
 21
-16.37403624641961
 31
0.0
  0
LINE
  5
2F9
330
17
100
AcDbEntity
  8
0
100
AcDbLine
 10
-13.933446702124238
 20
-16.37403624641961
 30
0.0
 11
-13.655604398357685
 21
-16.606458638600653
 31
0.0
  0
LINE
  5
2FA
330
17
100
AcDbEntity
  8
0
100
AcDbLine
 10
-13.655604398357685
 20
-16.606458638600653
 30
0.0
 11
-13.37388574887397
 21
-16.834167041349737
 31
0.0
  0
LINE
  5
2FB
330
17
100
AcDbEntity
  8
0
100
AcDbLine
 10
-13.37388574887397
 20
-16.834167041349737
 30
0.0
 11
-13.088370723687499
 21
-17.057096816261552
 31
0.0
  0
LINE
  5
2FC
330
17
100
AcDbEntity
  8
0
100
AcDbLine
 10
-13.088370723687499
 20
-17.057096816261552
 30
0.0
 11
-12.799140370470182
 21
-17.275184681415144
 31
0.0
  0
LINE
  5
2FD
330
17
100
AcDbEntity
  8
0
100
AcDbLine
 10
-12.799140370470182
 20
-17.275184681415144
 30
0.0
 11
-12.506276791544865
 21
-17.488368729337402
 31
0.0
  0
LINE
  5
2FE
330
17
100
AcDbEntity
  8
0
100
AcDbLine
 10
-12.506276791544865
 20
-17.488368729337402
 30
0.0
 11
-12.209863120579366
 21
-17.696588444576427
 31
0.0
  0
LINE
  5
2FF
330
17
100
AcDbEntity
  8
0
100
AcDbLine
 10
-12.209863120579366
 20
-17.696588444576427
 30
0.0
 11
-12.807648307216112
 21
-18.562999338925
 31
0.0
  0
LINE
  5
300
330
17
100
AcDbEntity
  8
0
100
AcDbLine
 10
-12.807648307216112
 20
-18.562999338925
 30
0.0
 11
-12.815592540010384
 21
-18.575123484601313
 31
0.0
  0
LINE
  5
301
330
17
100
AcDbEntity
  8
0
100
AcDbLine
 10
-12.815592540010384
 20
-18.575123484601313
 30
0.0
 11
-12.838253786050574
 21
-18.612236280178383
 31
0.0
  0
LINE
  5
302
330
17
100
AcDbEntity
  8
0
100
AcDbLine
 10
-12.838253786050574
 20
-18.612236280178383
 30
0.0
 11
-12.873831288683297
 21
-18.675376638295816
 31
0.0
  0
LINE
  5
303
330
17
100
AcDbEntity
  8
0
100
AcDbLine
 10
-12.873831288683297
 20
-18.675376638295816
 30
0.0
 11
-12.920469877129392
 21
-18.76548581295769
 31
0.0
  0
LINE
  5
304
330
17
100
AcDbEntity
  8
0
100
AcDbLine
 10
-12.920469877129392
 20
-18.76548581295769
 30
0.0
 11
-12.976264676787501
 21
-18.883404875538243
 31
0.0
  0
LINE
  5
305
330
17
100
AcDbEntity
  8
0
100
AcDbLine
 10
-12.976264676787501
 20
-18.883404875538243
 30
0.0
 11
-13.039265929036732
 21
-19.0298724037711
 31
0.0
  0
LINE
  5
306
330
17
100
AcDbEntity
  8
0
100
AcDbLine
 10
-13.039265929036732
 20
-19.0298724037711
 30
0.0
 11
-13.107483911295494
 21
-19.205522388273163
 31
0.0
  0
LINE
  5
307
330
17
100
AcDbEntity
  8
0
100
AcDbLine
 10
-13.107483911295494
 20
-19.205522388273163
 30
0.0
 11
-13.17889394790948
 21
-19.410882360764905
 31
0.0
  0
LINE
  5
308
330
17
100
AcDbEntity
  8
0
100
AcDbLine
 10
-13.17889394790948
 20
-19.410882360764905
 30
0.0
 11
-13.251441502274847
 21
-19.6463717477512
 31
0.0
  0
LINE
  5
309
330
17
100
AcDbEntity
  8
0
100
AcDbLine
 10
-13.251441502274847
 20
-19.6463717477512
 30
0.0
 11
-13.323047340451184
 21
-19.912300453023438
 31
0.0
  0
LINE
  5
30A
330
17
100
AcDbEntity
  8
0
100
AcDbLine
 10
-13.323047340451184
 20
-19.912300453023438
 30
0.0
 11
-13.391612756384465
 21
-20.20886767193392
 31
0.0
  0
LINE
  5
30B
330
17
100
AcDbEntity
  8
0
100
AcDbLine
 10
-13.391612756384465
 20
-20.20886767193392
 30
0.0
 11
-13.455024848742807
 21
-20.53616093997865
 31
0.0
  0
LINE
  5
30C
330
17
100
AcDbEntity
  8
0
100
AcDbLine
 10
-13.455024848742807
 20
-20.53616093997865
 30
0.0
 11
-13.51116183926708
 21
-20.894155417805308
 31
0.0
  0
LINE
  5
30D
330
17
100
AcDbEntity
  8
0
100
AcDbLine
 10
-13.51116183926708
 20
-20.894155417805308
 30
0.0
 11
-13.557898422455372
 21
-21.282713414339653
 31
0.0
  0
LINE
  5
30E
330
17
100
AcDbEntity
  8
0
100
AcDbLine
 10
-13.557898422455372
 20
-21.282713414339653
 30
0.0
 11
-13.593111136334134
 21
-21.701584149297567
 31
0.0
  0
LINE
  5
30F
330
17
100
AcDbEntity
  8
0
100
AcDbLine
 10
-13.593111136334134
 20
-21.701584149297567
 30
0.0
 11
-13.614683744021033
 21
-22.15040375592033
 31
0.0
  0
LINE
  5
310
330
17
100
AcDbEntity
  8
0
100
AcDbLine
 10
-13.614683744021033
 20
-22.15040375592033
 30
0.0
 11
-13.370021704770423
 21
-22.298935391941196
 31
0.0
  0
LINE
  5
311
330
17
100
AcDbEntity
  8
0
100
AcDbLine
 10
-13.370021704770423
 20
-22.298935391941196
 30
0.0
 11
-13.123739417454777
 21
-22.444764728166426
 31
0.0
  0
LINE
  5
312
330
17
100
AcDbEntity
  8
0
100
AcDbLine
 10
-13.123739417454777
 20
-22.444764728166426
 30
0.0
 11
-12.875866727829687
 21
-22.58787409224623
 31
0.0
  0
LINE
  5
313
330
17
100
AcDbEntity
  8
0
100
AcDbLine
 10
-12.875866727829687
 20
-22.58787409224623
 30
0.0
 11
-12.626433674383795
 21
-22.728246141451105
 31
0.0
  0
LINE
  5
314
330
17
100
AcDbEntity
  8
0
100
AcDbLine
 10
-12.626433674383795
 20
-22.728246141451105
 30
0.0
 11
-12.375470484698752
 21
-22.865863864773402
 31
0.0
  0
LINE
  5
315
330
17
100
AcDbEntity
  8
0
100
AcDbLine
 10
-12.375470484698752
 20
-22.865863864773402
 30
0.0
 11
-11.997567607490353
 21
-22.62277163517929
 31
0.0
  0
LINE
  5
316
330
17
100
AcDbEntity
  8
0
100
AcDbLine
 10
-11.997567607490353
 20
-22.62277163517929
 30
0.0
 11
-11.65242126705432
 21
-22.38284116294513
 31
0.0
  0
LINE
  5
317
330
17
100
AcDbEntity
  8
0
100
AcDbLine
 10
-11.65242126705432
 20
-22.38284116294513
 30
0.0
 11
-11.339288462806138
 21
-22.148087096350817
 31
0.0
  0
LINE
  5
318
330
17
100
AcDbEntity
  8
0
100
AcDbLine
 10
-11.339288462806138
 20
-22.148087096350817
 30
0.0
 11
-11.057324645855847
 21
-21.920473797551463
 31
0.0
  0
LINE
  5
319
330
17
100
AcDbEntity
  8
0
100
AcDbLine
 10
-11.057324645855847
 20
-21.920473797551463
 30
0.0
 11
-10.805586407420646
 21
-21.701910680639646
 31
0.0
  0
LINE
  5
31A
330
17
100
AcDbEntity
  8
0
100
AcDbLine
 10
-10.805586407420646
 20
-21.701910680639646
 30
0.0
 11
-10.583034369881112
 21
-21.494247679165138
 31
0.0
  0
LINE
  5
31B
330
17
100
AcDbEntity
  8
0
100
AcDbLine
 10
-10.583034369881112
 20
-21.494247679165138
 30
0.0
 11
-10.388536274608017
 21
-21.29927085160903
 31
0.0
  0
LINE
  5
31C
330
17
100
AcDbEntity
  8
0
100
AcDbLine
 10
-10.388536274608017
 20
-21.29927085160903
 30
0.0
 11
-10.220870260338945
 21
-21.118698133053044
 31
0.0
  0
LINE
  5
31D
330
17
100
AcDbEntity
  8
0
100
AcDbLine
 10
-10.220870260338945
 20
-21.118698133053044
 30
0.0
 11
-10.078728325547615
 21
-20.954175241014287
 31
0.0
  0
LINE
  5
31E
330
17
100
AcDbEntity
  8
0
100
AcDbLine
 10
-10.078728325547615
 20
-20.954175241014287
 30
0.0
 11
-9.960719967923866
 21
-20.80727174313225
 31
0.0
  0
LINE
  5
31F
330
17
100
AcDbEntity
  8
0
100
AcDbLine
 10
-9.960719967923866
 20
-20.80727174313225
 30
0.0
 11
-9.86537599376931
 21
-20.679477294097758
 31
0.0
  0
LINE
  5
320
330
17
100
AcDbEntity
  8
0
100
AcDbLine
 10
-9.86537599376931
 20
-20.679477294097758
 30
0.0
 11
-9.79115248981316
 21
-20.572198048904493
 31
0.0
  0
LINE
  5
321
330
17
100
AcDbEntity
  8
0
100
AcDbLine
 10
-9.79115248981316
 20
-20.572198048904493
 30
0.0
 11
-9.736434949664975
 21
-20.486753259182592
 31
0.0
  0
LINE
  5
322
330
17
100
AcDbEntity
  8
0
100
AcDbLine
 10
-9.736434949664975
 20
-20.486753259182592
 30
0.0
 11
-9.699542546847596
 21
-20.42437205904073
 31
0.0
  0
LINE
  5
323
330
17
100
AcDbEntity
  8
0
100
AcDbLine
 10
-9.699542546847596
 20
-20.42437205904073
 30
0.0
 11
-9.678732546092489
 21
-20.386190446499977
 31
0.0
  0
LINE
  5
324
330
17
100
AcDbEntity
  8
0
100
AcDbLine
 10
-9.678732546092489
 20
-20.386190446499977
 30
0.0
 11
-9.672204844334754
 21
-20.373248466248405
 31
0.0
  0
LINE
  5
325
330
17
100
AcDbEntity
  8
0
100
AcDbLine
 10
-9.672204844334754
 20
-20.373248466248405
 30
0.0
 11
-9.220763593031668
 21
-19.422345861440675
 31
0.0
  0
LINE
  5
326
330
17
100
AcDbEntity
  8
0
100
AcDbLine
 10
-9.220763593031668
 20
-19.422345861440675
 30
0.0
 11
-8.89223319458316
 21
-19.57493777290629
 31
0.0
  0
LINE
  5
327
330
17
100
AcDbEntity
  8
0
100
AcDbLine
 10
-8.89223319458316
 20
-19.57493777290629
 30
0.0
 11
-8.561178603938226
 21
-19.721973048137713
 31
0.0
  0
LINE
  5
328
330
17
100
AcDbEntity
  8
0
100
AcDbLine
 10
-8.561178603938226
 20
-19.721973048137713
 30
0.0
 11
-8.227693795849442
 21
-19.86340994899266
 31
0.0
  0
LINE
  5
329
330
17
100
AcDbEntity
  8
0
100
AcDbLine
 10
-8.227693795849442
 20
-19.86340994899266
 30
0.0
 11
-7.891873434922626
 21
-19.99920832651039
 31
0.0
  0
LINE
  5
32A
330
17
100
AcDbEntity
  8
0
100
AcDbLine
 10
-7.891873434922626
 20
-19.99920832651039
 30
0.0
 11
-7.553812848744887
 21
-20.12932963230859
 31
0.0
  0
LINE
  5
32B
330
17
100
AcDbEntity
  8
0
100
AcDbLine
 10
-7.553812848744887
 20
-20.12932963230859
 30
0.0
 11
-7.213608000824475
 21
-20.2537369295259
 31
0.0
  0
LINE
  5
32C
330
17
100
AcDbEntity
  8
0
100
AcDbLine
 10
-7.213608000824475
 20
-20.2537369295259
 30
0.0
 11
-7.566780510828222
 21
-21.245343779737148
 31
0.0
  0
LINE
  5
32D
330
17
100
AcDbEntity
  8
0
100
AcDbLine
 10
-7.566780510828222
 20
-21.245343779737148
 30
0.0
 11
-7.5713160906476356
 21
-21.25911092391347
 31
0.0
  0
LINE
  5
32E
330
17
100
AcDbEntity
  8
0
100
AcDbLine
 10
-7.5713160906476356
 20
-21.25911092391347
 30
0.0
 11
-7.583599675141403
 21
-21.30082429370811
 31
0.0
  0
LINE
  5
32F
330
17
100
AcDbEntity
  8
0
100
AcDbLine
 10
-7.583599675141403
 20
-21.30082429370811
 30
0.0
 11
-7.601622976573836
 21
-21.37102133155341
 31
0.0
  0
LINE
  5
330
330
17
100
AcDbEntity
  8
0
100
AcDbLine
 10
-7.601622976573836
 20
-21.37102133155341
 30
0.0
 11
-7.623350423114622
 21
-21.470131065471456
 31
0.0
  0
LINE
  5
331
330
17
100
AcDbEntity
  8
0
100
AcDbLine
 10
-7.623350423114622
 20
-21.470131065471456
 30
0.0
 11
-7.6467243619005325
 21
-21.598472890199005
 31
0.0
  0
LINE
  5
332
330
17
100
AcDbEntity
  8
0
100
AcDbLine
 10
-7.6467243619005325
 20
-21.598472890199005
 30
0.0
 11
-7.669670312740861
 21
-21.756255582379257
 31
0.0
  0
LINE
  5
333
330
17
100
AcDbEntity
  8
0
100
AcDbLine
 10
-7.669670312740861
 20
-21.756255582379257
 30
0.0
 11
-7.69010226236083
 21
-21.94357655182411
 31
0.0
  0
LINE
  5
334
330
17
100
AcDbEntity
  8
0
100
AcDbLine
 10
-7.69010226236083
 20
-21.94357655182411
 30
0.0
 11
-7.705927988999934
 21
-22.16042133042706
 31
0.0
  0
LINE
  5
335
330
17
100
AcDbEntity
  8
0
100
AcDbLine
 10
-7.705927988999934
 20
-22.16042133042706
 30
0.0
 11
-7.715054407123983
 21
-22.40666329987947
 31
0.0
  0
LINE
  5
336
330
17
100
AcDbEntity
  8
0
100
AcDbLine
 10
-7.715054407123983
 20
-22.40666329987947
 30
0.0
 11
-7.7153929219676725
 21
-22.682063658914103
 31
0.0
  0
LINE
  5
337
330
17
100
AcDbEntity
  8
0
100
AcDbLine
 10
-7.7153929219676725
 20
-22.682063658914103
 30
0.0
 11
-7.704864783600761
 21
-22.986271630369373
 31
0.0
  0
LINE
  5
338
330
17
100
AcDbEntity
  8
0
100
AcDbLine
 10
-7.704864783600761
 20
-22.986271630369373
 30
0.0
 11
-7.68140643020489
 21
-23.31882490793647
 31
0.0
  0
LINE
  5
339
330
17
100
AcDbEntity
  8
0
100
AcDbLine
 10
-7.68140643020489
 20
-23.31882490793647
 30
0.0
 11
-7.642974810259359
 21
-23.679150342020527
 31
0.0
  0
LINE
  5
33A
330
17
100
AcDbEntity
  8
0
100
AcDbLine
 10
-7.642974810259359
 20
-23.679150342020527
 30
0.0
 11
-7.5875526733634695
 21
-24.066564863716334
 31
0.0
  0
LINE
  5
33B
330
17
100
AcDbEntity
  8
0
100
AcDbLine
 10
-7.5875526733634695
 20
-24.066564863716334
 30
0.0
 11
-7.513153819469494
 21
-24.48027664547044
 31
0.0
  0
LINE
  5
33C
330
17
100
AcDbEntity
  8
0
100
AcDbLine
 10
-7.513153819469494
 20
-24.48027664547044
 30
0.0
 11
-7.417828296365282
 21
-24.91938649657416
 31
0.0
  0
LINE
  5
33D
330
17
100
AcDbEntity
  8
0
100
AcDbLine
 10
-7.417828296365282
 20
-24.91938649657416
 30
0.0
 11
-7.1430600977381316
 21
-24.999533844456007
 31
0.0
  0
LINE
  5
33E
330
17
100
AcDbEntity
  8
0
100
AcDbLine
 10
-7.1430600977381316
 20
-24.999533844456007
 30
0.0
 11
-6.867426266312657
 21
-25.076651620117847
 31
0.0
  0
LINE
  5
33F
330
17
100
AcDbEntity
  8
0
100
AcDbLine
 10
-6.867426266312657
 20
-25.076651620117847
 30
0.0
 11
-6.590960204815683
 21
-25.150730478030574
 31
0.0
  0
LINE
  5
340
330
17
100
AcDbEntity
  8
0
100
AcDbLine
 10
-6.590960204815683
 20
-25.150730478030574
 30
0.0
 11
-6.313695416827865
 21
-25.22176144093681
 31
0.0
  0
LINE
  5
341
330
17
100
AcDbEntity
  8
0
100
AcDbLine
 10
-6.313695416827865
 20
-25.22176144093681
 30
0.0
 11
-6.035665502723741
 21
-25.28973590093876
 31
0.0
  0
LINE
  5
342
330
17
100
AcDbEntity
  8
0
100
AcDbLine
 10
-6.035665502723741
 20
-25.28973590093876
 30
0.0
 11
-5.733556252534592
 21
-24.957118376383036
 31
0.0
  0
LINE
  5
343
330
17
100
AcDbEntity
  8
0
100
AcDbLine
 10
-5.733556252534592
 20
-24.957118376383036
 30
0.0
 11
-5.46226906417291
 21
-24.63603289048605
 31
0.0
  0
LINE
  5
344
330
17
100
AcDbEntity
  8
0
100
AcDbLine
 10
-5.46226906417291
 20
-24.63603289048605
 30
0.0
 11
-5.220564824841146
 21
-24.328233141350427
 31
0.0
  0
LINE
  5
345
330
17
100
AcDbEntity
  8
0
100
AcDbLine
 10
-5.220564824841146
 20
-24.328233141350427
 30
0.0
 11
-5.007119348617697
 21
-24.035397971776746
 31
0.0
  0
LINE
  5
346
330
17
100
AcDbEntity
  8
0
100
AcDbLine
 10
-5.007119348617697
 20
-24.035397971776746
 30
0.0
 11
-4.8205271798623714
 21
-23.759127561989793
 31
0.0
  0
LINE
  5
347
330
17
100
AcDbEntity
  8
0
100
AcDbLine
 10
-4.8205271798623714
 20
-23.759127561989793
 30
0.0
 11
-4.659305558854435
 21
-23.500939799859257
 31
0.0
  0
LINE
  5
348
330
17
100
AcDbEntity
  8
0
100
AcDbLine
 10
-4.659305558854435
 20
-23.500939799859257
 30
0.0
 11
-4.52189854179131
 21
-23.262266835302064
 31
0.0
  0
LINE
  5
349
330
17
100
AcDbEntity
  8
0
100
AcDbLine
 10
-4.52189854179131
 20
-23.262266835302064
 30
0.0
 11
-4.406681267006091
 21
-23.044451825216345
 31
0.0
  0
LINE
  5
34A
330
17
100
AcDbEntity
  8
0
100
AcDbLine
 10
-4.406681267006091
 20
-23.044451825216345
 30
0.0
 11
-4.311964359007425
 21
-22.84874587494862
 31
0.0
  0
LINE
  5
34B
330
17
100
AcDbEntity
  8
0
100
AcDbLine
 10
-4.311964359007425
 20
-22.84874587494862
 30
0.0
 11
-4.235998461704738
 21
-22.676305181937867
 31
0.0
  0
LINE
  5
34C
330
17
100
AcDbEntity
  8
0
100
AcDbLine
 10
-4.235998461704738
 20
-22.676305181937867
 30
0.0
 11
-4.176978891956325
 21
-22.528188386812104
 31
0.0
  0
LINE
  5
34D
330
17
100
AcDbEntity
  8
0
100
AcDbLine
 10
-4.176978891956325
 20
-22.528188386812104
 30
0.0
 11
-4.13305040436765
 21
-22.40535413683704
 31
0.0
  0
LINE
  5
34E
330
17
100
AcDbEntity
  8
0
100
AcDbLine
 10
-4.13305040436765
 20
-22.40535413683704
 30
0.0
 11
-4.102312058072317
 21
-22.308658866231305
 31
0.0
  0
LINE
  5
34F
330
17
100
AcDbEntity
  8
0
100
AcDbLine
 10
-4.102312058072317
 20
-22.308658866231305
 30
0.0
 11
-4.082822176050218
 21
-22.23885479747064
 31
0.0
  0
LINE
  5
350
330
17
100
AcDbEntity
  8
0
100
AcDbLine
 10
-4.082822176050218
 20
-22.23885479747064
 30
0.0
 11
-4.072603387374035
 21
-22.19658816730415
 31
0.0
  0
LINE
  5
351
330
17
100
AcDbEntity
  8
0
100
AcDbLine
 10
-4.072603387374035
 20
-22.19658816730415
 30
0.0
 11
-4.069647742630376
 21
-22.182397680800182
 31
0.0
  0
LINE
  5
352
330
17
100
AcDbEntity
  8
0
100
AcDbLine
 10
-4.069647742630376
 20
-22.182397680800182
 30
0.0
 11
-3.8797006831063072
 21
-21.147054702948694
 31
0.0
  0
LINE
  5
353
330
17
100
AcDbEntity
  8
0
100
AcDbLine
 10
-3.8797006831063072
 20
-21.147054702948694
 30
0.0
 11
-3.522870993707956
 21
-21.20941724710255
 31
0.0
  0
LINE
  5
354
330
17
100
AcDbEntity
  8
0
100
AcDbLine
 10
-3.522870993707956
 20
-21.20941724710255
 30
0.0
 11
-3.165041285160676
 21
-21.265759183796575
 31
0.0
  0
LINE
  5
355
330
17
100
AcDbEntity
  8
0
100
AcDbLine
 10
-3.165041285160676
 20
-21.265759183796575
 30
0.0
 11
-2.8063131327311286
 21
-21.31606451953692
 31
0.0
  0
LINE
  5
356
330
17
100
AcDbEntity
  8
0
100
AcDbLine
 10
-2.8063131327311286
 20
-21.31606451953692
 30
0.0
 11
-2.4467883667225707
 21
-21.36031897440839
 31
0.0
  0
LINE
  5
357
330
17
100
AcDbEntity
  8
0
100
AcDbLine
 10
-2.4467883667225707
 20
-21.36031897440839
 30
0.0
 11
-2.0865690435688884
 21
-21.398509986128005
 31
0.0
  0
LINE
  5
358
330
17
100
AcDbEntity
  8
0
100
AcDbLine
 10
-2.0865690435688884
 20
-21.398509986128005
 30
0.0
 11
-1.7257574168642495
 21
-21.430626713611016
 31
0.0
  0
LINE
  5
359
330
17
100
AcDbEntity
  8
0
100
AcDbLine
 10
-1.7257574168642495
 20
-21.430626713611016
 30
0.0
 11
-1.8102491273234078
 21
-22.47985315155085
 31
0.0
  0
LINE
  5
35A
330
17
100
AcDbEntity
  8
0
100
AcDbLine
 10
-1.8102491273234078
 20
-22.47985315155085
 30
0.0
 11
-1.811066961898669
 21
-22.494325086102855
 31
0.0
  0
LINE
  5
35B
330
17
100
AcDbEntity
  8
0
100
AcDbLine
 10
-1.811066961898669
 20
-22.494325086102855
 30
0.0
 11
-1.812135778862347
 21
-22.53779633289815
 31
0.0
  0
LINE
  5
35C
330
17
100
AcDbEntity
  8
0
100
AcDbLine
 10
-1.812135778862347
 20
-22.53779633289815
 30
0.0
 11
-1.8113766208867799
 21
-22.610266238348256
 31
0.0
  0
LINE
  5
35D
330
17
100
AcDbEntity
  8
0
100
AcDbLine
 10
-1.8113766208867799
 20
-22.610266238348256
 30
0.0
 11
-1.8067122359468069
 21
-22.71162236694253
 31
0.0
  0
LINE
  5
35E
330
17
100
AcDbEntity
  8
0
100
AcDbLine
 10
-1.8067122359468069
 20
-22.71162236694253
 30
0.0
 11
-1.7960724185595185
 21
-22.841640670556796
 31
0.0
  0
LINE
  5
35F
330
17
100
AcDbEntity
  8
0
100
AcDbLine
 10
-1.7960724185595185
 20
-22.841640670556796
 30
0.0
 11
-1.7773993393611525
 21
-22.99998589696058
 31
0.0
  0
LINE
  5
360
330
17
100
AcDbEntity
  8
0
100
AcDbLine
 10
-1.7773993393611525
 20
-22.99998589696058
 30
0.0
 11
-1.7486528527411247
 21
-23.18621223684309
 31
0.0
  0
LINE
  5
361
330
17
100
AcDbEntity
  8
0
100
AcDbLine
 10
-1.7486528527411247
 20
-23.18621223684309
 30
0.0
 11
-1.707815772288141
 21
-23.399764208248406
 31
0.0
  0
LINE
  5
362
330
17
100
AcDbEntity
  8
0
100
AcDbLine
 10
-1.707815772288141
 20
-23.399764208248406
 30
0.0
 11
-1.6528991038578364
 21
-23.639977776882844
 31
0.0
  0
LINE
  5
363
330
17
100
AcDbEntity
  8
0
100
AcDbLine
 10
-1.6528991038578364
 20
-23.639977776882844
 30
0.0
 11
-1.5819472261417018
 21
-23.906081710332273
 31
0.0
  0
LINE
  5
364
330
17
100
AcDbEntity
  8
0
100
AcDbLine
 10
-1.5819472261417018
 20
-23.906081710332273
 30
0.0
 11
-1.493043008705731
 21
-24.197199163805095
 31
0.0
  0
LINE
  5
365
330
17
100
AcDbEntity
  8
0
100
AcDbLine
 10
-1.493043008705731
 20
-24.197199163805095
 30
0.0
 11
-1.3843128575728136
 21
-24.512349494598634
 31
0.0
  0
LINE
  5
366
330
17
100
AcDbEntity
  8
0
100
AcDbLine
 10
-1.3843128575728136
 20
-24.512349494598634
 30
0.0
 11
-1.2539316785455112
 21
-24.8504503020732
 31
0.0
  0
LINE
  5
367
330
17
100
AcDbEntity
  8
0
100
AcDbLine
 10
-1.2539316785455112
 20
-24.8504503020732
 30
0.0
 11
-1.1001277486054843
 21
-25.210319689509674
 31
0.0
  0
LINE
  5
368
330
17
100
AcDbEntity
  8
0
100
AcDbLine
 10
-1.1001277486054843
 20
-25.210319689509674
 30
0.0
 11
-0.9211874858817266
 21
-25.590678743824466
 31
0.0
  0
LINE
  5
369
330
17
100
AcDbEntity
  8
0
100
AcDbLine
 10
-0.9211874858817266
 20
-25.590678743824466
 30
0.0
 11
-0.7154601088530774
 21
-25.990154228719767
 31
0.0
  0
LINE
  5
36A
330
17
100
AcDbEntity
  8
0
100
AcDbLine
 10
-0.7154601088530774
 20
-25.990154228719767
 30
0.0
 11
-0.42931074950990883
 21
-25.9964553791542
 31
0.0
  0
LINE
  5
36B
330
17
100
AcDbEntity
  8
0
100
AcDbLine
 10
-0.42931074950990883
 20
-25.9964553791542
 30
0.0
 11
-0.14310936407980843
 21
-25.999606145284442
 31
0.0
  0
LINE
  5
36C
330
17
100
AcDbEntity
  8
0
100
AcDbLine
 10
-0.14310936407980843
 20
-25.999606145284442
 30
0.0
 11
0.14310936407979888
 21
-25.999606145284442
 31
0.0
  0
LINE
  5
36D
330
17
100
AcDbEntity
  8
0
100
AcDbLine
 10
0.14310936407979888
 20
-25.999606145284442
 30
0.0
 11
0.4293107495098993
 21
-25.9964553791542
 31
0.0
  0
LINE
  5
36E
330
17
100
AcDbEntity
  8
0
100
AcDbLine
 10
0.4293107495098993
 20
-25.9964553791542
 30
0.0
 11
0.7154601088530679
 21
-25.990154228719767
 31
0.0
  0
LINE
  5
36F
330
17
100
AcDbEntity
  8
0
100
AcDbLine
 10
0.7154601088530679
 20
-25.990154228719767
 30
0.0
 11
0.9211874858817172
 21
-25.59067874382447
 31
0.0
  0
LINE
  5
370
330
17
100
AcDbEntity
  8
0
100
AcDbLine
 10
0.9211874858817172
 20
-25.59067874382447
 30
0.0
 11
1.1001277486054752
 21
-25.210319689509674
 31
0.0
  0
LINE
  5
371
330
17
100
AcDbEntity
  8
0
100
AcDbLine
 10
1.1001277486054752
 20
-25.210319689509674
 30
0.0
 11
1.253931678545502
 21
-24.8504503020732
 31
0.0
  0
LINE
  5
372
330
17
100
AcDbEntity
  8
0
100
AcDbLine
 10
1.253931678545502
 20
-24.8504503020732
 30
0.0
 11
1.3843128575728045
 21
-24.512349494598634
 31
0.0
  0
LINE
  5
373
330
17
100
AcDbEntity
  8
0
100
AcDbLine
 10
1.3843128575728045
 20
-24.512349494598634
 30
0.0
 11
1.493043008705722
 21
-24.197199163805095
 31
0.0
  0
LINE
  5
374
330
17
100
AcDbEntity
  8
0
100
AcDbLine
 10
1.493043008705722
 20
-24.197199163805095
 30
0.0
 11
1.5819472261416931
 21
-23.906081710332273
 31
0.0
  0
LINE
  5
375
330
17
100
AcDbEntity
  8
0
100
AcDbLine
 10
1.5819472261416931
 20
-23.906081710332273
 30
0.0
 11
1.6528991038578276
 21
-23.639977776882844
 31
0.0
  0
LINE
  5
376
330
17
100
AcDbEntity
  8
0
100
AcDbLine
 10
1.6528991038578276
 20
-23.639977776882844
 30
0.0
 11
1.7078157722881326
 21
-23.399764208248406
 31
0.0
  0
LINE
  5
377
330
17
100
AcDbEntity
  8
0
100
AcDbLine
 10
1.7078157722881326
 20
-23.399764208248406
 30
0.0
 11
1.7486528527411163
 21
-23.18621223684309
 31
0.0
  0
LINE
  5
378
330
17
100
AcDbEntity
  8
0
100
AcDbLine
 10
1.7486528527411163
 20
-23.18621223684309
 30
0.0
 11
1.7773993393611438
 21
-22.99998589696058
 31
0.0
  0
LINE
  5
379
330
17
100
AcDbEntity
  8
0
100
AcDbLine
 10
1.7773993393611438
 20
-22.99998589696058
 30
0.0
 11
1.79607241855951
 21
-22.841640670556796
 31
0.0
  0
LINE
  5
37A
330
17
100
AcDbEntity
  8
0
100
AcDbLine
 10
1.79607241855951
 20
-22.841640670556796
 30
0.0
 11
1.8067122359467986
 21
-22.71162236694253
 31
0.0
  0
LINE
  5
37B
330
17
100
AcDbEntity
  8
0
100
AcDbLine
 10
1.8067122359467986
 20
-22.71162236694253
 30
0.0
 11
1.8113766208867716
 21
-22.610266238348256
 31
0.0
  0
LINE
  5
37C
330
17
100
AcDbEntity
  8
0
100
AcDbLine
 10
1.8113766208867716
 20
-22.610266238348256
 30
0.0
 11
1.812135778862339
 21
-22.53779633289815
 31
0.0
  0
LINE
  5
37D
330
17
100
AcDbEntity
  8
0
100
AcDbLine
 10
1.812135778862339
 20
-22.53779633289815
 30
0.0
 11
1.8110669618986606
 21
-22.494325086102855
 31
0.0
  0
LINE
  5
37E
330
17
100
AcDbEntity
  8
0
100
AcDbLine
 10
1.8110669618986606
 20
-22.494325086102855
 30
0.0
 11
1.8102491273233998
 21
-22.47985315155085
 31
0.0
  0
LINE
  5
37F
330
17
100
AcDbEntity
  8
0
100
AcDbLine
 10
1.8102491273233998
 20
-22.47985315155085
 30
0.0
 11
1.725757416864242
 21
-21.430626713611016
 31
0.0
  0
LINE
  5
380
330
17
100
AcDbEntity
  8
0
100
AcDbLine
 10
1.725757416864242
 20
-21.430626713611016
 30
0.0
 11
2.0865690435688804
 21
-21.39850998612801
 31
0.0
  0
LINE
  5
381
330
17
100
AcDbEntity
  8
0
100
AcDbLine
 10
2.0865690435688804
 20
-21.39850998612801
 30
0.0
 11
2.446788366722563
 21
-21.36031897440839
 31
0.0
  0
LINE
  5
382
330
17
100
AcDbEntity
  8
0
100
AcDbLine
 10
2.446788366722563
 20
-21.36031897440839
 30
0.0
 11
2.8063131327311024
 21
-21.316064519536926
 31
0.0
  0
LINE
  5
383
330
17
100
AcDbEntity
  8
0
100
AcDbLine
 10
2.8063131327311024
 20
-21.316064519536926
 30
0.0
 11
3.1650412851606493
 21
-21.265759183796582
 31
0.0
  0
LINE
  5
384
330
17
100
AcDbEntity
  8
0
100
AcDbLine
 10
3.1650412851606493
 20
-21.265759183796582
 30
0.0
 11
3.52287099370793
 21
-21.209417247102554
 31
0.0
  0
LINE
  5
385
330
17
100
AcDbEntity
  8
0
100
AcDbLine
 10
3.52287099370793
 20
-21.209417247102554
 30
0.0
 11
3.8797006831062806
 21
-21.147054702948697
 31
0.0
  0
LINE
  5
386
330
17
100
AcDbEntity
  8
0
100
AcDbLine
 10
3.8797006831062806
 20
-21.147054702948697
 30
0.0
 11
4.069647742630348
 21
-22.182397680800186
 31
0.0
  0
LINE
  5
387
330
17
100
AcDbEntity
  8
0
100
AcDbLine
 10
4.069647742630348
 20
-22.182397680800186
 30
0.0
 11
4.0726033873740075
 21
-22.196588167304153
 31
0.0
  0
LINE
  5
388
330
17
100
AcDbEntity
  8
0
100
AcDbLine
 10
4.0726033873740075
 20
-22.196588167304153
 30
0.0
 11
4.08282217605019
 21
-22.238854797470648
 31
0.0
  0
LINE
  5
389
330
17
100
AcDbEntity
  8
0
100
AcDbLine
 10
4.08282217605019
 20
-22.238854797470648
 30
0.0
 11
4.10231205807229
 21
-22.30865886623131
 31
0.0
  0
LINE
  5
38A
330
17
100
AcDbEntity
  8
0
100
AcDbLine
 10
4.10231205807229
 20
-22.30865886623131
 30
0.0
 11
4.133050404367622
 21
-22.405354136837044
 31
0.0
  0
LINE
  5
38B
330
17
100
AcDbEntity
  8
0
100
AcDbLine
 10
4.133050404367622
 20
-22.405354136837044
 30
0.0
 11
4.176978891956297
 21
-22.52818838681211
 31
0.0
  0
LINE
  5
38C
330
17
100
AcDbEntity
  8
0
100
AcDbLine
 10
4.176978891956297
 20
-22.52818838681211
 30
0.0
 11
4.23599846170471
 21
-22.67630518193787
 31
0.0
  0
LINE
  5
38D
330
17
100
AcDbEntity
  8
0
100
AcDbLine
 10
4.23599846170471
 20
-22.67630518193787
 30
0.0
 11
4.311964359007397
 21
-22.848745874948627
 31
0.0
  0
LINE
  5
38E
330
17
100
AcDbEntity
  8
0
100
AcDbLine
 10
4.311964359007397
 20
-22.848745874948627
 30
0.0
 11
4.4066812670060616
 21
-23.04445182521635
 31
0.0
  0
LINE
  5
38F
330
17
100
AcDbEntity
  8
0
100
AcDbLine
 10
4.4066812670060616
 20
-23.04445182521635
 30
0.0
 11
4.521898541791281
 21
-23.26226683530207
 31
0.0
  0
LINE
  5
390
330
17
100
AcDbEntity
  8
0
100
AcDbLine
 10
4.521898541791281
 20
-23.26226683530207
 30
0.0
 11
4.659305558854406
 21
-23.500939799859264
 31
0.0
  0
LINE
  5
391
330
17
100
AcDbEntity
  8
0
100
AcDbLine
 10
4.659305558854406
 20
-23.500939799859264
 30
0.0
 11
4.820527179862341
 21
-23.7591275619898
 31
0.0
  0
LINE
  5
392
330
17
100
AcDbEntity
  8
0
100
AcDbLine
 10
4.820527179862341
 20
-23.7591275619898
 30
0.0
 11
5.0071193486176675
 21
-24.03539797177675
 31
0.0
  0
LINE
  5
393
330
17
100
AcDbEntity
  8
0
100
AcDbLine
 10
5.0071193486176675
 20
-24.03539797177675
 30
0.0
 11
5.220564824841115
 21
-24.328233141350434
 31
0.0
  0
LINE
  5
394
330
17
100
AcDbEntity
  8
0
100
AcDbLine
 10
5.220564824841115
 20
-24.328233141350434
 30
0.0
 11
5.462269064172879
 21
-24.636032890486057
 31
0.0
  0
LINE
  5
395
330
17
100
AcDbEntity
  8
0
100
AcDbLine
 10
5.462269064172879
 20
-24.636032890486057
 30
0.0
 11
5.73355625253456
 21
-24.957118376383047
 31
0.0
  0
LINE
  5
396
330
17
100
AcDbEntity
  8
0
100
AcDbLine
 10
5.73355625253456
 20
-24.957118376383047
 30
0.0
 11
6.035665502723709
 21
-25.289735900938762
 31
0.0
  0
LINE
  5
397
330
17
100
AcDbEntity
  8
0
100
AcDbLine
 10
6.035665502723709
 20
-25.289735900938762
 30
0.0
 11
6.313695416827834
 21
-25.221761440936817
 31
0.0
  0
LINE
  5
398
330
17
100
AcDbEntity
  8
0
100
AcDbLine
 10
6.313695416827834
 20
-25.221761440936817
 30
0.0
 11
6.5909602048156515
 21
-25.15073047803058
 31
0.0
  0
LINE
  5
399
330
17
100
AcDbEntity
  8
0
100
AcDbLine
 10
6.5909602048156515
 20
-25.15073047803058
 30
0.0
 11
6.867426266312626
 21
-25.076651620117858
 31
0.0
  0
LINE
  5
39A
330
17
100
AcDbEntity
  8
0
100
AcDbLine
 10
6.867426266312626
 20
-25.076651620117858
 30
0.0
 11
7.1430600977381005
 21
-24.999533844456018
 31
0.0
  0
LINE
  5
39B
330
17
100
AcDbEntity
  8
0
100
AcDbLine
 10
7.1430600977381005
 20
-24.999533844456018
 30
0.0
 11
7.417828296365251
 21
-24.91938649657417
 31
0.0
  0
LINE
  5
39C
330
17
100
AcDbEntity
  8
0
100
AcDbLine
 10
7.417828296365251
 20
-24.91938649657417
 30
0.0
 11
7.513153819469464
 21
-24.480276645470447
 31
0.0
  0
LINE
  5
39D
330
17
100
AcDbEntity
  8
0
100
AcDbLine
 10
7.513153819469464
 20
-24.480276645470447
 30
0.0
 11
7.58755267336344
 21
-24.066564863716348
 31
0.0
  0
LINE
  5
39E
330
17
100
AcDbEntity
  8
0
100
AcDbLine
 10
7.58755267336344
 20
-24.066564863716348
 30
0.0
 11
7.642974810259329
 21
-23.679150342020538
 31
0.0
  0
LINE
  5
39F
330
17
100
AcDbEntity
  8
0
100
AcDbLine
 10
7.642974810259329
 20
-23.679150342020538
 30
0.0
 11
7.681406430204862
 21
-23.31882490793648
 31
0.0
  0
LINE
  5
3A0
330
17
100
AcDbEntity
  8
0
100
AcDbLine
 10
7.681406430204862
 20
-23.31882490793648
 30
0.0
 11
7.7048647836007325
 21
-22.98627163036938
 31
0.0
  0
LINE
  5
3A1
330
17
100
AcDbEntity
  8
0
100
AcDbLine
 10
7.7048647836007325
 20
-22.98627163036938
 30
0.0
 11
7.715392921967643
 21
-22.682063658914114
 31
0.0
  0
LINE
  5
3A2
330
17
100
AcDbEntity
  8
0
100
AcDbLine
 10
7.715392921967643
 20
-22.682063658914114
 30
0.0
 11
7.715054407123955
 21
-22.40666329987948
 31
0.0
  0
LINE
  5
3A3
330
17
100
AcDbEntity
  8
0
100
AcDbLine
 10
7.715054407123955
 20
-22.40666329987948
 30
0.0
 11
7.705927988999905
 21
-22.16042133042707
 31
0.0
  0
LINE
  5
3A4
330
17
100
AcDbEntity
  8
0
100
AcDbLine
 10
7.705927988999905
 20
-22.16042133042707
 30
0.0
 11
7.690102262360804
 21
-21.943576551824115
 31
0.0
  0
LINE
  5
3A5
330
17
100
AcDbEntity
  8
0
100
AcDbLine
 10
7.690102262360804
 20
-21.943576551824115
 30
0.0
 11
7.669670312740832
 21
-21.756255582379268
 31
0.0
  0
LINE
  5
3A6
330
17
100
AcDbEntity
  8
0
100
AcDbLine
 10
7.669670312740832
 20
-21.756255582379268
 30
0.0
 11
7.646724361900506
 21
-21.598472890199016
 31
0.0
  0
LINE
  5
3A7
330
17
100
AcDbEntity
  8
0
100
AcDbLine
 10
7.646724361900506
 20
-21.598472890199016
 30
0.0
 11
7.623350423114593
 21
-21.470131065471463
 31
0.0
  0
LINE
  5
3A8
330
17
100
AcDbEntity
  8
0
100
AcDbLine
 10
7.623350423114593
 20
-21.470131065471463
 30
0.0
 11
7.601622976573808
 21
-21.371021331553422
 31
0.0
  0
LINE
  5
3A9
330
17
100
AcDbEntity
  8
0
100
AcDbLine
 10
7.601622976573808
 20
-21.371021331553422
 30
0.0
 11
7.583599675141376
 21
-21.30082429370812
 31
0.0
  0
LINE
  5
3AA
330
17
100
AcDbEntity
  8
0
100
AcDbLine
 10
7.583599675141376
 20
-21.30082429370812
 30
0.0
 11
7.571316090647608
 21
-21.259110923913482
 31
0.0
  0
LINE
  5
3AB
330
17
100
AcDbEntity
  8
0
100
AcDbLine
 10
7.571316090647608
 20
-21.259110923913482
 30
0.0
 11
7.566780510828195
 21
-21.245343779737155
 31
0.0
  0
LINE
  5
3AC
330
17
100
AcDbEntity
  8
0
100
AcDbLine
 10
7.566780510828195
 20
-21.245343779737155
 30
0.0
 11
7.2136080008244505
 21
-20.253736929525907
 31
0.0
  0
LINE
  5
3AD
330
17
100
AcDbEntity
  8
0
100
AcDbLine
 10
7.2136080008244505
 20
-20.253736929525907
 30
0.0
 11
7.553812848744861
 21
-20.1293296323086
 31
0.0
  0
LINE
  5
3AE
330
17
100
AcDbEntity
  8
0
100
AcDbLine
 10
7.553812848744861
 20
-20.1293296323086
 30
0.0
 11
7.891873434922601
 21
-19.999208326510402
 31
0.0
  0
LINE
  5
3AF
330
17
100
AcDbEntity
  8
0
100
AcDbLine
 10
7.891873434922601
 20
-19.999208326510402
 30
0.0
 11
8.227693795849417
 21
-19.86340994899267
 31
0.0
  0
LINE
  5
3B0
330
17
100
AcDbEntity
  8
0
100
AcDbLine
 10
8.227693795849417
 20
-19.86340994899267
 30
0.0
 11
8.561178603938203
 21
-19.721973048137723
 31
0.0
  0
LINE
  5
3B1
330
17
100
AcDbEntity
  8
0
100
AcDbLine
 10
8.561178603938203
 20
-19.721973048137723
 30
0.0
 11
8.892233194583135
 21
-19.5749377729063
 31
0.0
  0
LINE
  5
3B2
330
17
100
AcDbEntity
  8
0
100
AcDbLine
 10
8.892233194583135
 20
-19.5749377729063
 30
0.0
 11
9.220763593031643
 21
-19.422345861440686
 31
0.0
  0
LINE
  5
3B3
330
17
100
AcDbEntity
  8
0
100
AcDbLine
 10
9.220763593031643
 20
-19.422345861440686
 30
0.0
 11
9.672204844334729
 21
-20.373248466248416
 31
0.0
  0
LINE
  5
3B4
330
17
100
AcDbEntity
  8
0
100
AcDbLine
 10
9.672204844334729
 20
-20.373248466248416
 30
0.0
 11
9.678732546092464
 21
-20.38619044649999
 31
0.0
  0
LINE
  5
3B5
330
17
100
AcDbEntity
  8
0
100
AcDbLine
 10
9.678732546092464
 20
-20.38619044649999
 30
0.0
 11
9.699542546847571
 21
-20.42437205904074
 31
0.0
  0
LINE
  5
3B6
330
17
100
AcDbEntity
  8
0
100
AcDbLine
 10
9.699542546847571
 20
-20.42437205904074
 30
0.0
 11
9.736434949664948
 21
-20.486753259182603
 31
0.0
  0
LINE
  5
3B7
330
17
100
AcDbEntity
  8
0
100
AcDbLine
 10
9.736434949664948
 20
-20.486753259182603
 30
0.0
 11
9.791152489813134
 21
-20.572198048904504
 31
0.0
  0
LINE
  5
3B8
330
17
100
AcDbEntity
  8
0
100
AcDbLine
 10
9.791152489813134
 20
-20.572198048904504
 30
0.0
 11
9.865375993769284
 21
-20.67947729409777
 31
0.0
  0
LINE
  5
3B9
330
17
100
AcDbEntity
  8
0
100
AcDbLine
 10
9.865375993769284
 20
-20.67947729409777
 30
0.0
 11
9.960719967923842
 21
-20.80727174313226
 31
0.0
  0
LINE
  5
3BA
330
17
100
AcDbEntity
  8
0
100
AcDbLine
 10
9.960719967923842
 20
-20.80727174313226
 30
0.0
 11
10.07872832554759
 21
-20.954175241014298
 31
0.0
  0
LINE
  5
3BB
330
17
100
AcDbEntity
  8
0
100
AcDbLine
 10
10.07872832554759
 20
-20.954175241014298
 30
0.0
 11
10.22087026033892
 21
-21.11869813305306
 31
0.0
  0
LINE
  5
3BC
330
17
100
AcDbEntity
  8
0
100
AcDbLine
 10
10.22087026033892
 20
-21.11869813305306
 30
0.0
 11
10.388536274607988
 21
-21.299270851609045
 31
0.0
  0
LINE
  5
3BD
330
17
100
AcDbEntity
  8
0
100
AcDbLine
 10
10.388536274607988
 20
-21.299270851609045
 30
0.0
 11
10.583034369881085
 21
-21.494247679165152
 31
0.0
  0
LINE
  5
3BE
330
17
100
AcDbEntity
  8
0
100
AcDbLine
 10
10.583034369881085
 20
-21.494247679165152
 30
0.0
 11
10.80558640742062
 21
-21.70191068063966
 31
0.0
  0
LINE
  5
3BF
330
17
100
AcDbEntity
  8
0
100
AcDbLine
 10
10.80558640742062
 20
-21.70191068063966
 30
0.0
 11
11.057324645855816
 21
-21.920473797551477
 31
0.0
  0
LINE
  5
3C0
330
17
100
AcDbEntity
  8
0
100
AcDbLine
 10
11.057324645855816
 20
-21.920473797551477
 30
0.0
 11
11.339288462806111
 21
-22.14808709635083
 31
0.0
  0
LINE
  5
3C1
330
17
100
AcDbEntity
  8
0
100
AcDbLine
 10
11.339288462806111
 20
-22.14808709635083
 30
0.0
 11
11.652421267054292
 21
-22.382841162945148
 31
0.0
  0
LINE
  5
3C2
330
17
100
AcDbEntity
  8
0
100
AcDbLine
 10
11.652421267054292
 20
-22.382841162945148
 30
0.0
 11
11.997567607490325
 21
-22.622771635179305
 31
0.0
  0
LINE
  5
3C3
330
17
100
AcDbEntity
  8
0
100
AcDbLine
 10
11.997567607490325
 20
-22.622771635179305
 30
0.0
 11
12.375470484698724
 21
-22.865863864773416
 31
0.0
  0
LINE
  5
3C4
330
17
100
AcDbEntity
  8
0
100
AcDbLine
 10
12.375470484698724
 20
-22.865863864773416
 30
0.0
 11
12.626433674383765
 21
-22.72824614145112
 31
0.0
  0
LINE
  5
3C5
330
17
100
AcDbEntity
  8
0
100
AcDbLine
 10
12.626433674383765
 20
-22.72824614145112
 30
0.0
 11
12.875866727829658
 21
-22.587874092246246
 31
0.0
  0
LINE
  5
3C6
330
17
100
AcDbEntity
  8
0
100
AcDbLine
 10
12.875866727829658
 20
-22.587874092246246
 30
0.0
 11
13.123739417454752
 21
-22.444764728166444
 31
0.0
  0
LINE
  5
3C7
330
17
100
AcDbEntity
  8
0
100
AcDbLine
 10
13.123739417454752
 20
-22.444764728166444
 30
0.0
 11
13.370021704770396
 21
-22.298935391941214
 31
0.0
  0
LINE
  5
3C8
330
17
100
AcDbEntity
  8
0
100
AcDbLine
 10
13.370021704770396
 20
-22.298935391941214
 30
0.0
 11
13.614683744021008
 21
-22.150403755920347
 31
0.0
  0
LINE
  5
3C9
330
17
100
AcDbEntity
  8
0
100
AcDbLine
 10
13.614683744021008
 20
-22.150403755920347
 30
0.0
 11
13.593111136334105
 21
-21.701584149297585
 31
0.0
  0
LINE
  5
3CA
330
17
100
AcDbEntity
  8
0
100
AcDbLine
 10
13.593111136334105
 20
-21.701584149297585
 30
0.0
 11
13.557898422455345
 21
-21.28271341433967
 31
0.0
  0
LINE
  5
3CB
330
17
100
AcDbEntity
  8
0
100
AcDbLine
 10
13.557898422455345
 20
-21.28271341433967
 30
0.0
 11
13.511161839267055
 21
-20.894155417805326
 31
0.0
  0
LINE
  5
3CC
330
17
100
AcDbEntity
  8
0
100
AcDbLine
 10
13.511161839267055
 20
-20.894155417805326
 30
0.0
 11
13.455024848742784
 21
-20.536160939978668
 31
0.0
  0
LINE
  5
3CD
330
17
100
AcDbEntity
  8
0
100
AcDbLine
 10
13.455024848742784
 20
-20.536160939978668
 30
0.0
 11
13.39161275638444
 21
-20.208867671933934
 31
0.0
  0
LINE
  5
3CE
330
17
100
AcDbEntity
  8
0
100
AcDbLine
 10
13.39161275638444
 20
-20.208867671933934
 30
0.0
 11
13.323047340451158
 21
-19.912300453023455
 31
0.0
  0
LINE
  5
3CF
330
17
100
AcDbEntity
  8
0
100
AcDbLine
 10
13.323047340451158
 20
-19.912300453023455
 30
0.0
 11
13.25144150227482
 21
-19.646371747751214
 31
0.0
  0
LINE
  5
3D0
330
17
100
AcDbEntity
  8
0
100
AcDbLine
 10
13.25144150227482
 20
-19.646371747751214
 30
0.0
 11
13.178893947909453
 21
-19.410882360764923
 31
0.0
  0
LINE
  5
3D1
330
17
100
AcDbEntity
  8
0
100
AcDbLine
 10
13.178893947909453
 20
-19.410882360764923
 30
0.0
 11
13.10748391129547
 21
-19.20552238827318
 31
0.0
  0
LINE
  5
3D2
330
17
100
AcDbEntity
  8
0
100
AcDbLine
 10
13.10748391129547
 20
-19.20552238827318
 30
0.0
 11
13.039265929036707
 21
-19.029872403771115
 31
0.0
  0
LINE
  5
3D3
330
17
100
AcDbEntity
  8
0
100
AcDbLine
 10
13.039265929036707
 20
-19.029872403771115
 30
0.0
 11
12.97626467678748
 21
-18.883404875538258
 31
0.0
  0
LINE
  5
3D4
330
17
100
AcDbEntity
  8
0
100
AcDbLine
 10
12.97626467678748
 20
-18.883404875538258
 30
0.0
 11
12.920469877129369
 21
-18.765485812957706
 31
0.0
  0
LINE
  5
3D5
330
17
100
AcDbEntity
  8
0
100
AcDbLine
 10
12.920469877129369
 20
-18.765485812957706
 30
0.0
 11
12.873831288683276
 21
-18.67537663829583
 31
0.0
  0
LINE
  5
3D6
330
17
100
AcDbEntity
  8
0
100
AcDbLine
 10
12.873831288683276
 20
-18.67537663829583
 30
0.0
 11
12.838253786050547
 21
-18.6122362801784
 31
0.0
  0
LINE
  5
3D7
330
17
100
AcDbEntity
  8
0
100
AcDbLine
 10
12.838253786050547
 20
-18.6122362801784
 30
0.0
 11
12.81559254001036
 21
-18.575123484601328
 31
0.0
  0
LINE
  5
3D8
330
17
100
AcDbEntity
  8
0
100
AcDbLine
 10
12.81559254001036
 20
-18.575123484601328
 30
0.0
 11
12.807648307216088
 21
-18.562999338925017
 31
0.0
  0
LINE
  5
3D9
330
17
100
AcDbEntity
  8
0
100
AcDbLine
 10
12.807648307216088
 20
-18.562999338925017
 30
0.0
 11
12.20986312057934
 21
-17.696588444576445
 31
0.0
  0
LINE
  5
3DA
330
17
100
AcDbEntity
  8
0
100
AcDbLine
 10
12.20986312057934
 20
-17.696588444576445
 30
0.0
 11
12.506276791544842
 21
-17.488368729337417
 31
0.0
  0
LINE
  5
3DB
330
17
100
AcDbEntity
  8
0
100
AcDbLine
 10
12.506276791544842
 20
-17.488368729337417
 30
0.0
 11
12.799140370470159
 21
-17.27518468141516
 31
0.0
  0
LINE
  5
3DC
330
17
100
AcDbEntity
  8
0
100
AcDbLine
 10
12.799140370470159
 20
-17.27518468141516
 30
0.0
 11
13.088370723687492
 21
-17.057096816261556
 31
0.0
  0
LINE
  5
3DD
330
17
100
AcDbEntity
  8
0
100
AcDbLine
 10
13.088370723687492
 20
-17.057096816261556
 30
0.0
 11
13.373885748873965
 21
-16.83416704134974
 31
0.0
  0
LINE
  5
3DE
330
17
100
AcDbEntity
  8
0
100
AcDbLine
 10
13.373885748873965
 20
-16.83416704134974
 30
0.0
 11
13.655604398357678
 21
-16.60645863860066
 31
0.0
  0
LINE
  5
3DF
330
17
100
AcDbEntity
  8
0
100
AcDbLine
 10
13.655604398357678
 20
-16.60645863860066
 30
0.0
 11
13.933446702124233
 21
-16.374036246419614
 31
0.0
  0
LINE
  5
3E0
330
17
100
AcDbEntity
  8
0
100
AcDbLine
 10
13.933446702124233
 20
-16.374036246419614
 30
0.0
 11
14.615617169971975
 21
-17.175696037106796
 31
0.0
  0
LINE
  5
3E1
330
17
100
AcDbEntity
  8
0
100
AcDbLine
 10
14.615617169971975
 20
-17.175696037106796
 30
0.0
 11
14.62527207665653
 21
-17.186507536539466
 31
0.0
  0
LINE
  5
3E2
330
17
100
AcDbEntity
  8
0
100
AcDbLine
 10
14.62527207665653
 20
-17.186507536539466
 30
0.0
 11
14.655255122329255
 21
-17.218002117657917
 31
0.0
  0
LINE
  5
3E3
330
17
100
AcDbEntity
  8
0
100
AcDbLine
 10
14.655255122329255
 20
-17.218002117657917
 30
0.0
 11
14.707035889657487
 21
-17.268709273481118
 31
0.0
  0
LINE
  5
3E4
330
17
100
AcDbEntity
  8
0
100
AcDbLine
 10
14.707035889657487
 20
-17.268709273481118
 30
0.0
 11
14.782003713722435
 21
-17.33708066110383
 31
0.0
  0
LINE
  5
3E5
330
17
100
AcDbEntity
  8
0
100
AcDbLine
 10
14.782003713722435
 20
-17.33708066110383
 30
0.0
 11
14.88146402491159
 21
-17.421493998242706
 31
0.0
  0
LINE
  5
3E6
330
17
100
AcDbEntity
  8
0
100
AcDbLine
 10
14.88146402491159
 20
-17.421493998242706
 30
0.0
 11
15.006634869197024
 21
-17.520257120674543
 31
0.0
  0
LINE
  5
3E7
330
17
100
AcDbEntity
  8
0
100
AcDbLine
 10
15.006634869197024
 20
-17.520257120674543
 30
0.0
 11
15.158643612587808
 21
-17.63161219281671
 31
0.0
  0
LINE
  5
3E8
330
17
100
AcDbEntity
  8
0
100
AcDbLine
 10
15.158643612587808
 20
-17.63161219281671
 30
0.0
 11
15.338523836216426
 21
-17.753740063421
 31
0.0
  0
LINE
  5
3E9
330
17
100
AcDbEntity
  8
0
100
AcDbLine
 10
15.338523836216426
 20
-17.753740063421
 30
0.0
 11
15.5472124281781
 21
-17.884764758088185
 31
0.0
  0
LINE
  5
3EA
330
17
100
AcDbEntity
  8
0
100
AcDbLine
 10
15.5472124281781
 20
-17.884764758088185
 30
0.0
 11
15.785546877891603
 21
-18.022758100059697
 31
0.0
  0
LINE
  5
3EB
330
17
100
AcDbEntity
  8
0
100
AcDbLine
 10
15.785546877891603
 20
-18.022758100059697
 30
0.0
 11
16.05426277838905
 21
-18.165744450507027
 31
0.0
  0
LINE
  5
3EC
330
17
100
AcDbEntity
  8
0
100
AcDbLine
 10
16.05426277838905
 20
-18.165744450507027
 30
0.0
 11
16.35399154157187
 21
-18.3117055593188
 31
0.0
  0
LINE
  5
3ED
330
17
100
AcDbEntity
  8
0
100
AcDbLine
 10
16.35399154157187
 20
-18.3117055593188
 30
0.0
 11
16.685258331091088
 21
-18.45858551717941
 31
0.0
  0
LINE
  5
3EE
330
17
100
AcDbEntity
  8
0
100
AcDbLine
 10
16.685258331091088
 20
-18.45858551717941
 30
0.0
 11
17.0484802171226
 21
-18.604295799543454
 31
0.0
  0
LINE
  5
3EF
330
17
100
AcDbEntity
  8
0
100
AcDbLine
 10
17.0484802171226
 20
-18.604295799543454
 30
0.0
 11
17.443964556913564
 21
-18.746720392935877
 31
0.0
  0
LINE
  5
3F0
330
17
100
AcDbEntity
  8
0
100
AcDbLine
 10
17.443964556913564
 20
-18.746720392935877
 30
0.0
 11
17.871907604573494
 21
-18.88372099385045
 31
0.0
  0
LINE
  5
3F1
330
17
100
AcDbEntity
  8
0
100
AcDbLine
 10
17.871907604573494
 20
-18.88372099385045
 30
0.0
 11
18.0787013431987
 21
-18.68583842762817
 31
0.0
  0
LINE
  5
3F2
330
17
100
AcDbEntity
  8
0
100
AcDbLine
 10
18.0787013431987
 20
-18.68583842762817
 30
0.0
 11
18.283304211717937
 21
-18.485691415302192
 31
0.0
  0
LINE
  5
3F3
330
17
100
AcDbEntity
  8
0
100
AcDbLine
 10
18.283304211717937
 20
-18.485691415302192
 30
0.0
 11
18.485691415302185
 21
-18.283304211717944
 31
0.0
  0
LINE
  5
3F4
330
17
100
AcDbEntity
  8
0
100
AcDbLine
 10
18.485691415302185
 20
-18.283304211717944
 30
0.0
 11
18.685838427628163
 21
-18.078701343198706
 31
0.0
  0
LINE
  5
3F5
330
17
100
AcDbEntity
  8
0
100
AcDbLine
 10
18.685838427628163
 20
-18.078701343198706
 30
0.0
 11
18.88372099385044
 21
-17.8719076045735
 31
0.0
  0
LINE
  5
3F6
330
17
100
AcDbEntity
  8
0
100
AcDbLine
 10
18.88372099385044
 20
-17.8719076045735
 30
0.0
 11
18.746720392935867
 21
-17.44396455691357
 31
0.0
  0
LINE
  5
3F7
330
17
100
AcDbEntity
  8
0
100
AcDbLine
 10
18.746720392935867
 20
-17.44396455691357
 30
0.0
 11
18.604295799543447
 21
-17.04848021712261
 31
0.0
  0
LINE
  5
3F8
330
17
100
AcDbEntity
  8
0
100
AcDbLine
 10
18.604295799543447
 20
-17.04848021712261
 30
0.0
 11
18.4585855171794
 21
-16.685258331091095
 31
0.0
  0
LINE
  5
3F9
330
17
100
AcDbEntity
  8
0
100
AcDbLine
 10
18.4585855171794
 20
-16.685258331091095
 30
0.0
 11
18.311705559318792
 21
-16.35399154157188
 31
0.0
  0
LINE
  5
3FA
330
17
100
AcDbEntity
  8
0
100
AcDbLine
 10
18.311705559318792
 20
-16.35399154157188
 30
0.0
 11
18.16574445050702
 21
-16.05426277838906
 31
0.0
  0
LINE
  5
3FB
330
17
100
AcDbEntity
  8
0
100
AcDbLine
 10
18.16574445050702
 20
-16.05426277838906
 30
0.0
 11
18.02275810005969
 21
-15.78554687789161
 31
0.0
  0
LINE
  5
3FC
330
17
100
AcDbEntity
  8
0
100
AcDbLine
 10
18.02275810005969
 20
-15.78554687789161
 30
0.0
 11
17.88476475808818
 21
-15.547212428178106
 31
0.0
  0
LINE
  5
3FD
330
17
100
AcDbEntity
  8
0
100
AcDbLine
 10
17.88476475808818
 20
-15.547212428178106
 30
0.0
 11
17.75374006342099
 21
-15.338523836216435
 31
0.0
  0
LINE
  5
3FE
330
17
100
AcDbEntity
  8
0
100
AcDbLine
 10
17.75374006342099
 20
-15.338523836216435
 30
0.0
 11
17.631612192816704
 21
-15.158643612587815
 31
0.0
  0
LINE
  5
3FF
330
17
100
AcDbEntity
  8
0
100
AcDbLine
 10
17.631612192816704
 20
-15.158643612587815
 30
0.0
 11
17.52025712067454
 21
-15.00663486919703
 31
0.0
  0
LINE
  5
400
330
17
100
AcDbEntity
  8
0
100
AcDbLine
 10
17.52025712067454
 20
-15.00663486919703
 30
0.0
 11
17.421493998242703
 21
-14.881464024911597
 31
0.0
  0
LINE
  5
401
330
17
100
AcDbEntity
  8
0
100
AcDbLine
 10
17.421493998242703
 20
-14.881464024911597
 30
0.0
 11
17.337080661103823
 21
-14.782003713722442
 31
0.0
  0
LINE
  5
402
330
17
100
AcDbEntity
  8
0
100
AcDbLine
 10
17.337080661103823
 20
-14.782003713722442
 30
0.0
 11
17.268709273481115
 21
-14.707035889657494
 31
0.0
  0
LINE
  5
403
330
17
100
AcDbEntity
  8
0
100
AcDbLine
 10
17.268709273481115
 20
-14.707035889657494
 30
0.0
 11
17.218002117657914
 21
-14.655255122329262
 31
0.0
  0
LINE
  5
404
330
17
100
AcDbEntity
  8
0
100
AcDbLine
 10
17.218002117657914
 20
-14.655255122329262
 30
0.0
 11
17.18650753653946
 21
-14.625272076656536
 31
0.0
  0
LINE
  5
405
330
17
100
AcDbEntity
  8
0
100
AcDbLine
 10
17.18650753653946
 20
-14.625272076656536
 30
0.0
 11
17.175696037106793
 21
-14.615617169971982
 31
0.0
  0
LINE
  5
406
330
17
100
AcDbEntity
  8
0
100
AcDbLine
 10
17.175696037106793
 20
-14.615617169971982
 30
0.0
 11
16.37403624641961
 21
-13.93344670212424
 31
0.0
  0
LINE
  5
407
330
17
100
AcDbEntity
  8
0
100
AcDbLine
 10
16.37403624641961
 20
-13.93344670212424
 30
0.0
 11
16.606458638600653
 21
-13.655604398357685
 31
0.0
  0
LINE
  5
408
330
17
100
AcDbEntity
  8
0
100
AcDbLine
 10
16.606458638600653
 20
-13.655604398357685
 30
0.0
 11
16.834167041349733
 21
-13.373885748873972
 31
0.0
  0
LINE
  5
409
330
17
100
AcDbEntity
  8
0
100
AcDbLine
 10
16.834167041349733
 20
-13.373885748873972
 30
0.0
 11
17.057096816261552
 21
-13.088370723687499
 31
0.0
  0
LINE
  5
40A
330
17
100
AcDbEntity
  8
0
100
AcDbLine
 10
17.057096816261552
 20
-13.088370723687499
 30
0.0
 11
17.275184681415144
 21
-12.799140370470184
 31
0.0
  0
LINE
  5
40B
330
17
100
AcDbEntity
  8
0
100
AcDbLine
 10
17.275184681415144
 20
-12.799140370470184
 30
0.0
 11
17.4883687293374
 21
-12.506276791544865
 31
0.0
  0
LINE
  5
40C
330
17
100
AcDbEntity
  8
0
100
AcDbLine
 10
17.4883687293374
 20
-12.506276791544865
 30
0.0
 11
17.696588444576427
 21
-12.209863120579366
 31
0.0
  0
LINE
  5
40D
330
17
100
AcDbEntity
  8
0
100
AcDbLine
 10
17.696588444576427
 20
-12.209863120579366
 30
0.0
 11
18.562999338925
 21
-12.807648307216112
 31
0.0
  0
LINE
  5
40E
330
17
100
AcDbEntity
  8
0
100
AcDbLine
 10
18.562999338925
 20
-12.807648307216112
 30
0.0
 11
18.575123484601313
 21
-12.815592540010384
 31
0.0
  0
LINE
  5
40F
330
17
100
AcDbEntity
  8
0
100
AcDbLine
 10
18.575123484601313
 20
-12.815592540010384
 30
0.0
 11
18.612236280178383
 21
-12.838253786050574
 31
0.0
  0
LINE
  5
410
330
17
100
AcDbEntity
  8
0
100
AcDbLine
 10
18.612236280178383
 20
-12.838253786050574
 30
0.0
 11
18.675376638295813
 21
-12.8738312886833
 31
0.0
  0
LINE
  5
411
330
17
100
AcDbEntity
  8
0
100
AcDbLine
 10
18.675376638295813
 20
-12.8738312886833
 30
0.0
 11
18.76548581295769
 21
-12.920469877129394
 31
0.0
  0
LINE
  5
412
330
17
100
AcDbEntity
  8
0
100
AcDbLine
 10
18.76548581295769
 20
-12.920469877129394
 30
0.0
 11
18.883404875538243
 21
-12.976264676787505
 31
0.0
  0
LINE
  5
413
330
17
100
AcDbEntity
  8
0
100
AcDbLine
 10
18.883404875538243
 20
-12.976264676787505
 30
0.0
 11
19.0298724037711
 21
-13.039265929036732
 31
0.0
  0
LINE
  5
414
330
17
100
AcDbEntity
  8
0
100
AcDbLine
 10
19.0298724037711
 20
-13.039265929036732
 30
0.0
 11
19.205522388273163
 21
-13.107483911295494
 31
0.0
  0
LINE
  5
415
330
17
100
AcDbEntity
  8
0
100
AcDbLine
 10
19.205522388273163
 20
-13.107483911295494
 30
0.0
 11
19.410882360764905
 21
-13.17889394790948
 31
0.0
  0
LINE
  5
416
330
17
100
AcDbEntity
  8
0
100
AcDbLine
 10
19.410882360764905
 20
-13.17889394790948
 30
0.0
 11
19.646371747751196
 21
-13.251441502274847
 31
0.0
  0
LINE
  5
417
330
17
100
AcDbEntity
  8
0
100
AcDbLine
 10
19.646371747751196
 20
-13.251441502274847
 30
0.0
 11
19.912300453023438
 21
-13.323047340451184
 31
0.0
  0
LINE
  5
418
330
17
100
AcDbEntity
  8
0
100
AcDbLine
 10
19.912300453023438
 20
-13.323047340451184
 30
0.0
 11
20.208867671933916
 21
-13.391612756384466
 31
0.0
  0
LINE
  5
419
330
17
100
AcDbEntity
  8
0
100
AcDbLine
 10
20.208867671933916
 20
-13.391612756384466
 30
0.0
 11
20.53616093997865
 21
-13.455024848742811
 31
0.0
  0
LINE
  5
41A
330
17
100
AcDbEntity
  8
0
100
AcDbLine
 10
20.53616093997865
 20
-13.455024848742811
 30
0.0
 11
20.894155417805308
 21
-13.511161839267084
 31
0.0
  0
LINE
  5
41B
330
17
100
AcDbEntity
  8
0
100
AcDbLine
 10
20.894155417805308
 20
-13.511161839267084
 30
0.0
 11
21.28271341433965
 21
-13.557898422455374
 31
0.0
  0
LINE
  5
41C
330
17
100
AcDbEntity
  8
0
100
AcDbLine
 10
21.28271341433965
 20
-13.557898422455374
 30
0.0
 11
21.701584149297567
 21
-13.593111136334134
 31
0.0
  0
LINE
  5
41D
330
17
100
AcDbEntity
  8
0
100
AcDbLine
 10
21.701584149297567
 20
-13.593111136334134
 30
0.0
 11
22.15040375592033
 21
-13.614683744021036
 31
0.0
  0
LINE
  5
41E
330
17
100
AcDbEntity
  8
0
100
AcDbLine
 10
22.15040375592033
 20
-13.614683744021036
 30
0.0
 11
22.298935391941196
 21
-13.370021704770426
 31
0.0
  0
LINE
  5
41F
330
17
100
AcDbEntity
  8
0
100
AcDbLine
 10
22.298935391941196
 20
-13.370021704770426
 30
0.0
 11
22.444764728166426
 21
-13.12373941745478
 31
0.0
  0
LINE
  5
420
330
17
100
AcDbEntity
  8
0
100
AcDbLine
 10
22.444764728166426
 20
-13.12373941745478
 30
0.0
 11
22.587874092246228
 21
-12.875866727829688
 31
0.0
  0
LINE
  5
421
330
17
100
AcDbEntity
  8
0
100
AcDbLine
 10
22.587874092246228
 20
-12.875866727829688
 30
0.0
 11
22.728246141451102
 21
-12.626433674383797
 31
0.0
  0
LINE
  5
422
330
17
100
AcDbEntity
  8
0
100
AcDbLine
 10
22.728246141451102
 20
-12.626433674383797
 30
0.0
 11
22.865863864773402
 21
-12.375470484698754
 31
0.0
  0
LINE
  5
423
330
17
100
AcDbEntity
  8
0
100
AcDbLine
 10
22.865863864773402
 20
-12.375470484698754
 30
0.0
 11
22.62277163517929
 21
-11.997567607490355
 31
0.0
  0
LINE
  5
424
330
17
100
AcDbEntity
  8
0
100
AcDbLine
 10
22.62277163517929
 20
-11.997567607490355
 30
0.0
 11
22.38284116294513
 21
-11.652421267054322
 31
0.0
  0
LINE
  5
425
330
17
100
AcDbEntity
  8
0
100
AcDbLine
 10
22.38284116294513
 20
-11.652421267054322
 30
0.0
 11
22.148087096350814
 21
-11.33928846280614
 31
0.0
  0
LINE
  5
426
330
17
100
AcDbEntity
  8
0
100
AcDbLine
 10
22.148087096350814
 20
-11.33928846280614
 30
0.0
 11
21.920473797551463
 21
-11.057324645855847
 31
0.0
  0
LINE
  5
427
330
17
100
AcDbEntity
  8
0
100
AcDbLine
 10
21.920473797551463
 20
-11.057324645855847
 30
0.0
 11
21.701910680639642
 21
-10.805586407420648
 31
0.0
  0
LINE
  5
428
330
17
100
AcDbEntity
  8
0
100
AcDbLine
 10
21.701910680639642
 20
-10.805586407420648
 30
0.0
 11
21.494247679165134
 21
-10.583034369881112
 31
0.0
  0
LINE
  5
429
330
17
100
AcDbEntity
  8
0
100
AcDbLine
 10
21.494247679165134
 20
-10.583034369881112
 30
0.0
 11
21.29927085160903
 21
-10.388536274608017
 31
0.0
  0
LINE
  5
42A
330
17
100
AcDbEntity
  8
0
100
AcDbLine
 10
21.29927085160903
 20
-10.388536274608017
 30
0.0
 11
21.118698133053044
 21
-10.220870260338947
 31
0.0
  0
LINE
  5
42B
330
17
100
AcDbEntity
  8
0
100
AcDbLine
 10
21.118698133053044
 20
-10.220870260338947
 30
0.0
 11
20.954175241014287
 21
-10.078728325547617
 31
0.0
  0
LINE
  5
42C
330
17
100
AcDbEntity
  8
0
100
AcDbLine
 10
20.954175241014287
 20
-10.078728325547617
 30
0.0
 11
20.80727174313225
 21
-9.960719967923868
 31
0.0
  0
LINE
  5
42D
330
17
100
AcDbEntity
  8
0
100
AcDbLine
 10
20.80727174313225
 20
-9.960719967923868
 30
0.0
 11
20.679477294097758
 21
-9.865375993769312
 31
0.0
  0
LINE
  5
42E
330
17
100
AcDbEntity
  8
0
100
AcDbLine
 10
20.679477294097758
 20
-9.865375993769312
 30
0.0
 11
20.572198048904493
 21
-9.791152489813161
 31
0.0
  0
LINE
  5
42F
330
17
100
AcDbEntity
  8
0
100
AcDbLine
 10
20.572198048904493
 20
-9.791152489813161
 30
0.0
 11
20.486753259182592
 21
-9.736434949664977
 31
0.0
  0
LINE
  5
430
330
17
100
AcDbEntity
  8
0
100
AcDbLine
 10
20.486753259182592
 20
-9.736434949664977
 30
0.0
 11
20.424372059040728
 21
-9.699542546847598
 31
0.0
  0
LINE
  5
431
330
17
100
AcDbEntity
  8
0
100
AcDbLine
 10
20.424372059040728
 20
-9.699542546847598
 30
0.0
 11
20.386190446499977
 21
-9.67873254609249
 31
0.0
  0
LINE
  5
432
330
17
100
AcDbEntity
  8
0
100
AcDbLine
 10
20.386190446499977
 20
-9.67873254609249
 30
0.0
 11
20.373248466248405
 21
-9.672204844334756
 31
0.0
  0
LINE
  5
433
330
17
100
AcDbEntity
  8
0
100
AcDbLine
 10
20.373248466248405
 20
-9.672204844334756
 30
0.0
 11
19.422345861440675
 21
-9.220763593031668
 31
0.0
  0
LINE
  5
434
330
17
100
AcDbEntity
  8
0
100
AcDbLine
 10
19.422345861440675
 20
-9.220763593031668
 30
0.0
 11
19.57493777290629
 21
-8.892233194583161
 31
0.0
  0
LINE
  5
435
330
17
100
AcDbEntity
  8
0
100
AcDbLine
 10
19.57493777290629
 20
-8.892233194583161
 30
0.0
 11
19.721973048137713
 21
-8.561178603938227
 31
0.0
  0
LINE
  5
436
330
17
100
AcDbEntity
  8
0
100
AcDbLine
 10
19.721973048137713
 20
-8.561178603938227
 30
0.0
 11
19.86340994899266
 21
-8.227693795849444
 31
0.0
  0
LINE
  5
437
330
17
100
AcDbEntity
  8
0
100
AcDbLine
 10
19.86340994899266
 20
-8.227693795849444
 30
0.0
 11
19.99920832651039
 21
-7.891873434922627
 31
0.0
  0
LINE
  5
438
330
17
100
AcDbEntity
  8
0
100
AcDbLine
 10
19.99920832651039
 20
-7.891873434922627
 30
0.0
 11
20.12932963230859
 21
-7.5538128487448875
 31
0.0
  0
LINE
  5
439
330
17
100
AcDbEntity
  8
0
100
AcDbLine
 10
20.12932963230859
 20
-7.5538128487448875
 30
0.0
 11
20.253736929525896
 21
-7.213608000824476
 31
0.0
  0
LINE
  5
43A
330
17
100
AcDbEntity
  8
0
100
AcDbLine
 10
20.253736929525896
 20
-7.213608000824476
 30
0.0
 11
21.245343779737148
 21
-7.566780510828223
 31
0.0
  0
LINE
  5
43B
330
17
100
AcDbEntity
  8
0
100
AcDbLine
 10
21.245343779737148
 20
-7.566780510828223
 30
0.0
 11
21.25911092391347
 21
-7.571316090647637
 31
0.0
  0
LINE
  5
43C
330
17
100
AcDbEntity
  8
0
100
AcDbLine
 10
21.25911092391347
 20
-7.571316090647637
 30
0.0
 11
21.30082429370811
 21
-7.5835996751414045
 31
0.0
  0
LINE
  5
43D
330
17
100
AcDbEntity
  8
0
100
AcDbLine
 10
21.30082429370811
 20
-7.5835996751414045
 30
0.0
 11
21.37102133155341
 21
-7.601622976573837
 31
0.0
  0
LINE
  5
43E
330
17
100
AcDbEntity
  8
0
100
AcDbLine
 10
21.37102133155341
 20
-7.601622976573837
 30
0.0
 11
21.470131065471453
 21
-7.623350423114623
 31
0.0
  0
LINE
  5
43F
330
17
100
AcDbEntity
  8
0
100
AcDbLine
 10
21.470131065471453
 20
-7.623350423114623
 30
0.0
 11
21.598472890199005
 21
-7.646724361900533
 31
0.0
  0
LINE
  5
440
330
17
100
AcDbEntity
  8
0
100
AcDbLine
 10
21.598472890199005
 20
-7.646724361900533
 30
0.0
 11
21.756255582379257
 21
-7.669670312740862
 31
0.0
  0
LINE
  5
441
330
17
100
AcDbEntity
  8
0
100
AcDbLine
 10
21.756255582379257
 20
-7.669670312740862
 30
0.0
 11
21.94357655182411
 21
-7.690102262360832
 31
0.0
  0
LINE
  5
442
330
17
100
AcDbEntity
  8
0
100
AcDbLine
 10
21.94357655182411
 20
-7.690102262360832
 30
0.0
 11
22.16042133042706
 21
-7.705927988999935
 31
0.0
  0
LINE
  5
443
330
17
100
AcDbEntity
  8
0
100
AcDbLine
 10
22.16042133042706
 20
-7.705927988999935
 30
0.0
 11
22.40666329987947
 21
-7.715054407123984
 31
0.0
  0
LINE
  5
444
330
17
100
AcDbEntity
  8
0
100
AcDbLine
 10
22.40666329987947
 20
-7.715054407123984
 30
0.0
 11
22.682063658914103
 21
-7.715392921967673
 31
0.0
  0
LINE
  5
445
330
17
100
AcDbEntity
  8
0
100
AcDbLine
 10
22.682063658914103
 20
-7.715392921967673
 30
0.0
 11
22.98627163036937
 21
-7.704864783600763
 31
0.0
  0
LINE
  5
446
330
17
100
AcDbEntity
  8
0
100
AcDbLine
 10
22.98627163036937
 20
-7.704864783600763
 30
0.0
 11
23.31882490793647
 21
-7.681406430204892
 31
0.0
  0
LINE
  5
447
330
17
100
AcDbEntity
  8
0
100
AcDbLine
 10
23.31882490793647
 20
-7.681406430204892
 30
0.0
 11
23.679150342020527
 21
-7.642974810259361
 31
0.0
  0
LINE
  5
448
330
17
100
AcDbEntity
  8
0
100
AcDbLine
 10
23.679150342020527
 20
-7.642974810259361
 30
0.0
 11
24.066564863716334
 21
-7.587552673363471
 31
0.0
  0
LINE
  5
449
330
17
100
AcDbEntity
  8
0
100
AcDbLine
 10
24.066564863716334
 20
-7.587552673363471
 30
0.0
 11
24.480276645470436
 21
-7.513153819469495
 31
0.0
  0
LINE
  5
44A
330
17
100
AcDbEntity
  8
0
100
AcDbLine
 10
24.480276645470436
 20
-7.513153819469495
 30
0.0
 11
24.91938649657416
 21
-7.4178282963652835
 31
0.0
  0
LINE
  5
44B
330
17
100
AcDbEntity
  8
0
100
AcDbLine
 10
24.91938649657416
 20
-7.4178282963652835
 30
0.0
 11
24.999533844456007
 21
-7.143060097738133
 31
0.0
  0
LINE
  5
44C
330
17
100
AcDbEntity
  8
0
100
AcDbLine
 10
24.999533844456007
 20
-7.143060097738133
 30
0.0
 11
25.076651620117843
 21
-6.867426266312659
 31
0.0
  0
LINE
  5
44D
330
17
100
AcDbEntity
  8
0
100
AcDbLine
 10
25.076651620117843
 20
-6.867426266312659
 30
0.0
 11
25.15073047803057
 21
-6.590960204815684
 31
0.0
  0
LINE
  5
44E
330
17
100
AcDbEntity
  8
0
100
AcDbLine
 10
25.15073047803057
 20
-6.590960204815684
 30
0.0
 11
25.22176144093681
 21
-6.3136954168278665
 31
0.0
  0
LINE
  5
44F
330
17
100
AcDbEntity
  8
0
100
AcDbLine
 10
25.22176144093681
 20
-6.3136954168278665
 30
0.0
 11
25.28973590093876
 21
-6.035665502723742
 31
0.0
  0
LINE
  5
450
330
17
100
AcDbEntity
  8
0
100
AcDbLine
 10
25.28973590093876
 20
-6.035665502723742
 30
0.0
 11
24.957118376383036
 21
-5.7335562525345924
 31
0.0
  0
LINE
  5
451
330
17
100
AcDbEntity
  8
0
100
AcDbLine
 10
24.957118376383036
 20
-5.7335562525345924
 30
0.0
 11
24.63603289048605
 21
-5.462269064172911
 31
0.0
  0
LINE
  5
452
330
17
100
AcDbEntity
  8
0
100
AcDbLine
 10
24.63603289048605
 20
-5.462269064172911
 30
0.0
 11
24.328233141350427
 21
-5.220564824841148
 31
0.0
  0
LINE
  5
453
330
17
100
AcDbEntity
  8
0
100
AcDbLine
 10
24.328233141350427
 20
-5.220564824841148
 30
0.0
 11
24.035397971776746
 21
-5.0071193486176995
 31
0.0
  0
LINE
  5
454
330
17
100
AcDbEntity
  8
0
100
AcDbLine
 10
24.035397971776746
 20
-5.0071193486176995
 30
0.0
 11
23.759127561989793
 21
-4.820527179862372
 31
0.0
  0
LINE
  5
455
330
17
100
AcDbEntity
  8
0
100
AcDbLine
 10
23.759127561989793
 20
-4.820527179862372
 30
0.0
 11
23.500939799859257
 21
-4.659305558854436
 31
0.0
  0
LINE
  5
456
330
17
100
AcDbEntity
  8
0
100
AcDbLine
 10
23.500939799859257
 20
-4.659305558854436
 30
0.0
 11
23.262266835302064
 21
-4.521898541791312
 31
0.0
  0
LINE
  5
457
330
17
100
AcDbEntity
  8
0
100
AcDbLine
 10
23.262266835302064
 20
-4.521898541791312
 30
0.0
 11
23.044451825216345
 21
-4.406681267006093
 31
0.0
  0
LINE
  5
458
330
17
100
AcDbEntity
  8
0
100
AcDbLine
 10
23.044451825216345
 20
-4.406681267006093
 30
0.0
 11
22.84874587494862
 21
-4.311964359007427
 31
0.0
  0
LINE
  5
459
330
17
100
AcDbEntity
  8
0
100
AcDbLine
 10
22.84874587494862
 20
-4.311964359007427
 30
0.0
 11
22.676305181937867
 21
-4.23599846170474
 31
0.0
  0
LINE
  5
45A
330
17
100
AcDbEntity
  8
0
100
AcDbLine
 10
22.676305181937867
 20
-4.23599846170474
 30
0.0
 11
22.528188386812104
 21
-4.176978891956326
 31
0.0
  0
LINE
  5
45B
330
17
100
AcDbEntity
  8
0
100
AcDbLine
 10
22.528188386812104
 20
-4.176978891956326
 30
0.0
 11
22.40535413683704
 21
-4.133050404367652
 31
0.0
  0
LINE
  5
45C
330
17
100
AcDbEntity
  8
0
100
AcDbLine
 10
22.40535413683704
 20
-4.133050404367652
 30
0.0
 11
22.308658866231305
 21
-4.102312058072319
 31
0.0
  0
LINE
  5
45D
330
17
100
AcDbEntity
  8
0
100
AcDbLine
 10
22.308658866231305
 20
-4.102312058072319
 30
0.0
 11
22.23885479747064
 21
-4.082822176050219
 31
0.0
  0
LINE
  5
45E
330
17
100
AcDbEntity
  8
0
100
AcDbLine
 10
22.23885479747064
 20
-4.082822176050219
 30
0.0
 11
22.19658816730415
 21
-4.072603387374037
 31
0.0
  0
LINE
  5
45F
330
17
100
AcDbEntity
  8
0
100
AcDbLine
 10
22.19658816730415
 20
-4.072603387374037
 30
0.0
 11
22.182397680800182
 21
-4.069647742630377
 31
0.0
  0
LINE
  5
460
330
17
100
AcDbEntity
  8
0
100
AcDbLine
 10
22.182397680800182
 20
-4.069647742630377
 30
0.0
 11
21.147054702948694
 21
-3.8797006831063086
 31
0.0
  0
LINE
  5
461
330
17
100
AcDbEntity
  8
0
100
AcDbLine
 10
21.147054702948694
 20
-3.8797006831063086
 30
0.0
 11
21.20941724710255
 21
-3.5228709937079574
 31
0.0
  0
LINE
  5
462
330
17
100
AcDbEntity
  8
0
100
AcDbLine
 10
21.20941724710255
 20
-3.5228709937079574
 30
0.0
 11
21.265759183796575
 21
-3.1650412851606773
 31
0.0
  0
LINE
  5
463
330
17
100
AcDbEntity
  8
0
100
AcDbLine
 10
21.265759183796575
 20
-3.1650412851606773
 30
0.0
 11
21.31606451953692
 21
-2.8063131327311304
 31
0.0
  0
LINE
  5
464
330
17
100
AcDbEntity
  8
0
100
AcDbLine
 10
21.31606451953692
 20
-2.8063131327311304
 30
0.0
 11
21.36031897440839
 21
-2.4467883667225725
 31
0.0
  0
LINE
  5
465
330
17
100
AcDbEntity
  8
0
100
AcDbLine
 10
21.36031897440839
 20
-2.4467883667225725
 30
0.0
 11
21.398509986128005
 21
-2.0865690435688897
 31
0.0
  0
LINE
  5
466
330
17
100
AcDbEntity
  8
0
100
AcDbLine
 10
21.398509986128005
 20
-2.0865690435688897
 30
0.0
 11
21.430626713611016
 21
-1.7257574168642522
 31
0.0
  0
ENDSEC
  0
SECTION
  2
OBJECTS
  0
DICTIONARY
  5
A
330
0
100
AcDbDictionary
281
1
  3
ACAD_COLOR
350
B
  3
ACAD_GROUP
350
C
  3
ACAD_LAYOUT
350
D
  3
ACAD_MATERIAL
350
E
  3
ACAD_MLEADERSTYLE
350
F
  3
ACAD_MLINESTYLE
350
10
  3
ACAD_PLOTSETTINGS
350
11
  3
ACAD_PLOTSTYLENAME
350
12
  3
ACAD_SCALELIST
350
14
  3
ACAD_TABLESTYLE
350
15
  3
ACAD_VISUALSTYLE
350
16
  3
EZDXF_META
350
2D
  0
DICTIONARY
  5
B
330
A
100
AcDbDictionary
281
1
  0
DICTIONARY
  5
C
330
A
100
AcDbDictionary
281
1
  0
DICTIONARY
  5
D
330
A
100
AcDbDictionary
281
1
  3
Model
350
1A
  3
Layout1
350
1E
  0
DICTIONARY
  5
E
330
A
100
AcDbDictionary
281
1
  3
ByBlock
350
1F
  3
ByLayer
350
20
  3
Global
350
21
  0
DICTIONARY
  5
F
330
A
100
AcDbDictionary
281
1
  3
Standard
350
2C
  0
DICTIONARY
  5
10
330
A
100
AcDbDictionary
281
1
  3
Standard
350
22
  0
DICTIONARY
  5
11
330
A
100
AcDbDictionary
281
1
  0
ACDBDICTIONARYWDFLT
  5
12
330
A
100
AcDbDictionary
281
1
  3
Normal
350
13
100
AcDbDictionaryWithDefault
340
13
  0
ACDBPLACEHOLDER
  5
13
330
12
  0
DICTIONARY
  5
14
330
A
100
AcDbDictionary
281
1
  0
DICTIONARY
  5
15
330
A
100
AcDbDictionary
281
1
  0
DICTIONARY
  5
16
330
A
100
AcDbDictionary
281
1
  0
LAYOUT
  5
1A
330
D
100
AcDbPlotSettings
  1

  4
A3
  6

 40
7.5
 41
20.0
 42
7.5
 43
20.0
 44
420.0
 45
297.0
 46
0.0
 47
0.0
 48
0.0
 49
0.0
140
0.0
141
0.0
142
1.0
143
1.0
 70
1024
 72
1
 73
0
 74
5
  7

 75
16
 76
0
 77
2
 78
300
147
1.0
148
0.0
149
0.0
100
AcDbLayout
  1
Model
 70
1
 71
0
 10
0.0
 20
0.0
 11
420.0
 21
297.0
 12
0.0
 22
0.0
 32
0.0
 14
1e+20
 24
1e+20
 34
1e+20
 15
-1e+20
 25
-1e+20
 35
-1e+20
146
0.0
 13
0.0
 23
0.0
 33
0.0
 16
1.0
 26
0.0
 36
0.0
 17
0.0
 27
1.0
 37
0.0
 76
1
330
17
  0
LAYOUT
  5
1E
330
D
100
AcDbPlotSettings
  1

  4
A3
  6

 40
7.5
 41
20.0
 42
7.5
 43
20.0
 44
420.0
 45
297.0
 46
0.0
 47
0.0
 48
0.0
 49
0.0
140
0.0
141
0.0
142
1.0
143
1.0
 70
0
 72
1
 73
0
 74
5
  7

 75
16
 76
0
 77
2
 78
300
147
1.0
148
0.0
149
0.0
100
AcDbLayout
  1
Layout1
 70
1
 71
1
 10
0.0
 20
0.0
 11
420.0
 21
297.0
 12
0.0
 22
0.0
 32
0.0
 14
1e+20
 24
1e+20
 34
1e+20
 15
-1e+20
 25
-1e+20
 35
-1e+20
146
0.0
 13
0.0
 23
0.0
 33
0.0
 16
1.0
 26
0.0
 36
0.0
 17
0.0
 27
1.0
 37
0.0
 76
1
330
1B
  0
MATERIAL
  5
1F
102
{ACAD_REACTORS
330
E
102
}
330
E
100
AcDbMaterial
  1
ByBlock
  2

 70
0
 40
1.0
 71
1
 41
1.0
 91
-1023410177
 42
1.0
 72
1
  3

 73
1
 74
1
 75
1
 44
0.5
 73
0
 45
1.0
 46
1.0
 77
1
  4

 78
1
 79
1
170
1
 48
1.0
171
1
  6

172
1
173
1
174
1
140
1.0
141
1.0
175
1
  7

176
1
177
1
178
1
143
1.0
179
1
  8

270
1
271
1
272
1
145
1.0
146
1.0
273
1
  9

274
1
275
1
276
1
 42
1.0
 72
1
  3

 73
1
 74
1
 75
1
 94
63
  0
MATERIAL
  5
20
102
{ACAD_REACTORS
330
E
102
}
330
E
100
AcDbMaterial
  1
ByLayer
  2

 70
0
 40
1.0
 71
1
 41
1.0
 91
-1023410177
 42
1.0
 72
1
  3

 73
1
 74
1
 75
1
 44
0.5
 73
0
 45
1.0
 46
1.0
 77
1
  4

 78
1
 79
1
170
1
 48
1.0
171
1
  6

172
1
173
1
174
1
140
1.0
141
1.0
175
1
  7

176
1
177
1
178
1
143
1.0
179
1
  8

270
1
271
1
272
1
145
1.0
146
1.0
273
1
  9

274
1
275
1
276
1
 42
1.0
 72
1
  3

 73
1
 74
1
 75
1
 94
63
  0
MATERIAL
  5
21
102
{ACAD_REACTORS
330
E
102
}
330
E
100
AcDbMaterial
  1
Global
  2

 70
0
 40
1.0
 71
1
 41
1.0
 91
-1023410177
 42
1.0
 72
1
  3

 73
1
 74
1
 75
1
 44
0.5
 73
0
 45
1.0
 46
1.0
 77
1
  4

 78
1
 79
1
170
1
 48
1.0
171
1
  6

172
1
173
1
174
1
140
1.0
141
1.0
175
1
  7

176
1
177
1
178
1
143
1.0
179
1
  8

270
1
271
1
272
1
145
1.0
146
1.0
273
1
  9

274
1
275
1
276
1
 42
1.0
 72
1
  3

 73
1
 74
1
 75
1
 94
63
  0
MLINESTYLE
  5
22
102
{ACAD_REACTORS
330
10
102
}
330
10
100
AcDbMlineStyle
  2
Standard
 70
0
  3

 62
256
 51
90.0
 52
90.0
 71
2
 49
0.5
 62
256
  6
BYLAYER
 49
-0.5
 62
256
  6
BYLAYER
  0
MLEADERSTYLE
  5
2C
102
{ACAD_REACTORS
330
F
102
}
330
F
100
AcDbMLeaderStyle
179
2
170
2
171
1
172
0
 90
2
 40
0.0
 41
0.0
173
1
 91
-1056964608
 92
-2
290
1
 42
2.0
291
1
 43
8.0
  3
Standard
 44
4.0
300

342
29
174
1
175
1
176
0
178
1
 93
-1056964608
 45
4.0
292
0
297
0
 46
4.0
 94
-1056964608
 47
1.0
 49
1.0
140
1.0
294
1
141
0.0
177
0
142
1.0
295
0
296
0
143
3.75
271
0
272
9
273
9
  0
DICTIONARY
  5
2D
330
A
100
AcDbDictionary
280
1
281
1
  3
CREATED_BY_EZDXF
350
2E
  3
WRITTEN_BY_EZDXF
350
46A
  0
DICTIONARYVAR
  5
2E
330
2D
100
DictionaryVariables
280
0
  1
1.4.4 @ 2026-06-30T15:57:13.180606+00:00
  0
DICTIONARYVAR
  5
46A
330
2D
100
DictionaryVariables
280
0
  1
1.4.4 @ 2026-06-30T15:57:13.256795+00:00
  0
ENDSEC
  0
EOF
